<?xml version="1.0" encoding="UTF-8"?>
<svg id="Layer_2" data-name="Layer 2" xmlns="http://www.w3.org/2000/svg" xmlns:xlink="http://www.w3.org/1999/xlink" viewBox="0 0 906.68 351.81">
  <defs>
    <style>
      .cls-1 {
        fill: #c9876a;
      }

      .cls-2 {
        clip-path: url(#clippath-2);
      }

      .cls-3 {
        fill: #874c33;
      }

      .cls-4 {
        clip-path: url(#clippath-1);
      }

      .cls-5 {
        clip-path: url(#clippath-4);
      }

      .cls-6 {
        fill: #2958a5;
      }

      .cls-7 {
        clip-path: url(#clippath);
      }

      .cls-8 {
        fill: #c63918;
      }

      .cls-9 {
        fill: none;
      }

      .cls-10 {
        clip-path: url(#clippath-3);
      }

      .cls-11 {
        fill: #2959a5;
      }

      .cls-12 {
        fill: #1d1d1b;
      }

      .cls-13 {
        fill: #8cb4e0;
      }
    </style>
    <clipPath id="clippath">
      <rect class="cls-9" width="906.68" height="351.81"/>
    </clipPath>
    <clipPath id="clippath-1">
      <rect class="cls-9" width="906.68" height="351.81"/>
    </clipPath>
    <clipPath id="clippath-2">
      <rect class="cls-9" width="906.68" height="351.81"/>
    </clipPath>
    <clipPath id="clippath-3">
      <rect class="cls-9" width="906.68" height="351.81"/>
    </clipPath>
    <clipPath id="clippath-4">
      <rect class="cls-9" width="906.68" height="351.81"/>
    </clipPath>
  </defs>
  <g id="Layer_1-2" data-name="Layer 1">
    <g>
      <path class="cls-6" d="M573.67,207.68v-13.96h8.52v1.48h-6.84v4.68h6.44v1.48h-6.44v4.84h6.84v1.48h-8.52Z"/>
      <path class="cls-6" d="M584.21,202.52c0-3.3,1.7-5.4,4.6-5.4,2.04,0,3.26,1,3.86,2.42l-1.34,.68c-.38-1.06-1.26-1.68-2.52-1.68-1.9,0-2.88,1.3-2.88,3.1v1.76c0,1.8,.98,3.1,2.88,3.1,1.3,0,2.24-.62,2.8-1.8l1.16,.78c-.66,1.48-2,2.44-3.96,2.44-2.9,0-4.6-2.1-4.6-5.4Z"/>
      <path class="cls-6" d="M594.17,202.52c0-3.28,1.9-5.4,4.66-5.4s4.66,2.12,4.66,5.4-1.9,5.4-4.66,5.4-4.66-2.12-4.66-5.4Zm7.6,.74v-1.48c0-2.18-1.22-3.24-2.94-3.24s-2.94,1.06-2.94,3.24v1.48c0,2.18,1.22,3.24,2.94,3.24s2.94-1.06,2.94-3.24Z"/>
      <path class="cls-6" d="M617.45,206h-.08c-.62,1.28-1.6,1.92-3.02,1.92-2.58,0-4.2-2.1-4.2-5.4s1.62-5.4,4.2-5.4c1.42,0,2.48,.62,3.02,1.92h.08v-6.16h1.6v14.8h-1.6v-1.68Zm0-1.62v-3.84c0-1.14-1.2-1.98-2.66-1.98-1.8,0-2.92,1.24-2.92,3.08v1.76c0,1.84,1.12,3.08,2.92,3.08,1.46,0,2.66-.76,2.66-2.1Z"/>
      <path class="cls-6" d="M621.69,202.52c0-3.28,1.84-5.4,4.64-5.4s4.46,2.12,4.46,5.04v.76h-7.42v.48c0,1.78,1.14,3.12,3.06,3.12,1.3,0,2.3-.64,2.84-1.78l1.14,.82c-.66,1.4-2.14,2.36-4.08,2.36-2.8,0-4.64-2.12-4.64-5.4Zm1.68-.94v.14h5.7v-.22c0-1.82-1.1-3.04-2.74-3.04-1.74,0-2.96,1.32-2.96,3.12Z"/>
      <path class="cls-6" d="M633.43,207.68v-10.32h1.6v1.68h.08c.46-1.06,1.18-1.92,2.78-1.92,1.36,0,2.6,.62,3.16,2.1h.04c.38-1.12,1.38-2.1,3.14-2.1,2.1,0,3.36,1.44,3.36,3.94v6.62h-1.6v-6.34c0-1.82-.7-2.78-2.26-2.78-1.26,0-2.42,.64-2.42,1.96v7.16h-1.6v-6.34c0-1.84-.7-2.78-2.22-2.78-1.26,0-2.46,.64-2.46,1.96v7.16h-1.6Z"/>
      <path class="cls-6" d="M658.39,207.68c-1.18,0-1.66-.72-1.78-1.68h-.1c-.44,1.26-1.54,1.92-2.98,1.92-2.18,0-3.46-1.2-3.46-3.12s1.4-3.02,4.4-3.02h2.04v-1.02c0-1.46-.8-2.26-2.44-2.26-1.24,0-2.06,.6-2.62,1.54l-.96-.9c.56-1.1,1.8-2.02,3.66-2.02,2.48,0,3.96,1.3,3.96,3.48v5.68h1.18v1.4h-.9Zm-1.88-3v-1.7h-2.12c-1.82,0-2.64,.56-2.64,1.56v.42c0,1.02,.8,1.6,2.04,1.6,1.58,0,2.72-.82,2.72-1.88Z"/>
      <path class="cls-6" d="M661.57,207.68v-10.32h1.6v1.68h.08c.5-1.16,1.38-1.92,2.92-1.92,2.12,0,3.46,1.44,3.46,3.94v6.62h-1.6v-6.34c0-1.84-.8-2.78-2.34-2.78-1.28,0-2.52,.64-2.52,1.96v7.16h-1.6Z"/>
      <path class="cls-6" d="M679.53,206h-.08c-.62,1.28-1.6,1.92-3.02,1.92-2.58,0-4.2-2.1-4.2-5.4s1.62-5.4,4.2-5.4c1.42,0,2.48,.62,3.02,1.92h.08v-6.16h1.6v14.8h-1.6v-1.68Zm0-1.62v-3.84c0-1.14-1.2-1.98-2.66-1.98-1.8,0-2.92,1.24-2.92,3.08v1.76c0,1.84,1.12,3.08,2.92,3.08,1.46,0,2.66-.76,2.66-2.1Z"/>
    </g>
    <g>
      <path class="cls-12" d="M496.21,314.92v-.6h1.22v-7.17h-1.22v-.6h3.17v.6h-1.22v7.17h1.22v.6h-3.17Z"/>
      <path class="cls-12" d="M501.25,314.92v-6.14h.68v.97h.04c.28-.64,.83-1.12,1.81-1.12,1.31,0,2.07,.84,2.07,2.34v3.95h-.68v-3.83c0-1.25-.55-1.85-1.57-1.85-.86,0-1.67,.44-1.67,1.36v4.32h-.68Z"/>
      <path class="cls-12" d="M507.52,311.85c0-2.03,.97-3.21,2.65-3.21,1.13,0,1.82,.55,2.18,1.35l-.58,.29c-.29-.66-.8-1.03-1.61-1.03-1.25,0-1.92,.88-1.92,2.17v.86c0,1.29,.67,2.17,1.92,2.17,.84,0,1.42-.38,1.76-1.07l.5,.34c-.4,.82-1.14,1.34-2.27,1.34-1.68,0-2.65-1.19-2.65-3.21Z"/>
      <path class="cls-12" d="M513.96,314.92v-6.14h.68v1.1h.05c.24-.58,.78-1.1,1.83-1.1h.41v.67h-.54c-1.02,0-1.75,.48-1.75,1.27v4.2h-.68Z"/>
      <path class="cls-12" d="M517.72,311.85c0-2.01,1.04-3.21,2.67-3.21s2.59,1.22,2.59,3.02v.32h-4.55v.3c0,1.28,.74,2.18,2,2.18,.88,0,1.52-.43,1.86-1.24l.5,.34c-.38,.9-1.24,1.5-2.4,1.5-1.64,0-2.69-1.2-2.69-3.21Zm.72-.46v.06h3.8v-.1c0-1.29-.74-2.15-1.85-2.15-1.19,0-1.96,.89-1.96,2.18Z"/>
      <path class="cls-12" d="M528.95,314.92c-.53,0-.74-.3-.78-.76v-.22h-.06c-.28,.68-.9,1.12-1.86,1.12-1.28,0-2.03-.67-2.03-1.81s.72-1.78,2.5-1.78h1.42v-.72c0-1.01-.53-1.52-1.57-1.52-.82,0-1.34,.36-1.68,1l-.43-.36c.34-.71,1.02-1.24,2.13-1.24,1.43,0,2.23,.75,2.23,2.05v3.63h.83v.6h-.7Zm-.82-1.79v-1.14h-1.44c-1.22,0-1.75,.42-1.75,1.1v.29c0,.71,.56,1.09,1.4,1.09,1,0,1.79-.52,1.79-1.34Z"/>
      <path class="cls-12" d="M530.42,313.89l.5-.4c.5,.66,1.09,.98,1.91,.98,.94,0,1.48-.42,1.48-1.16,0-.65-.37-1.02-1.26-1.15l-.5-.08c-1.12-.17-1.88-.61-1.88-1.71s.9-1.73,2.09-1.73c1.02,0,1.64,.4,2.1,.95l-.46,.42c-.32-.38-.83-.78-1.68-.78s-1.39,.41-1.39,1.1,.44,.98,1.32,1.13l.49,.07c1.25,.19,1.83,.73,1.83,1.72,0,1.14-.83,1.82-2.18,1.82-1.07,0-1.81-.42-2.36-1.17Z"/>
      <path class="cls-12" d="M536.64,306.68v-.12c0-.25,.14-.43,.47-.43s.47,.18,.47,.43v.12c0,.25-.14,.43-.47,.43s-.47-.18-.47-.43Zm.13,2.1h.68v6.14h-.68v-6.14Z"/>
      <path class="cls-12" d="M539.69,314.92v-6.14h.68v.97h.04c.28-.64,.83-1.12,1.81-1.12,1.31,0,2.07,.84,2.07,2.34v3.95h-.68v-3.83c0-1.25-.55-1.85-1.57-1.85-.86,0-1.67,.44-1.67,1.36v4.32h-.68Z"/>
      <path class="cls-12" d="M548.53,317.46c-1.87,0-2.65-.58-2.65-1.54,0-.7,.4-1.1,1.06-1.3v-.1c-.38-.16-.58-.43-.58-.84,0-.6,.46-.9,1.04-1.05v-.05c-.71-.32-1.14-.98-1.14-1.87,0-1.24,.88-2.09,2.23-2.09,.48,0,.9,.11,1.24,.3v-.3c0-.37,.17-.62,.56-.62h1.06v.6h-1.25v.59c.41,.37,.65,.9,.65,1.52,0,1.25-.89,2.1-2.24,2.1-.22,0-.43-.04-.64-.07-.53,.14-.91,.38-.91,.79,0,.36,.31,.55,.98,.55h1.43c1.47,0,2.11,.59,2.11,1.55,0,1.25-1.03,1.82-2.95,1.82Zm.84-2.73h-1.99c-.53,.18-.85,.53-.85,1.05,0,.64,.53,1.12,1.6,1.12h.77c1.19,0,1.93-.38,1.93-1.21,0-.59-.36-.96-1.45-.96Zm.65-3.81v-.38c0-.84-.58-1.34-1.51-1.34s-1.51,.5-1.51,1.34v.38c0,.86,.58,1.36,1.51,1.36s1.51-.49,1.51-1.36Z"/>
    </g>
    <g>
      <path class="cls-12" d="M496.08,326.25c0-2.01,1.04-3.21,2.67-3.21s2.59,1.22,2.59,3.02v.32h-4.54v.3c0,1.28,.74,2.18,2,2.18,.88,0,1.52-.43,1.86-1.24l.5,.34c-.38,.9-1.24,1.5-2.4,1.5-1.64,0-2.69-1.2-2.69-3.21Zm.72-.46v.06h3.8v-.1c0-1.29-.74-2.15-1.85-2.15-1.19,0-1.95,.89-1.95,2.18Z"/>
      <path class="cls-12" d="M503.84,329.32c-.49,0-.76-.3-.76-.74v-8.13h.68v8.28h.95v.6h-.88Z"/>
      <path class="cls-12" d="M505.76,326.25c0-2.01,1.04-3.21,2.67-3.21s2.59,1.22,2.59,3.02v.32h-4.54v.3c0,1.28,.74,2.18,2,2.18,.88,0,1.52-.43,1.86-1.24l.5,.34c-.38,.9-1.24,1.5-2.4,1.5-1.64,0-2.69-1.2-2.69-3.21Zm.72-.46v.06h3.8v-.1c0-1.29-.74-2.15-1.85-2.15-1.19,0-1.95,.89-1.95,2.18Z"/>
      <path class="cls-12" d="M512.28,326.25c0-2.03,.97-3.21,2.65-3.21,1.13,0,1.82,.55,2.18,1.35l-.58,.29c-.29-.66-.8-1.03-1.61-1.03-1.25,0-1.92,.88-1.92,2.17v.86c0,1.3,.67,2.17,1.92,2.17,.84,0,1.42-.38,1.76-1.07l.5,.34c-.4,.82-1.14,1.34-2.27,1.34-1.68,0-2.65-1.19-2.65-3.21Z"/>
      <path class="cls-12" d="M519.78,329.32c-.49,0-.76-.3-.76-.76v-4.79h-1.07v-.6h.7c.34,0,.43-.12,.43-.47v-1.25h.62v1.71h1.39v.6h-1.39v4.94h1.3v.6h-1.22Z"/>
      <path class="cls-12" d="M522.74,329.32v-6.14h.68v1.1h.05c.24-.58,.78-1.1,1.83-1.1h.41v.67h-.54c-1.02,0-1.75,.48-1.75,1.27v4.2h-.68Z"/>
      <path class="cls-12" d="M526.9,321.08v-.12c0-.25,.14-.43,.47-.43s.47,.18,.47,.43v.12c0,.25-.14,.43-.47,.43s-.47-.18-.47-.43Zm.13,2.1h.68v6.14h-.68v-6.14Z"/>
      <path class="cls-12" d="M529.45,326.25c0-2.03,.97-3.21,2.65-3.21,1.13,0,1.82,.55,2.18,1.35l-.58,.29c-.29-.66-.8-1.03-1.61-1.03-1.25,0-1.92,.88-1.92,2.17v.86c0,1.3,.67,2.17,1.92,2.17,.84,0,1.42-.38,1.76-1.07l.5,.34c-.4,.82-1.14,1.34-2.27,1.34-1.68,0-2.65-1.19-2.65-3.21Z"/>
      <path class="cls-12" d="M535.76,321.08v-.12c0-.25,.14-.43,.47-.43s.47,.18,.47,.43v.12c0,.25-.14,.43-.47,.43s-.47-.18-.47-.43Zm.13,2.1h.68v6.14h-.68v-6.14Z"/>
      <path class="cls-12" d="M539.87,329.32c-.49,0-.76-.3-.76-.76v-4.79h-1.07v-.6h.7c.34,0,.43-.12,.43-.47v-1.25h.62v1.71h1.39v.6h-1.39v4.94h1.3v.6h-1.22Z"/>
      <path class="cls-12" d="M546.54,323.18h.7l-2.84,7.87c-.19,.52-.4,.67-1.02,.67h-.7v-.6h1.03l.59-1.62-2.28-6.32h.72l1.88,5.41h.05l1.87-5.41Z"/>
      <path class="cls-12" d="M551.45,323.18h.68v.98h.04c.3-.68,.94-1.13,1.87-1.13,1.57,0,2.53,1.19,2.53,3.21s-.96,3.21-2.53,3.21c-.94,0-1.54-.44-1.87-1.13h-.04v3.38h-.68v-8.54Zm4.39,3.5v-.86c0-1.32-.73-2.17-1.96-2.17-.95,0-1.75,.56-1.75,1.37v2.43c0,.86,.8,1.4,1.75,1.4,1.22,0,1.96-.85,1.96-2.17Z"/>
      <path class="cls-12" d="M558.33,329.32v-6.14h.68v1.1h.05c.24-.58,.78-1.1,1.83-1.1h.41v.67h-.54c-1.02,0-1.75,.48-1.75,1.27v4.2h-.68Z"/>
      <path class="cls-12" d="M562.49,321.08v-.12c0-.25,.14-.43,.47-.43s.47,.18,.47,.43v.12c0,.25-.14,.43-.47,.43s-.47-.18-.47-.43Zm.13,2.1h.68v6.14h-.68v-6.14Z"/>
      <path class="cls-12" d="M565.04,326.25c0-2.03,.97-3.21,2.65-3.21,1.13,0,1.82,.55,2.18,1.35l-.58,.29c-.29-.66-.8-1.03-1.61-1.03-1.25,0-1.92,.88-1.92,2.17v.86c0,1.3,.67,2.17,1.92,2.17,.84,0,1.42-.38,1.76-1.07l.5,.34c-.4,.82-1.14,1.34-2.27,1.34-1.68,0-2.65-1.19-2.65-3.21Z"/>
      <path class="cls-12" d="M570.91,326.25c0-2.01,1.04-3.21,2.67-3.21s2.59,1.22,2.59,3.02v.32h-4.55v.3c0,1.28,.74,2.18,2,2.18,.88,0,1.52-.43,1.86-1.24l.5,.34c-.38,.9-1.24,1.5-2.4,1.5-1.64,0-2.69-1.2-2.69-3.21Zm.72-.46v.06h3.8v-.1c0-1.29-.74-2.15-1.85-2.15-1.19,0-1.96,.89-1.96,2.18Z"/>
      <path class="cls-12" d="M577.3,328.29l.5-.4c.5,.66,1.09,.98,1.91,.98,.94,0,1.48-.42,1.48-1.16,0-.65-.37-1.02-1.26-1.15l-.5-.08c-1.12-.17-1.88-.61-1.88-1.71s.9-1.73,2.09-1.73c1.02,0,1.64,.4,2.1,.95l-.46,.42c-.32-.38-.83-.78-1.68-.78s-1.39,.41-1.39,1.1,.44,.98,1.32,1.13l.49,.07c1.25,.19,1.83,.73,1.83,1.72,0,1.14-.83,1.82-2.18,1.82-1.07,0-1.81-.42-2.36-1.17Z"/>
    </g>
    <g>
      <path class="cls-12" d="M672.54,314.92v-8.37h4.89v.64h-4.17v3.17h3.97v.64h-3.97v3.3h4.17v.64h-4.89Z"/>
      <path class="cls-12" d="M679.36,314.92v-6.14h.68v.97h.04c.28-.64,.83-1.12,1.81-1.12,1.31,0,2.08,.84,2.08,2.34v3.95h-.68v-3.83c0-1.25-.55-1.85-1.57-1.85-.86,0-1.67,.44-1.67,1.36v4.32h-.68Z"/>
      <path class="cls-12" d="M685.62,311.85c0-2.01,1.04-3.21,2.67-3.21s2.59,1.22,2.59,3.02v.32h-4.55v.3c0,1.28,.74,2.18,2,2.18,.88,0,1.52-.43,1.86-1.24l.5,.34c-.38,.9-1.24,1.5-2.4,1.5-1.64,0-2.69-1.2-2.69-3.21Zm.72-.46v.06h3.8v-.1c0-1.29-.74-2.15-1.85-2.15-1.19,0-1.96,.89-1.96,2.18Z"/>
      <path class="cls-12" d="M692.63,314.92v-6.14h.68v1.1h.05c.24-.58,.78-1.1,1.83-1.1h.41v.67h-.54c-1.02,0-1.75,.48-1.75,1.27v4.2h-.68Z"/>
      <path class="cls-12" d="M698.71,317.46c-1.87,0-2.65-.58-2.65-1.54,0-.7,.4-1.1,1.06-1.3v-.1c-.38-.16-.58-.43-.58-.84,0-.6,.46-.9,1.04-1.05v-.05c-.71-.32-1.14-.98-1.14-1.87,0-1.24,.88-2.09,2.23-2.09,.48,0,.9,.11,1.24,.3v-.3c0-.37,.17-.62,.56-.62h1.06v.6h-1.25v.59c.41,.37,.65,.9,.65,1.52,0,1.25-.89,2.1-2.24,2.1-.22,0-.43-.04-.64-.07-.53,.14-.91,.38-.91,.79,0,.36,.31,.55,.98,.55h1.43c1.47,0,2.11,.59,2.11,1.55,0,1.25-1.03,1.82-2.95,1.82Zm.84-2.73h-1.99c-.53,.18-.85,.53-.85,1.05,0,.64,.53,1.12,1.6,1.12h.77c1.19,0,1.93-.38,1.93-1.21,0-.59-.36-.96-1.45-.96Zm.65-3.81v-.38c0-.84-.58-1.34-1.51-1.34s-1.51,.5-1.51,1.34v.38c0,.86,.58,1.36,1.51,1.36s1.51-.49,1.51-1.36Z"/>
      <path class="cls-12" d="M706.7,308.78h.7l-2.84,7.87c-.19,.52-.4,.67-1.02,.67h-.7v-.6h1.03l.59-1.62-2.28-6.32h.72l1.88,5.41h.05l1.87-5.41Z"/>
      <path class="cls-12" d="M710.99,313.89l.5-.4c.5,.66,1.09,.98,1.91,.98,.94,0,1.48-.42,1.48-1.16,0-.65-.37-1.02-1.26-1.15l-.5-.08c-1.12-.17-1.88-.61-1.88-1.71s.9-1.73,2.09-1.73c1.02,0,1.64,.4,2.1,.95l-.46,.42c-.32-.38-.83-.78-1.68-.78s-1.39,.41-1.39,1.1,.44,.98,1.32,1.13l.49,.07c1.25,.19,1.83,.73,1.83,1.72,0,1.14-.83,1.82-2.18,1.82-1.07,0-1.81-.42-2.36-1.17Z"/>
      <path class="cls-12" d="M721.56,314.92c-.53,0-.74-.3-.78-.76v-.22h-.06c-.28,.68-.9,1.12-1.86,1.12-1.28,0-2.03-.67-2.03-1.81s.72-1.78,2.5-1.78h1.42v-.72c0-1.01-.53-1.52-1.57-1.52-.82,0-1.34,.36-1.68,1l-.43-.36c.34-.71,1.02-1.24,2.13-1.24,1.43,0,2.23,.75,2.23,2.05v3.63h.83v.6h-.7Zm-.82-1.79v-1.14h-1.44c-1.22,0-1.75,.42-1.75,1.1v.29c0,.71,.56,1.09,1.4,1.09,1,0,1.79-.52,1.79-1.34Z"/>
      <path class="cls-12" d="M722.69,308.78h.72l1.88,5.41h.05l1.87-5.41h.7l-2.22,6.14h-.78l-2.22-6.14Z"/>
      <path class="cls-12" d="M729.13,306.68v-.12c0-.25,.14-.43,.47-.43s.47,.18,.47,.43v.12c0,.25-.14,.43-.47,.43s-.47-.18-.47-.43Zm.13,2.1h.68v6.14h-.68v-6.14Z"/>
      <path class="cls-12" d="M732.18,314.92v-6.14h.68v.97h.04c.28-.64,.83-1.12,1.81-1.12,1.31,0,2.07,.84,2.07,2.34v3.95h-.68v-3.83c0-1.25-.55-1.85-1.57-1.85-.86,0-1.67,.44-1.67,1.36v4.32h-.68Z"/>
      <path class="cls-12" d="M741.02,317.46c-1.87,0-2.65-.58-2.65-1.54,0-.7,.4-1.1,1.06-1.3v-.1c-.38-.16-.58-.43-.58-.84,0-.6,.46-.9,1.04-1.05v-.05c-.71-.32-1.14-.98-1.14-1.87,0-1.24,.88-2.09,2.23-2.09,.48,0,.9,.11,1.24,.3v-.3c0-.37,.17-.62,.56-.62h1.06v.6h-1.25v.59c.41,.37,.65,.9,.65,1.52,0,1.25-.89,2.1-2.24,2.1-.22,0-.43-.04-.64-.07-.53,.14-.91,.38-.91,.79,0,.36,.31,.55,.98,.55h1.43c1.47,0,2.11,.59,2.11,1.55,0,1.25-1.03,1.82-2.95,1.82Zm.84-2.73h-1.99c-.53,.18-.85,.53-.85,1.05,0,.64,.53,1.12,1.6,1.12h.77c1.19,0,1.93-.38,1.93-1.21,0-.59-.36-.96-1.45-.96Zm.65-3.81v-.38c0-.84-.58-1.34-1.51-1.34s-1.51,.5-1.51,1.34v.38c0,.86,.58,1.36,1.51,1.36s1.51-.49,1.51-1.36Z"/>
      <path class="cls-12" d="M752.34,314.92c-.53,0-.74-.3-.78-.76v-.22h-.06c-.28,.68-.9,1.12-1.86,1.12-1.28,0-2.03-.67-2.03-1.81s.72-1.78,2.5-1.78h1.42v-.72c0-1.01-.53-1.52-1.57-1.52-.82,0-1.34,.36-1.68,1l-.43-.36c.34-.71,1.02-1.24,2.13-1.24,1.43,0,2.23,.75,2.23,2.05v3.63h.83v.6h-.7Zm-.82-1.79v-1.14h-1.44c-1.22,0-1.75,.42-1.75,1.1v.29c0,.71,.56,1.09,1.4,1.09,1,0,1.79-.52,1.79-1.34Z"/>
      <path class="cls-12" d="M754.44,314.92v-6.14h.68v.97h.04c.28-.64,.83-1.12,1.81-1.12,1.31,0,2.07,.84,2.07,2.34v3.95h-.68v-3.83c0-1.25-.55-1.85-1.57-1.85-.86,0-1.67,.44-1.67,1.36v4.32h-.68Z"/>
      <path class="cls-12" d="M765.16,313.94h-.04c-.32,.68-.94,1.13-1.87,1.13-1.57,0-2.53-1.19-2.53-3.21s.96-3.21,2.53-3.21c.93,0,1.57,.44,1.87,1.13h.04v-3.72h.68v8.88h-.68v-.98Zm0-.89v-2.43c0-.8-.8-1.37-1.75-1.37-1.22,0-1.96,.85-1.96,2.17v.86c0,1.32,.73,2.17,1.96,2.17,.95,0,1.75-.54,1.75-1.4Z"/>
    </g>
    <g>
      <path class="cls-12" d="M671.98,326.25c0-2.01,1.04-3.21,2.67-3.21s2.59,1.22,2.59,3.02v.32h-4.54v.3c0,1.28,.74,2.18,2,2.18,.88,0,1.52-.43,1.86-1.24l.5,.34c-.38,.9-1.24,1.5-2.4,1.5-1.64,0-2.69-1.2-2.69-3.21Zm.72-.46v.06h3.8v-.1c0-1.29-.74-2.15-1.85-2.15-1.19,0-1.95,.89-1.95,2.18Z"/>
      <path class="cls-12" d="M679.27,323.78h-1.06v-.6h1.06v-1.71c0-.62,.31-1.02,.96-1.02h1.08v.6h-1.36v2.13h1.36v.6h-1.36v5.54h-.68v-5.54Z"/>
      <path class="cls-12" d="M682.98,323.78h-1.06v-.6h1.06v-1.71c0-.62,.31-1.02,.96-1.02h1.08v.6h-1.36v2.13h3.33v6.14h-.68v-5.54h-2.65v5.54h-.68v-5.54Zm3.21-2.7v-.12c0-.25,.13-.43,.47-.43s.47,.18,.47,.43v.12c0,.25-.14,.43-.47,.43s-.47-.18-.47-.43Z"/>
      <path class="cls-12" d="M688.75,326.25c0-2.03,.97-3.21,2.65-3.21,1.13,0,1.82,.55,2.18,1.35l-.58,.29c-.29-.66-.8-1.03-1.61-1.03-1.25,0-1.92,.88-1.92,2.17v.86c0,1.3,.67,2.17,1.92,2.17,.84,0,1.42-.38,1.76-1.07l.5,.34c-.4,.82-1.14,1.34-2.27,1.34-1.68,0-2.65-1.19-2.65-3.21Z"/>
      <path class="cls-12" d="M695.06,321.08v-.12c0-.25,.14-.43,.47-.43s.47,.18,.47,.43v.12c0,.25-.14,.43-.47,.43s-.47-.18-.47-.43Zm.13,2.1h.68v6.14h-.68v-6.14Z"/>
      <path class="cls-12" d="M697.62,326.25c0-2.01,1.04-3.21,2.67-3.21s2.59,1.22,2.59,3.02v.32h-4.55v.3c0,1.28,.74,2.18,2,2.18,.88,0,1.52-.43,1.86-1.24l.5,.34c-.38,.9-1.24,1.5-2.4,1.5-1.64,0-2.69-1.2-2.69-3.21Zm.72-.46v.06h3.8v-.1c0-1.29-.74-2.15-1.85-2.15-1.19,0-1.96,.89-1.96,2.18Z"/>
      <path class="cls-12" d="M704.63,329.32v-6.14h.68v.97h.04c.28-.64,.83-1.12,1.81-1.12,1.31,0,2.08,.84,2.08,2.34v3.95h-.68v-3.83c0-1.25-.55-1.85-1.57-1.85-.86,0-1.67,.44-1.67,1.36v4.32h-.68Z"/>
      <path class="cls-12" d="M712.44,329.32c-.49,0-.76-.3-.76-.76v-4.79h-1.07v-.6h.7c.34,0,.43-.12,.43-.47v-1.25h.62v1.71h1.39v.6h-1.39v4.94h1.3v.6h-1.22Z"/>
      <path class="cls-12" d="M718.24,323.18h.68v.98h.04c.3-.68,.94-1.13,1.87-1.13,1.57,0,2.53,1.19,2.53,3.21s-.96,3.21-2.53,3.21c-.94,0-1.54-.44-1.87-1.13h-.04v3.38h-.68v-8.54Zm4.39,3.5v-.86c0-1.32-.73-2.17-1.96-2.17-.95,0-1.75,.56-1.75,1.37v2.43c0,.86,.8,1.4,1.75,1.4,1.22,0,1.96-.85,1.96-2.17Z"/>
      <path class="cls-12" d="M725.12,329.32v-6.14h.68v1.1h.05c.24-.58,.78-1.1,1.83-1.1h.41v.67h-.54c-1.02,0-1.75,.48-1.75,1.27v4.2h-.68Z"/>
      <path class="cls-12" d="M728.88,326.25c0-2.01,1.05-3.21,2.67-3.21s2.67,1.2,2.67,3.21-1.06,3.21-2.67,3.21-2.67-1.2-2.67-3.21Zm4.62,.38v-.77c0-1.43-.76-2.22-1.94-2.22s-1.94,.78-1.94,2.22v.77c0,1.43,.75,2.22,1.94,2.22s1.94-.78,1.94-2.22Z"/>
      <path class="cls-12" d="M739.94,328.34h-.04c-.32,.68-.94,1.13-1.87,1.13-1.57,0-2.53-1.19-2.53-3.21s.96-3.21,2.53-3.21c.93,0,1.57,.44,1.87,1.13h.04v-3.72h.68v8.88h-.68v-.98Zm0-.89v-2.43c0-.8-.8-1.37-1.75-1.37-1.22,0-1.96,.85-1.96,2.17v.86c0,1.32,.73,2.17,1.96,2.17,.95,0,1.75-.54,1.75-1.4Z"/>
      <path class="cls-12" d="M746.7,328.35h-.05c-.23,.58-.73,1.12-1.79,1.12-1.31,0-2.09-.84-2.09-2.34v-3.95h.68v3.81c0,1.26,.56,1.86,1.58,1.86,.85,0,1.66-.44,1.66-1.37v-4.31h.68v6.14h-.68v-.97Z"/>
      <path class="cls-12" d="M749.12,326.25c0-2.03,.97-3.21,2.65-3.21,1.13,0,1.82,.55,2.18,1.35l-.58,.29c-.29-.66-.8-1.03-1.61-1.03-1.25,0-1.92,.88-1.92,2.17v.86c0,1.3,.67,2.17,1.92,2.17,.84,0,1.42-.38,1.76-1.07l.5,.34c-.4,.82-1.14,1.34-2.27,1.34-1.68,0-2.65-1.19-2.65-3.21Z"/>
      <path class="cls-12" d="M756.62,329.32c-.49,0-.76-.3-.76-.76v-4.79h-1.07v-.6h.7c.34,0,.43-.12,.43-.47v-1.25h.62v1.71h1.39v.6h-1.39v4.94h1.3v.6h-1.22Z"/>
      <path class="cls-12" d="M758.96,328.29l.5-.4c.5,.66,1.09,.98,1.91,.98,.94,0,1.48-.42,1.48-1.16,0-.65-.37-1.02-1.26-1.15l-.5-.08c-1.12-.17-1.88-.61-1.88-1.71s.9-1.73,2.09-1.73c1.02,0,1.64,.4,2.1,.95l-.46,.42c-.32-.38-.83-.78-1.68-.78s-1.39,.41-1.39,1.1,.44,.98,1.32,1.13l.49,.07c1.25,.19,1.83,.73,1.83,1.72,0,1.14-.83,1.82-2.18,1.82-1.07,0-1.81-.42-2.36-1.17Z"/>
    </g>
    <g class="cls-7">
      <path class="cls-6" d="M736.38,262.91c-4.19-2.55-6.75-6.83-6.75-11.39s2.56-8.84,6.75-11.39c4.19,2.55,6.75,6.83,6.75,11.39s-2.56,8.84-6.75,11.39m-45.04-.96v-5.52h11.05v5.52c0,.16-.06,.32-.18,.43-.12,.11-.27,.18-.43,.18h-9.82c-.34,0-.61-.28-.61-.61Zm-3.68-12.88h18.41v3.68h-18.41v-3.68Zm59.15,2.45c0-6.23-3.67-12.03-9.57-15.13-.54-.28-1.18-.28-1.71,0-5.91,3.1-9.58,8.9-9.58,15.13,0,5.88,3.26,11.37,8.59,14.57v14.88c0,.81-.32,1.59-.9,2.17-.58,.58-1.36,.9-2.17,.9h-29.7c-.81,0-1.59-.32-2.17-.9-.58-.58-.9-1.36-.9-2.17v-14.73h3.07c1.14,0,2.23-.45,3.04-1.26,.81-.81,1.26-1.9,1.26-3.04v-5.52h.61c.81,0,1.59-.32,2.17-.9,.58-.57,.9-1.35,.9-2.17v-4.91c0-.81-.32-1.59-.9-2.17-.58-.57-1.35-.9-2.17-.9h-.61v-7.36c0-.66-.35-1.26-.92-1.59-.57-.33-1.27-.33-1.84,0-.57,.33-.92,.94-.92,1.59v7.36h-11.05v-7.36c0-.66-.35-1.26-.92-1.59-.57-.33-1.27-.33-1.84,0-.57,.33-.92,.94-.92,1.59v7.36h-.61c-.81,0-1.59,.32-2.17,.9-.58,.58-.9,1.36-.9,2.17v4.91c0,.81,.32,1.59,.9,2.17,.58,.58,1.36,.9,2.17,.9h.61v5.52c0,1.14,.45,2.23,1.26,3.04,.81,.81,1.9,1.26,3.04,1.26h3.07v14.73c0,1.79,.71,3.5,1.98,4.77,1.27,1.27,2.98,1.98,4.77,1.98h29.7c1.79,0,3.51-.71,4.77-1.98,1.27-1.27,1.98-2.98,1.98-4.77v-14.88c5.33-3.21,8.59-8.69,8.59-14.57Z"/>
      <path class="cls-6" d="M538.5,277.34c-.91,0-1.81-.03-2.69-.08v-5.41c.88,.05,1.78,.08,2.69,.08,5.51,0,11.07-.96,14.13-2.8v4.46c0,1.27-4.98,3.75-14.13,3.75m-19.21,11.43c-9.14,0-14.13-2.48-14.13-3.76v-4.46c3.06,1.85,8.61,2.8,14.13,2.8s11.07-.96,14.12-2.8v4.46c0,1.28-4.98,3.76-14.12,3.76m0-23.14c1.37,0,2.64,.06,3.82,.15,.02,0,.04,0,.07,0h0c6.65,.57,10.22,2.52,10.22,3.6,0,1.28-4.98,3.76-14.13,3.76s-14.13-2.48-14.13-3.76c0-1.28,5-3.76,14.13-3.76h0Zm-14.13,7.11c3.06,1.85,8.61,2.8,14.13,2.8s11.07-.96,14.12-2.8v4.46c0,1.28-4.98,3.76-14.12,3.76s-14.13-2.48-14.13-3.76v-4.46Zm19.22-11.43c3.06,1.85,8.61,2.8,14.13,2.8s11.07-.96,14.13-2.8v4.46c0,1.28-4.98,3.76-14.13,3.76-.91,0-1.81-.03-2.69-.08v-.05c0-3.2-5.2-5.19-11.43-5.88v-2.2Zm14.12-22.74c9.14,0,14.13,2.48,14.13,3.76h0c-.02,1.28-5,3.76-14.13,3.76s-14.1-2.47-14.12-3.75h0c0-1.28,4.99-3.76,14.12-3.76Zm14.13,11.58c-.02,1.28-5,3.75-14.13,3.75s-14.1-2.47-14.12-3.75v-4.47c3.06,1.85,8.61,2.8,14.12,2.8s11.07-.96,14.13-2.8v4.47Zm0,7.82c-.02,1.28-5,3.75-14.13,3.75s-14.1-2.47-14.12-3.75v-4.47c3.06,1.85,8.61,2.8,14.12,2.8s11.07-.96,14.13-2.8v4.47Zm2.4-7.82h0v-7.8h0v-.03c-.02-4.03-8.32-6.14-16.52-6.14s-16.48,2.1-16.52,6.12v7.84h0v7.82h0v5.37c-.89-.05-1.79-.08-2.69-.08-8.21,0-16.52,2.12-16.52,6.16v15.62c0,4.04,8.31,6.16,16.52,6.16s16.52-2.12,16.52-6.16v-5.36c.88,.05,1.78,.08,2.69,.08,8.21,0,16.52-2.12,16.52-6.16v-15.61h0v-7.83h0Z"/>
    </g>
    <path class="cls-8" d="M567,270.35c-1.66,0-3-1.34-3-3v-37.62c0-1.66,1.34-3,3-3s3,1.34,3,3v37.62c0,1.66-1.34,3-3,3Z"/>
    <path class="cls-8" d="M575.73,242.12c-.8,0-1.61-.32-2.2-.96l-6.53-7.02-6.53,7.02c-1.13,1.21-3.03,1.28-4.24,.15-1.21-1.13-1.28-3.03-.15-4.24l10.92-11.75,10.92,11.75c1.13,1.21,1.06,3.11-.15,4.24-.58,.54-1.31,.8-2.04,.8Z"/>
    <g class="cls-4">
      <path class="cls-3" d="M179.66,134.99c30.08,0,54.47,24.39,54.47,54.47s-24.39,54.47-54.47,54.47-54.47-24.39-54.47-54.47,24.39-54.47,54.47-54.47m0-26.37c-44.65,0-80.84,36.19-80.84,80.84s36.19,80.84,80.84,80.84,80.84-36.19,80.84-80.84-36.19-80.84-80.84-80.84"/>
      <path class="cls-13" d="M102.45,165.42c10.23-32.91,40.93-56.8,77.2-56.8v26.37c-24.62,0-45.43,16.34-52.17,38.76"/>
      <path class="cls-1" d="M260.19,189.46c0-44.48-36.06-80.53-80.53-80.53v26.07c30.08,0,54.47,24.39,54.47,54.47h26.07Z"/>
      <path class="cls-6" d="M143.04,229.78c-10.97-9.96-17.86-24.34-17.86-40.33,0-5.46,.8-10.73,2.3-15.71l-25.04-8.34c-2.36,7.59-3.63,15.67-3.63,24.04,0,23,9.61,43.75,25.02,58.48"/>
    </g>
    <g>
      <path class="cls-12" d="M290.55,249.29v-9.07h5.41v.96h-4.32v3.04h3.94v.96h-3.94v4.11h-1.09Z"/>
      <path class="cls-12" d="M302.94,249.29l-.91-2.68h-3.67l-.91,2.68h-1.11l3.17-9.07h1.39l3.17,9.07h-1.14Zm-2.72-8.06h-.06l-1.53,4.42h3.13l-1.53-4.42Z"/>
      <path class="cls-12" d="M307.79,243.75l-1.09-2.02h-.04v7.55h-1.07v-9.07h1.26l3.32,5.54,1.09,2.01h.04v-7.55h1.07v9.07h-1.26l-3.32-5.54Z"/>
    </g>
    <g>
      <path class="cls-12" d="M272.86,260.78h-4.59v4.11h-1.09v-9.07h1.09v4h4.59v-4h1.09v9.07h-1.09v-4.11Z"/>
      <path class="cls-12" d="M276.37,264.89v-9.07h5.54v.96h-4.45v3.04h4.19v.96h-4.19v3.15h4.45v.96h-5.54Z"/>
      <path class="cls-12" d="M289.63,264.89l-.91-2.68h-3.67l-.91,2.68h-1.11l3.17-9.07h1.39l3.17,9.07h-1.14Zm-2.72-8.06h-.07l-1.53,4.42h3.13l-1.53-4.42Z"/>
      <path class="cls-12" d="M294.5,256.77v8.11h-1.09v-8.11h-2.89v-.96h6.86v.96h-2.89Z"/>
      <path class="cls-12" d="M298.89,264.89v-9.07h5.54v.96h-4.45v3.04h4.19v.96h-4.19v3.15h4.45v.96h-5.54Z"/>
      <path class="cls-12" d="M307.56,264.89h-1.09v-9.07h3.61c1.59,0,2.54,.92,2.54,2.57,0,1.33-.64,2.22-1.82,2.5l2.08,4h-1.24l-1.96-3.9h-2.12v3.9Zm2.52-4.84c.86,0,1.37-.47,1.37-1.3v-.68c0-.83-.51-1.3-1.37-1.3h-2.52v3.28h2.52Z"/>
    </g>
    <g>
      <path class="cls-12" d="M11.01,64.23v-.91h1.27v-7.25h-1.27v-.91h3.64v.91h-1.27v7.25h1.27v.91h-3.64Z"/>
      <path class="cls-12" d="M18.84,58.69l-1.09-2.02h-.04v7.55h-1.07v-9.07h1.26l3.31,5.54,1.09,2.01h.04v-7.55h1.07v9.07h-1.26l-3.31-5.54Z"/>
      <path class="cls-12" d="M25.83,64.23v-9.07h5.41v.96h-4.32v3.04h3.94v.96h-3.94v4.11h-1.09Z"/>
      <path class="cls-12" d="M34.19,64.23h-1.09v-9.07h3.61c1.59,0,2.54,.92,2.54,2.57,0,1.33-.64,2.22-1.82,2.5l2.08,4h-1.23l-1.96-3.9h-2.12v3.9Zm2.52-4.84c.86,0,1.37-.47,1.37-1.3v-.68c0-.83-.51-1.3-1.37-1.3h-2.52v3.28h2.52Z"/>
      <path class="cls-12" d="M47.1,64.23l-.91-2.68h-3.67l-.91,2.68h-1.1l3.17-9.07h1.39l3.17,9.07h-1.14Zm-2.72-8.06h-.07l-1.53,4.42h3.13l-1.53-4.42Z"/>
      <path class="cls-12" d="M50.85,64.23h-1.09v-9.07h3.61c1.59,0,2.54,.92,2.54,2.57,0,1.33-.64,2.22-1.82,2.5l2.08,4h-1.23l-1.96-3.9h-2.12v3.9Zm2.52-4.84c.86,0,1.36-.47,1.36-1.3v-.68c0-.83-.51-1.3-1.36-1.3h-2.52v3.28h2.52Z"/>
      <path class="cls-12" d="M58.07,64.23v-9.07h5.54v.96h-4.45v3.04h4.19v.96h-4.19v3.15h4.45v.96h-5.54Z"/>
      <path class="cls-12" d="M65.65,55.16h3.04c2.26,0,3.72,1.51,3.72,4.54s-1.46,4.54-3.72,4.54h-3.04v-9.07Zm3.04,8.11c1.5,0,2.55-1.04,2.55-2.83v-1.48c0-1.79-1.05-2.83-2.55-2.83h-1.95v7.15h1.95Z"/>
    </g>
    <g>
      <path class="cls-12" d="M17.12,75.72h-4.59v4.11h-1.09v-9.07h1.09v4h4.59v-4h1.09v9.07h-1.09v-4.11Z"/>
      <path class="cls-12" d="M20.63,79.83v-9.07h5.54v.96h-4.45v3.04h4.19v.96h-4.19v3.15h4.45v.96h-5.54Z"/>
      <path class="cls-12" d="M33.89,79.83l-.91-2.68h-3.67l-.91,2.68h-1.1l3.17-9.07h1.39l3.17,9.07h-1.14Zm-2.72-8.06h-.07l-1.53,4.42h3.13l-1.53-4.42Z"/>
      <path class="cls-12" d="M38.77,71.72v8.11h-1.09v-8.11h-2.89v-.96h6.86v.96h-2.89Z"/>
      <path class="cls-12" d="M43.15,79.83v-9.07h5.54v.96h-4.45v3.04h4.19v.96h-4.19v3.15h4.45v.96h-5.54Z"/>
      <path class="cls-12" d="M51.82,79.83h-1.09v-9.07h3.61c1.59,0,2.54,.92,2.54,2.57,0,1.33-.64,2.22-1.82,2.5l2.08,4h-1.23l-1.96-3.9h-2.12v3.9Zm2.52-4.84c.86,0,1.36-.47,1.36-1.3v-.68c0-.83-.51-1.3-1.36-1.3h-2.52v3.28h2.52Z"/>
    </g>
    <g>
      <path class="cls-12" d="M223.15,59.69c0-3.07,1.4-4.69,3.72-4.69s3.71,1.62,3.71,4.69-1.4,4.69-3.71,4.69-3.72-1.62-3.72-4.69Zm6.59,.57v-1.14c0-2.16-1.14-3.42-2.87-3.42s-2.89,1.26-2.89,3.42v1.14c0,2.16,1.14,3.42,2.89,3.42s2.87-1.26,2.87-3.42Z"/>
      <path class="cls-12" d="M232.21,64.23v-.65h1.33v-7.77h-1.33v-.65h3.43v.65h-1.33v7.77h1.33v.65h-3.43Z"/>
      <path class="cls-12" d="M237.75,64.23v-9.07h.78v8.38h4v.69h-4.78Z"/>
    </g>
    <g>
      <path class="cls-12" d="M229.37,75.57h-4.98v4.26h-.78v-9.07h.78v4.12h4.98v-4.12h.78v9.07h-.78v-4.26Z"/>
      <path class="cls-12" d="M232.73,79.83v-9.07h5.3v.69h-4.52v3.43h4.3v.69h-4.3v3.57h4.52v.69h-5.3Z"/>
      <path class="cls-12" d="M245.87,79.83l-.99-2.82h-3.86l-.99,2.82h-.78l3.21-9.07h1l3.22,9.07h-.82Zm-2.9-8.33h-.05l-1.7,4.84h3.46l-1.7-4.84Z"/>
      <path class="cls-12" d="M250.38,71.45v8.39h-.78v-8.39h-3.04v-.69h6.86v.69h-3.04Z"/>
      <path class="cls-12" d="M254.97,79.83v-9.07h5.3v.69h-4.52v3.43h4.3v.69h-4.3v3.57h4.52v.69h-5.3Z"/>
      <path class="cls-12" d="M263.21,79.83h-.78v-9.07h3.56c1.55,0,2.43,.94,2.43,2.52,0,1.39-.7,2.31-2,2.48l2.24,4.07h-.87l-2.17-4.02h-2.41v4.02Zm2.78-4.68c1.04,0,1.6-.65,1.6-1.55v-.62c0-.88-.56-1.53-1.6-1.53h-2.78v3.71h2.78Z"/>
    </g>
    <g>
      <path class="cls-12" d="M10.99,189.12c0-3.03,1.37-4.75,3.65-4.75,1.51,0,2.55,.73,3.12,1.99l-.88,.53c-.36-.94-1.12-1.55-2.24-1.55-1.56,0-2.48,1.23-2.48,3.09v1.35c0,1.86,.92,2.99,2.48,2.99,1.16,0,1.95-.65,2.31-1.64l.87,.55c-.57,1.27-1.68,2.07-3.19,2.07-2.29,0-3.65-1.61-3.65-4.64Z"/>
      <path class="cls-12" d="M19.52,193.61v-9.07h5.54v.96h-4.45v3.04h4.19v.96h-4.19v3.15h4.45v.96h-5.54Z"/>
      <path class="cls-12" d="M28.19,193.61h-1.09v-9.07h3.61c1.59,0,2.54,.92,2.54,2.57,0,1.33-.64,2.22-1.82,2.5l2.08,4h-1.23l-1.96-3.9h-2.12v3.9Zm2.52-4.84c.86,0,1.37-.47,1.37-1.3v-.68c0-.83-.51-1.3-1.37-1.3h-2.52v3.28h2.52Z"/>
      <path class="cls-12" d="M41.1,193.61l-.91-2.68h-3.67l-.91,2.68h-1.1l3.17-9.07h1.39l3.17,9.07h-1.14Zm-2.72-8.06h-.07l-1.53,4.42h3.13l-1.53-4.42Z"/>
      <path class="cls-12" d="M43.75,184.53h1.46l2.6,4.89h.06l2.61-4.89h1.4v9.07h-1.07v-7.64h-.06l-.77,1.52-2.17,3.95-2.17-3.95-.77-1.52h-.07v7.64h-1.07v-9.07Z"/>
      <path class="cls-12" d="M53.87,193.61v-.91h1.27v-7.25h-1.27v-.91h3.64v.91h-1.27v7.25h1.27v.91h-3.64Z"/>
      <path class="cls-12" d="M59.05,189.12c0-3.03,1.37-4.75,3.65-4.75,1.51,0,2.55,.73,3.12,1.99l-.88,.53c-.36-.94-1.12-1.55-2.24-1.55-1.56,0-2.48,1.23-2.48,3.09v1.35c0,1.86,.92,2.99,2.48,2.99,1.16,0,1.95-.65,2.31-1.64l.87,.55c-.57,1.27-1.68,2.07-3.19,2.07-2.29,0-3.65-1.61-3.65-4.64Z"/>
    </g>
    <g>
      <path class="cls-12" d="M17.12,205.1h-4.59v4.11h-1.09v-9.07h1.09v4h4.59v-4h1.09v9.07h-1.09v-4.11Z"/>
      <path class="cls-12" d="M20.63,209.21v-9.07h5.54v.96h-4.45v3.04h4.19v.96h-4.19v3.15h4.45v.96h-5.54Z"/>
      <path class="cls-12" d="M33.89,209.21l-.91-2.68h-3.67l-.91,2.68h-1.1l3.17-9.07h1.39l3.17,9.07h-1.14Zm-2.72-8.06h-.07l-1.53,4.42h3.13l-1.53-4.42Z"/>
      <path class="cls-12" d="M38.77,201.09v8.11h-1.09v-8.11h-2.89v-.96h6.86v.96h-2.89Z"/>
      <path class="cls-12" d="M43.15,209.21v-9.07h5.54v.96h-4.45v3.04h4.19v.96h-4.19v3.15h4.45v.96h-5.54Z"/>
      <path class="cls-12" d="M51.82,209.21h-1.09v-9.07h3.61c1.59,0,2.54,.92,2.54,2.57,0,1.33-.64,2.22-1.82,2.5l2.08,4h-1.23l-1.96-3.9h-2.12v3.9Zm2.52-4.84c.86,0,1.36-.47,1.36-1.3v-.68c0-.83-.51-1.3-1.36-1.3h-2.52v3.28h2.52Z"/>
    </g>
    <g class="cls-2">
      <path class="cls-1" d="M25.82,220.25c-2.1,0-4.2-.64-5.62-1.91-2.36-2.12-7.18-2.12-9.54,0l-.84-.94c2.84-2.55,8.4-2.54,11.23,0,2.36,2.12,7.18,2.12,9.54,0,2.83-2.55,8.4-2.55,11.23,0,2.36,2.12,7.18,2.12,9.54,0,2.83-2.55,8.4-2.54,11.23,0,2.36,2.12,7.18,2.12,9.54,0,2.83-2.55,8.4-2.54,11.23,0,2.36,2.12,7.18,2.12,9.54,0,2.83-2.54,8.4-2.54,11.23,0,2.36,2.12,7.18,2.12,9.54,0l.84,.94c-2.83,2.55-8.4,2.55-11.23,0-2.36-2.12-7.18-2.12-9.54,0-2.83,2.54-8.4,2.55-11.23,0-2.36-2.12-7.18-2.12-9.54,0-2.83,2.54-8.4,2.54-11.23,0-2.36-2.12-7.18-2.12-9.54,0-2.83,2.55-8.4,2.55-11.23,0-2.36-2.12-7.18-2.12-9.54,0-1.42,1.27-3.52,1.91-5.62,1.91Z"/>
      <path class="cls-1" d="M62.74,99.53c-1.95,0-3.9-.64-5.21-1.93-2.15-2.1-6.52-2.1-8.66,0-2.63,2.57-7.8,2.57-10.43,0-2.15-2.1-6.52-2.1-8.66,0-2.63,2.57-7.8,2.57-10.43,0-2.15-2.1-6.52-2.1-8.66,0l-.88-.9c2.63-2.57,7.8-2.57,10.43,0,2.15,2.1,6.52,2.1,8.66,0,2.63-2.57,7.8-2.57,10.43,0,2.15,2.1,6.52,2.1,8.66,0,2.63-2.57,7.8-2.57,10.43,0,2.15,2.1,6.52,2.1,8.66,0,2.63-2.57,7.8-2.57,10.43,0,2.15,2.1,6.52,2.1,8.66,0,2.63-2.57,7.8-2.57,10.43,0,2.14,2.1,6.52,2.1,8.66,0,2.63-2.57,7.8-2.57,10.43,0,2.15,2.1,6.52,2.1,8.66,0,2.63-2.57,7.8-2.57,10.43,0,2.15,2.1,6.52,2.1,8.66,0l.88,.9c-2.63,2.57-7.8,2.57-10.43,0-2.15-2.1-6.52-2.1-8.66,0-2.63,2.57-7.8,2.57-10.43,0-2.14-2.1-6.52-2.1-8.66,0-2.63,2.57-7.8,2.57-10.43,0-2.15-2.1-6.52-2.1-8.66,0-2.63,2.57-7.8,2.57-10.43,0-2.15-2.1-6.52-2.1-8.66,0-1.31,1.29-3.26,1.93-5.21,1.93Z"/>
      <path class="cls-1" d="M316.22,98.91c-2.08,0-4.17-.64-5.58-1.91-2.35-2.12-7.12-2.12-9.46,0-2.81,2.55-8.34,2.55-11.15,0-2.34-2.12-7.12-2.12-9.46,0-2.81,2.55-8.34,2.55-11.15,0-2.34-2.12-7.11-2.12-9.46,0-2.82,2.55-8.34,2.55-11.15,0-2.34-2.12-7.12-2.12-9.46,0-2.81,2.55-8.34,2.55-11.15,0-2.34-2.12-7.12-2.12-9.46,0l-.85-.94c2.82-2.55,8.34-2.55,11.15,0,2.34,2.12,7.12,2.12,9.46,0,2.82-2.55,8.34-2.55,11.15,0,2.34,2.12,7.12,2.12,9.46,0,2.82-2.55,8.34-2.55,11.15,0,2.34,2.12,7.12,2.12,9.46,0,2.82-2.55,8.34-2.55,11.15,0,2.34,2.12,7.12,2.12,9.46,0,2.82-2.55,8.34-2.55,11.15,0,2.34,2.12,7.12,2.12,9.46,0l.85,.94c-1.41,1.27-3.49,1.91-5.58,1.91Z"/>
    </g>
    <rect class="cls-1" x="149.34" y="95.12" width="1.36" height="23.84" transform="translate(-33.69 92.44) rotate(-30.96)"/>
    <rect class="cls-1" x="200.11" y="106.36" width="23.84" height="1.36" transform="translate(11.12 233.74) rotate(-59.02)"/>
    <rect class="cls-1" x="203.1" y="258.66" width="1.36" height="23.84" transform="translate(-110.17 143.4) rotate(-30.96)"/>
    <g>
      <path class="cls-6" d="M85.24,17.06h-7.06v6.32h-1.68V9.42h1.68v6.16h7.06v-6.16h1.68v13.96h-1.68v-6.32Z"/>
      <path class="cls-6" d="M89.72,18.22c0-3.28,1.84-5.4,4.64-5.4s4.46,2.12,4.46,5.04v.76h-7.42v.48c0,1.78,1.14,3.12,3.06,3.12,1.3,0,2.3-.64,2.84-1.78l1.14,.82c-.66,1.4-2.14,2.36-4.08,2.36-2.8,0-4.64-2.12-4.64-5.4Zm1.68-.94v.14h5.7v-.22c0-1.82-1.1-3.04-2.74-3.04-1.74,0-2.96,1.32-2.96,3.12Z"/>
      <path class="cls-6" d="M108.96,23.38c-1.18,0-1.66-.72-1.78-1.68h-.1c-.44,1.26-1.54,1.92-2.98,1.92-2.18,0-3.46-1.2-3.46-3.12s1.4-3.02,4.4-3.02h2.04v-1.02c0-1.46-.8-2.26-2.44-2.26-1.24,0-2.06,.6-2.62,1.54l-.96-.9c.56-1.1,1.8-2.02,3.66-2.02,2.48,0,3.96,1.3,3.96,3.48v5.68h1.18v1.4h-.9Zm-1.88-3v-1.7h-2.12c-1.82,0-2.64,.56-2.64,1.56v.42c0,1.02,.8,1.6,2.04,1.6,1.58,0,2.72-.82,2.72-1.88Z"/>
      <path class="cls-6" d="M114.42,23.38c-1.1,0-1.7-.7-1.7-1.7v-7.22h-1.7v-1.4h.96c.68,0,.9-.24,.9-.94v-1.92h1.44v2.86h2.26v1.4h-2.26v7.52h2.1v1.4h-2Z"/>
      <path class="cls-6" d="M118.34,18.22c0-3.28,1.84-5.4,4.64-5.4s4.46,2.12,4.46,5.04v.76h-7.42v.48c0,1.78,1.14,3.12,3.06,3.12,1.3,0,2.3-.64,2.84-1.78l1.14,.82c-.66,1.4-2.14,2.36-4.08,2.36-2.8,0-4.64-2.12-4.64-5.4Zm1.68-.94v.14h5.7v-.22c0-1.82-1.1-3.04-2.74-3.04-1.74,0-2.96,1.32-2.96,3.12Z"/>
      <path class="cls-6" d="M130.08,23.38V13.06h1.6v1.9h.1c.36-.98,1.3-1.9,2.98-1.9h.62v1.6h-.94c-1.72,0-2.76,.74-2.76,1.72v7h-1.6Z"/>
      <path class="cls-6" d="M136.44,21.6l1.14-.92c.8,1,1.76,1.58,3.06,1.58s2.16-.62,2.16-1.68c0-.8-.44-1.42-1.8-1.62l-.82-.12c-1.9-.28-3.32-1.06-3.32-2.98,0-2.04,1.58-3.04,3.68-3.04,1.66,0,2.76,.62,3.6,1.66l-1.06,.96c-.46-.64-1.34-1.26-2.66-1.26s-2.02,.62-2.02,1.6,.7,1.4,1.98,1.6l.8,.12c2.28,.34,3.16,1.34,3.16,2.9,0,2-1.46,3.22-3.82,3.22-1.9,0-3.16-.8-4.08-2.02Z"/>
      <path class="cls-6" d="M151.88,23.38V13.06h1.6v1.68h.08c.46-1.06,1.18-1.92,2.78-1.92,1.36,0,2.6,.62,3.16,2.1h.04c.38-1.12,1.38-2.1,3.14-2.1,2.1,0,3.36,1.44,3.36,3.94v6.62h-1.6v-6.34c0-1.82-.7-2.78-2.26-2.78-1.26,0-2.42,.64-2.42,1.96v7.16h-1.6v-6.34c0-1.84-.7-2.78-2.22-2.78-1.26,0-2.46,.64-2.46,1.96v7.16h-1.6Z"/>
      <path class="cls-6" d="M176.84,23.38c-1.18,0-1.66-.72-1.78-1.68h-.1c-.44,1.26-1.54,1.92-2.98,1.92-2.18,0-3.46-1.2-3.46-3.12s1.4-3.02,4.4-3.02h2.04v-1.02c0-1.46-.8-2.26-2.44-2.26-1.24,0-2.06,.6-2.62,1.54l-.96-.9c.56-1.1,1.8-2.02,3.66-2.02,2.48,0,3.96,1.3,3.96,3.48v5.68h1.18v1.4h-.9Zm-1.88-3v-1.7h-2.12c-1.82,0-2.64,.56-2.64,1.56v.42c0,1.02,.8,1.6,2.04,1.6,1.58,0,2.72-.82,2.72-1.88Z"/>
      <path class="cls-6" d="M180.02,23.38V13.06h1.6v1.9h.1c.36-.98,1.3-1.9,2.98-1.9h.62v1.6h-.94c-1.72,0-2.76,.74-2.76,1.72v7h-1.6Z"/>
      <path class="cls-6" d="M187.36,8.58h1.6v9.38h.08l1.58-1.76,2.92-3.14h1.94l-3.82,4.08,4.2,6.24h-1.94l-3.42-5.26-1.54,1.58v3.68h-1.6V8.58Z"/>
      <path class="cls-6" d="M196.8,18.22c0-3.28,1.84-5.4,4.64-5.4s4.46,2.12,4.46,5.04v.76h-7.42v.48c0,1.78,1.14,3.12,3.06,3.12,1.3,0,2.3-.64,2.84-1.78l1.14,.82c-.66,1.4-2.14,2.36-4.08,2.36-2.8,0-4.64-2.12-4.64-5.4Zm1.68-.94v.14h5.7v-.22c0-1.82-1.1-3.04-2.74-3.04-1.74,0-2.96,1.32-2.96,3.12Z"/>
      <path class="cls-6" d="M210.82,23.38c-1.1,0-1.7-.7-1.7-1.7v-7.22h-1.7v-1.4h.96c.68,0,.9-.24,.9-.94v-1.92h1.44v2.86h2.26v1.4h-2.26v7.52h2.1v1.4h-2Z"/>
      <path class="cls-6" d="M219.3,21.6l1.14-.92c.8,1,1.76,1.58,3.06,1.58s2.16-.62,2.16-1.68c0-.8-.44-1.42-1.8-1.62l-.82-.12c-1.9-.28-3.32-1.06-3.32-2.98,0-2.04,1.58-3.04,3.68-3.04,1.66,0,2.76,.62,3.6,1.66l-1.06,.96c-.46-.64-1.34-1.26-2.66-1.26s-2.02,.62-2.02,1.6,.7,1.4,1.98,1.6l.8,.12c2.28,.34,3.16,1.34,3.16,2.9,0,2-1.46,3.22-3.82,3.22-1.9,0-3.16-.8-4.08-2.02Z"/>
      <path class="cls-6" d="M230.02,8.58h1.6v6.16h.08c.5-1.16,1.38-1.92,2.92-1.92,2.12,0,3.46,1.44,3.46,3.94v6.62h-1.6v-6.34c0-1.84-.8-2.78-2.34-2.78-1.28,0-2.52,.64-2.52,1.96v7.16h-1.6V8.58Z"/>
      <path class="cls-6" d="M248.88,23.38c-1.18,0-1.66-.72-1.78-1.68h-.1c-.44,1.26-1.54,1.92-2.98,1.92-2.18,0-3.46-1.2-3.46-3.12s1.4-3.02,4.4-3.02h2.04v-1.02c0-1.46-.8-2.26-2.44-2.26-1.24,0-2.06,.6-2.62,1.54l-.96-.9c.56-1.1,1.8-2.02,3.66-2.02,2.48,0,3.96,1.3,3.96,3.48v5.68h1.18v1.4h-.9Zm-1.88-3v-1.7h-2.12c-1.82,0-2.64,.56-2.64,1.56v.42c0,1.02,.8,1.6,2.04,1.6,1.58,0,2.72-.82,2.72-1.88Z"/>
      <path class="cls-6" d="M252.06,23.38V13.06h1.6v1.9h.1c.36-.98,1.3-1.9,2.98-1.9h.62v1.6h-.94c-1.72,0-2.76,.74-2.76,1.72v7h-1.6Z"/>
      <path class="cls-6" d="M258.56,18.22c0-3.28,1.84-5.4,4.64-5.4s4.46,2.12,4.46,5.04v.76h-7.42v.48c0,1.78,1.14,3.12,3.06,3.12,1.3,0,2.3-.64,2.84-1.78l1.14,.82c-.66,1.4-2.14,2.36-4.08,2.36-2.8,0-4.64-2.12-4.64-5.4Zm1.68-.94v.14h5.7v-.22c0-1.82-1.1-3.04-2.74-3.04-1.74,0-2.96,1.32-2.96,3.12Z"/>
    </g>
    <g class="cls-10">
      <path class="cls-1" d="M307.66,282.82c-2.08,0-4.17-.64-5.58-1.91-2.34-2.12-7.12-2.12-9.46,0-2.81,2.55-8.34,2.55-11.15,0-2.34-2.12-7.12-2.12-9.46,0-2.81,2.55-8.34,2.55-11.15,0-2.34-2.12-7.12-2.12-9.46,0-2.82,2.55-8.34,2.55-11.15,0-2.35-2.12-7.12-2.12-9.46,0-2.81,2.55-8.34,2.55-11.15,0-2.34-2.12-7.11-2.12-9.46,0l-.85-.94c2.81-2.55,8.34-2.55,11.15,0,2.34,2.12,7.12,2.12,9.46,0,2.81-2.55,8.34-2.55,11.16,0,2.34,2.12,7.11,2.12,9.46,0,2.81-2.55,8.34-2.55,11.15,0,2.34,2.12,7.12,2.12,9.46,0,2.81-2.55,8.34-2.55,11.15,0,2.34,2.12,7.12,2.12,9.46,0,2.81-2.55,8.34-2.55,11.15,0,2.34,2.12,7.11,2.12,9.46,0l.85,.94c-1.41,1.27-3.49,1.91-5.58,1.91Z"/>
    </g>
    <g>
      <path class="cls-6" d="M561.78,16.48c0-4.66,2.1-7.3,5.62-7.3,2.32,0,3.92,1.12,4.8,3.06l-1.36,.82c-.56-1.44-1.72-2.38-3.44-2.38-2.4,0-3.82,1.9-3.82,4.76v2.08c0,2.86,1.42,4.6,3.82,4.6,1.78,0,3-1,3.56-2.52l1.34,.84c-.88,1.96-2.58,3.18-4.9,3.18-3.52,0-5.62-2.48-5.62-7.14Z"/>
      <path class="cls-6" d="M573.98,18.22c0-3.28,1.9-5.4,4.66-5.4s4.66,2.12,4.66,5.4-1.9,5.4-4.66,5.4-4.66-2.12-4.66-5.4Zm7.6,.74v-1.48c0-2.18-1.22-3.24-2.94-3.24s-2.94,1.06-2.94,3.24v1.48c0,2.18,1.22,3.24,2.94,3.24s2.94-1.06,2.94-3.24Z"/>
      <path class="cls-6" d="M585.94,23.38V13.06h1.6v1.68h.08c.5-1.16,1.38-1.92,2.92-1.92,2.12,0,3.46,1.44,3.46,3.94v6.62h-1.6v-6.34c0-1.84-.8-2.78-2.34-2.78-1.28,0-2.52,.64-2.52,1.96v7.16h-1.6Z"/>
      <path class="cls-6" d="M599.58,23.38c-1.1,0-1.7-.7-1.7-1.7v-7.22h-1.7v-1.4h.96c.68,0,.9-.24,.9-.94v-1.92h1.44v2.86h2.26v1.4h-2.26v7.52h2.1v1.4h-2Z"/>
      <path class="cls-6" d="M603.48,18.22c0-3.28,1.84-5.4,4.64-5.4s4.46,2.12,4.46,5.04v.76h-7.42v.48c0,1.78,1.14,3.12,3.06,3.12,1.3,0,2.3-.64,2.84-1.78l1.14,.82c-.66,1.4-2.14,2.36-4.08,2.36-2.8,0-4.64-2.12-4.64-5.4Zm1.68-.94v.14h5.7v-.22c0-1.82-1.1-3.04-2.74-3.04-1.74,0-2.96,1.32-2.96,3.12Z"/>
      <path class="cls-6" d="M617.54,18.18l-3.66-5.12h1.88l2.62,3.84h.06l2.72-3.84h1.78l-3.64,5,3.72,5.32h-1.88l-2.68-4.04h-.06l-2.9,4.04h-1.78l3.82-5.2Z"/>
      <path class="cls-6" d="M627.42,23.38c-1.1,0-1.7-.7-1.7-1.7v-7.22h-1.7v-1.4h.96c.68,0,.9-.24,.9-.94v-1.92h1.44v2.86h2.26v1.4h-2.26v7.52h2.1v1.4h-2Z"/>
      <path class="cls-6" d="M636.12,18.22c0-3.3,1.7-5.4,4.6-5.4,2.04,0,3.26,1,3.86,2.42l-1.34,.68c-.38-1.06-1.26-1.68-2.52-1.68-1.9,0-2.88,1.3-2.88,3.1v1.76c0,1.8,.98,3.1,2.88,3.1,1.3,0,2.24-.62,2.8-1.8l1.16,.78c-.66,1.48-2,2.44-3.96,2.44-2.9,0-4.6-2.1-4.6-5.4Z"/>
      <path class="cls-6" d="M646.94,8.58h1.6v6.16h.08c.5-1.16,1.38-1.92,2.92-1.92,2.12,0,3.46,1.44,3.46,3.94v6.62h-1.6v-6.34c0-1.84-.8-2.78-2.34-2.78-1.28,0-2.52,.64-2.52,1.96v7.16h-1.6V8.58Z"/>
      <path class="cls-6" d="M657.54,18.22c0-3.28,1.9-5.4,4.66-5.4s4.66,2.12,4.66,5.4-1.9,5.4-4.66,5.4-4.66-2.12-4.66-5.4Zm7.6,.74v-1.48c0-2.18-1.22-3.24-2.94-3.24s-2.94,1.06-2.94,3.24v1.48c0,2.18,1.22,3.24,2.94,3.24s2.94-1.06,2.94-3.24Z"/>
      <path class="cls-6" d="M669.32,9.74v-.26c0-.54,.3-.9,.98-.9s.98,.36,.98,.9v.26c0,.54-.3,.9-.98,.9s-.98-.36-.98-.9Zm.18,3.32h1.6v10.32h-1.6V13.06Z"/>
      <path class="cls-6" d="M673.74,18.22c0-3.3,1.7-5.4,4.6-5.4,2.04,0,3.26,1,3.86,2.42l-1.34,.68c-.38-1.06-1.26-1.68-2.52-1.68-1.9,0-2.88,1.3-2.88,3.1v1.76c0,1.8,.98,3.1,2.88,3.1,1.3,0,2.24-.62,2.8-1.8l1.16,.78c-.66,1.48-2,2.44-3.96,2.44-2.9,0-4.6-2.1-4.6-5.4Z"/>
      <path class="cls-6" d="M683.68,18.22c0-3.28,1.84-5.4,4.64-5.4s4.46,2.12,4.46,5.04v.76h-7.42v.48c0,1.78,1.14,3.12,3.06,3.12,1.3,0,2.3-.64,2.84-1.78l1.14,.82c-.66,1.4-2.14,2.36-4.08,2.36-2.8,0-4.64-2.12-4.64-5.4Zm1.68-.94v.14h5.7v-.22c0-1.82-1.1-3.04-2.74-3.04-1.74,0-2.96,1.32-2.96,3.12Z"/>
    </g>
    <g>
      <path class="cls-12" d="M495.92,142.19h3.73c1.5,0,2.42,.92,2.42,2.34s-.87,1.83-1.47,1.92v.08c.65,.04,1.78,.6,1.78,2.11s-1,2.63-2.34,2.63h-4.12v-9.07Zm1.09,3.93h2.51c.86,0,1.38-.46,1.38-1.26v-.44c0-.81-.52-1.26-1.38-1.26h-2.51v2.96Zm0,4.19h2.69c.94,0,1.51-.49,1.51-1.4v-.44c0-.91-.57-1.4-1.51-1.4h-2.69v3.25Z"/>
      <path class="cls-12" d="M509.97,151.27l-.91-2.68h-3.67l-.91,2.68h-1.11l3.17-9.07h1.39l3.17,9.07h-1.14Zm-2.72-8.06h-.06l-1.53,4.42h3.13l-1.53-4.42Z"/>
      <path class="cls-12" d="M514.85,143.16v8.11h-1.09v-8.11h-2.89v-.96h6.86v.96h-2.89Z"/>
      <path class="cls-12" d="M524.91,147.16h-4.59v4.11h-1.09v-9.07h1.09v4h4.59v-4h1.09v9.07h-1.09v-4.11Z"/>
      <path class="cls-12" d="M529.51,151.27h-1.09v-9.07h3.61c1.59,0,2.54,.92,2.54,2.57,0,1.33-.64,2.22-1.82,2.5l2.08,4h-1.24l-1.96-3.9h-2.12v3.9Zm2.52-4.84c.86,0,1.37-.47,1.37-1.3v-.68c0-.83-.51-1.3-1.37-1.3h-2.52v3.28h2.52Z"/>
      <path class="cls-12" d="M536.17,146.73c0-3.04,1.51-4.69,3.85-4.69s3.85,1.65,3.85,4.69-1.51,4.69-3.85,4.69-3.85-1.65-3.85-4.69Zm6.53,.75v-1.51c0-1.79-1.11-2.96-2.68-2.96s-2.68,1.17-2.68,2.96v1.51c0,1.79,1.11,2.96,2.68,2.96s2.68-1.17,2.68-2.96Z"/>
      <path class="cls-12" d="M545.37,146.73c0-3.04,1.51-4.69,3.85-4.69s3.85,1.65,3.85,4.69-1.51,4.69-3.85,4.69-3.85-1.65-3.85-4.69Zm6.53,.75v-1.51c0-1.79-1.11-2.96-2.68-2.96s-2.68,1.17-2.68,2.96v1.51c0,1.79,1.11,2.96,2.68,2.96s2.68-1.17,2.68-2.96Z"/>
      <path class="cls-12" d="M555.03,142.19h1.46l2.6,4.89h.06l2.61-4.89h1.4v9.07h-1.07v-7.64h-.06l-.77,1.52-2.17,3.95-2.17-3.95-.77-1.52h-.06v7.64h-1.07v-9.07Z"/>
    </g>
    <g>
      <path class="cls-12" d="M690.87,142.19h3.73c1.5,0,2.42,.92,2.42,2.34s-.87,1.83-1.47,1.92v.08c.65,.04,1.78,.6,1.78,2.11s-1,2.63-2.34,2.63h-4.12v-9.07Zm1.09,3.93h2.51c.86,0,1.38-.46,1.38-1.26v-.44c0-.81-.52-1.26-1.38-1.26h-2.51v2.96Zm0,4.19h2.69c.94,0,1.51-.49,1.51-1.4v-.44c0-.91-.57-1.4-1.51-1.4h-2.69v3.25Z"/>
      <path class="cls-12" d="M699.36,151.27v-9.07h5.54v.96h-4.45v3.04h4.19v.96h-4.19v3.15h4.45v.96h-5.54Z"/>
      <path class="cls-12" d="M706.94,142.19h3.04c2.26,0,3.72,1.51,3.72,4.54s-1.46,4.54-3.72,4.54h-3.04v-9.07Zm3.04,8.11c1.5,0,2.55-1.04,2.55-2.83v-1.48c0-1.79-1.05-2.83-2.55-2.83h-1.95v7.15h1.95Z"/>
      <path class="cls-12" d="M716.75,151.27h-1.09v-9.07h3.61c1.59,0,2.54,.92,2.54,2.57,0,1.33-.64,2.22-1.82,2.5l2.08,4h-1.24l-1.96-3.9h-2.12v3.9Zm2.52-4.84c.86,0,1.37-.47,1.37-1.3v-.68c0-.83-.51-1.3-1.37-1.3h-2.52v3.28h2.52Z"/>
      <path class="cls-12" d="M723.41,146.73c0-3.04,1.51-4.69,3.85-4.69s3.85,1.65,3.85,4.69-1.51,4.69-3.85,4.69-3.85-1.65-3.85-4.69Zm6.53,.75v-1.51c0-1.79-1.11-2.96-2.68-2.96s-2.68,1.17-2.68,2.96v1.51c0,1.79,1.11,2.96,2.68,2.96s2.68-1.17,2.68-2.96Z"/>
      <path class="cls-12" d="M732.61,146.73c0-3.04,1.51-4.69,3.85-4.69s3.85,1.65,3.85,4.69-1.51,4.69-3.85,4.69-3.85-1.65-3.85-4.69Zm6.53,.75v-1.51c0-1.79-1.11-2.96-2.68-2.96s-2.68,1.17-2.68,2.96v1.51c0,1.79,1.11,2.96,2.68,2.96s2.68-1.17,2.68-2.96Z"/>
      <path class="cls-12" d="M742.27,142.19h1.46l2.6,4.89h.06l2.61-4.89h1.4v9.07h-1.07v-7.64h-.06l-.77,1.52-2.17,3.95-2.17-3.95-.77-1.52h-.06v7.64h-1.07v-9.07Z"/>
    </g>
    <g class="cls-5">
      <path class="cls-11" d="M552.62,119.78c-.49,1.67-1.45,3.14-2.76,4.17-1.3,1.04-2.88,1.59-4.49,1.59h-29.46c-1.61,0-3.19-.55-4.49-1.59-1.3-1.04-2.27-2.5-2.76-4.17l-4.3-14.52h52.53l-4.27,14.52Zm-24.29-50.44c1.46,0,2.87,.6,3.94,1.68s1.73,2.56,1.85,4.14h-11.6c.12-1.59,.78-3.07,1.86-4.14,1.07-1.08,2.48-1.68,3.94-1.68Zm32.43,32.82c-.34-.49-.87-.78-1.43-.78h-48.24v-34.18c0-1.76,.64-3.44,1.78-4.68,1.14-1.24,2.69-1.94,4.3-1.94h3.28c1.36,.01,2.68,.51,3.75,1.44,1.07,.92,1.82,2.2,2.14,3.64-2.1,.5-3.98,1.76-5.33,3.58-1.35,1.82-2.09,4.09-2.09,6.43v1.44c0,.52,.19,1.01,.53,1.38s.79,.57,1.27,.57h15.22c.48,0,.93-.21,1.27-.57s.53-.86,.53-1.38v-1.44c0-2.4-.78-4.72-2.19-6.56-1.41-1.84-3.38-3.08-5.55-3.51-.35-2.48-1.51-4.74-3.26-6.38-1.75-1.64-3.98-2.54-6.28-2.54h-3.29c-2.56,0-5.02,1.11-6.83,3.08-1.81,1.97-2.83,4.65-2.83,7.44v34.17h-5.55c-.57,0-1.11,.3-1.45,.8-.34,.5-.43,1.15-.26,1.74l5.02,17.06c.65,2.22,1.88,4.2,3.53,5.68l-2.15,3.48c-.55,.9-.33,2.11,.49,2.71,.82,.6,1.94,.36,2.49-.53l2.29-3.69c1.29,.53,2.65,.79,4.03,.78h29.43c1.39,0,2.77-.28,4.07-.84l2.24,3.69c.25,.46,.66,.78,1.14,.9,.48,.12,.98,.02,1.39-.27,.41-.29,.69-.76,.78-1.28,.09-.52-.03-1.06-.31-1.49l-2.15-3.52c1.64-1.49,2.85-3.45,3.5-5.66l5.02-17.06h0c.16-.59,.06-1.22-.27-1.71h0Z"/>
      <path class="cls-11" d="M533.74,90.21c0,1.1-.82,2-1.84,2s-1.84-.89-1.84-2,.82-2,1.84-2,1.84,.89,1.84,2"/>
      <path class="cls-11" d="M526.58,90.21c0,1.1-.82,2-1.84,2s-1.84-.89-1.84-2,.82-2,1.84-2,1.84,.89,1.84,2"/>
      <path class="cls-11" d="M537.33,96.11c0,1.1-.82,2-1.84,2s-1.84-.89-1.84-2,.82-2,1.84-2,1.84,.89,1.84,2"/>
      <path class="cls-11" d="M530.16,96.11c0,1.1-.82,2-1.84,2s-1.84-.89-1.84-2,.82-2,1.84-2,1.84,.89,1.84,2"/>
      <path class="cls-11" d="M522.99,96.11c0,1.1-.82,2-1.84,2s-1.84-.89-1.84-2,.82-2,1.84-2,1.84,.89,1.84,2"/>
      <path class="cls-11" d="M530.16,84.29c0,1.1-.82,2-1.84,2s-1.84-.89-1.84-2,.82-2,1.84-2,1.84,.89,1.84,2"/>
      <path class="cls-11" d="M731.82,122.1h3.37v3.28h-3.37v-3.28Zm-58.93,0h3.35v3.28h-3.35v-3.28Zm79.11-18.02h0c-.93,.02-1.66,.76-1.65,1.65v4.92c-.01,.44,.16,.87,.48,1.18,.32,.32,.75,.49,1.2,.49s.89-.18,1.2-.49c.32-.31,.49-.74,.48-1.18v-4.92c0-.44-.17-.87-.5-1.18-.32-.31-.76-.48-1.22-.48h0Zm-5.02-11.42h18.52v32.71h-18.52v-32.71Zm-67.37-1.64h48.84c4.58,0,8.42,4.25,8.42,8.19v19.62h-65.67v-19.62c0-4.56,3.72-8.19,8.41-8.19h0Zm75.56-9.82h.45l1.2,8.19h-2.85l1.19-8.19Zm-43.56,0h6.74c.96,0,1.69,.71,1.69,1.64v4.9h-10.11v-4.91c0-.93,.72-1.64,1.68-1.64h0Zm-21.89,0h6.74c.96,0,1.69,.71,1.69,1.64v4.9h-10.11v-4.91c0-.93,.72-1.64,1.68-1.64h0Zm61.84-9.8h7.67l2.25,6.55h-12.17l2.25-6.55Zm-65.15-3.25h35.35c4.69,0,8.45,3.62,8.43,8.17l-.05,11.42h-6.74v-4.9c0-2.69-2.29-4.9-5.06-4.9h-6.73c-2.77,0-5.05,2.21-5.05,4.9v4.9h-5.06v-4.9c0-2.69-2.28-4.9-5.05-4.9h-6.74c-2.77,0-5.05,2.21-5.05,4.9v4.9h-6.73l.04-11.41c.02-4.57,3.74-8.19,8.43-8.19h0Zm63.76-.02c-.66,.06-1.22,.5-1.43,1.11l-3.35,9.82h0c-.17,.5-.09,1.04,.23,1.47,.32,.42,.82,.68,1.36,.68h4.8l-1.21,8.19h-5.26c-.06,0-.12,0-.17,0-.86,.08-1.52,.79-1.52,1.63v36c0,.43,.18,.85,.5,1.16,.32,.31,.75,.48,1.2,.47h21.89c.93,0,1.67-.73,1.68-1.63v-36c0-.9-.75-1.63-1.68-1.63h-6.97l-1.2-8.19h4.8c.54,0,1.05-.26,1.36-.68,.32-.43,.4-.97,.23-1.47l-3.37-9.82c-.23-.66-.87-1.11-1.59-1.11h-10.11c-.06,0-.12,0-.17,0h0Zm-63.76-3.25c-6.5,0-11.77,5.14-11.8,11.45l-.05,12.54c-3.98,1.84-6.74,5.78-6.74,10.34v21.26h0c0,.43,.18,.85,.5,1.15,.32,.31,.75,.48,1.2,.47v3.27c0,1.78,1.53,3.27,3.37,3.27h3.36c1.84,0,3.37-1.49,3.37-3.27v-3.27s48.84,0,48.84,0v3.27c0,1.78,1.54,3.27,3.37,3.27h3.37c1.84,0,3.37-1.49,3.37-3.27v-3.27c.93,0,1.68-.73,1.68-1.63v-21.26c0-4.26-2.72-8.35-6.73-10.29l.06-12.58c.03-6.32-5.3-11.46-11.8-11.46h-35.35Z"/>
      <path class="cls-8" d="M596.18,314.67c-.89,0-1.78-.4-2.37-1.16-1.02-1.31-.78-3.19,.53-4.21,7.69-5.97,18.67-9.4,30.14-9.4,9.43,0,15.7,.33,23.25,4.92,1.42,.86,1.86,2.71,1,4.12-.86,1.42-2.71,1.86-4.12,1-6.03-3.67-10.76-4.05-20.13-4.05-10.16,0-19.8,2.97-26.46,8.14-.55,.42-1.2,.63-1.84,.63Z"/>
      <path class="cls-8" d="M633.62,312.97c-1.39,0-2.64-.98-2.94-2.4-.33-1.62,.71-3.21,2.33-3.54l9.39-1.93-2.61-9.22c-.45-1.59,.48-3.25,2.07-3.7,1.59-.45,3.25,.48,3.7,2.07l4.36,15.43-15.71,3.23c-.2,.04-.41,.06-.61,.06Z"/>
    </g>
    <path class="cls-13" d="M784.61,165.91h-128.63c-1.38,0-2.5-1.12-2.5-2.5V51.26c0-1.38,1.12-2.5,2.5-2.5h128.63c1.38,0,2.5,1.12,2.5,2.5v112.15c0,1.38-1.12,2.5-2.5,2.5Zm-126.13-5h123.63V53.76h-123.63v107.15Z"/>
    <g>
      <path class="cls-12" d="M10.19,314.92v-8.37h4.89v.64h-4.17v3.17h3.97v.64h-3.97v3.3h4.17v.64h-4.89Z"/>
      <path class="cls-12" d="M21.22,314.92c-.53,0-.74-.3-.78-.76v-.22h-.06c-.28,.68-.9,1.12-1.86,1.12-1.28,0-2.03-.67-2.03-1.81s.72-1.78,2.49-1.78h1.42v-.72c0-1.01-.53-1.52-1.57-1.52-.82,0-1.34,.36-1.68,1l-.43-.36c.34-.71,1.02-1.24,2.14-1.24,1.43,0,2.23,.75,2.23,2.05v3.63h.83v.6h-.7Zm-.82-1.79v-1.14h-1.44c-1.22,0-1.75,.42-1.75,1.1v.29c0,.71,.56,1.09,1.4,1.09,1,0,1.79-.52,1.79-1.34Z"/>
      <path class="cls-12" d="M22.84,311.85c0-2.03,.97-3.21,2.65-3.21,1.13,0,1.82,.55,2.18,1.35l-.58,.29c-.29-.66-.8-1.03-1.61-1.03-1.25,0-1.92,.88-1.92,2.17v.86c0,1.29,.67,2.17,1.92,2.17,.84,0,1.42-.38,1.76-1.07l.5,.34c-.4,.82-1.14,1.34-2.27,1.34-1.68,0-2.65-1.19-2.65-3.21Z"/>
      <path class="cls-12" d="M29.28,306.04h.68v3.71h.04c.28-.64,.83-1.12,1.81-1.12,1.31,0,2.07,.84,2.07,2.34v3.95h-.68v-3.83c0-1.25-.55-1.85-1.57-1.85-.86,0-1.67,.44-1.67,1.36v4.32h-.68v-8.88Z"/>
      <path class="cls-12" d="M39.92,314.92c-.49,0-.76-.3-.76-.76v-4.79h-1.07v-.6h.7c.34,0,.43-.12,.43-.47v-1.25h.62v1.71h1.39v.6h-1.39v4.94h1.3v.6h-1.22Z"/>
      <path class="cls-12" d="M46.59,308.78h.7l-2.84,7.87c-.19,.52-.4,.67-1.02,.67h-.7v-.6h1.03l.59-1.62-2.28-6.32h.72l1.88,5.41h.05l1.87-5.41Z"/>
      <path class="cls-12" d="M48.67,308.78h.68v.98h.04c.3-.68,.94-1.13,1.87-1.13,1.57,0,2.53,1.19,2.53,3.21s-.96,3.21-2.53,3.21c-.94,0-1.54-.44-1.87-1.13h-.04v3.38h-.68v-8.54Zm4.39,3.5v-.86c0-1.32-.73-2.17-1.95-2.17-.95,0-1.75,.56-1.75,1.37v2.43c0,.86,.8,1.4,1.75,1.4,1.22,0,1.95-.85,1.95-2.17Z"/>
      <path class="cls-12" d="M55.07,311.85c0-2.01,1.04-3.21,2.67-3.21s2.59,1.22,2.59,3.02v.32h-4.55v.3c0,1.28,.74,2.18,2,2.18,.88,0,1.52-.43,1.86-1.24l.5,.34c-.38,.9-1.24,1.5-2.4,1.5-1.64,0-2.69-1.2-2.69-3.21Zm.72-.46v.06h3.8v-.1c0-1.29-.74-2.15-1.85-2.15-1.19,0-1.96,.89-1.96,2.18Z"/>
      <path class="cls-12" d="M64.41,311.85c0-2.01,1.06-3.21,2.67-3.21s2.67,1.2,2.67,3.21-1.06,3.21-2.67,3.21-2.67-1.2-2.67-3.21Zm4.62,.38v-.77c0-1.43-.76-2.22-1.94-2.22s-1.94,.78-1.94,2.22v.77c0,1.43,.76,2.22,1.94,2.22s1.94-.78,1.94-2.22Z"/>
      <path class="cls-12" d="M71.76,309.38h-1.06v-.6h1.06v-1.71c0-.62,.31-1.02,.96-1.02h1.08v.6h-1.35v2.13h1.35v.6h-1.35v5.54h-.68v-5.54Z"/>
      <path class="cls-12" d="M75.47,309.38h-1.06v-.6h1.06v-1.71c0-.62,.31-1.02,.96-1.02h1.08v.6h-1.35v2.13h1.35v.6h-1.35v5.54h-.68v-5.54Z"/>
      <path class="cls-12" d="M78.36,311.85c0-2.01,1.04-3.21,2.67-3.21s2.59,1.22,2.59,3.02v.32h-4.55v.3c0,1.28,.74,2.18,2,2.18,.88,0,1.52-.43,1.86-1.24l.5,.34c-.38,.9-1.24,1.5-2.4,1.5-1.64,0-2.69-1.2-2.69-3.21Zm.72-.46v.06h3.8v-.1c0-1.29-.74-2.15-1.85-2.15-1.19,0-1.96,.89-1.96,2.18Z"/>
      <path class="cls-12" d="M85.37,314.92v-6.14h.68v1.1h.05c.24-.58,.78-1.1,1.83-1.1h.41v.67h-.54c-1.02,0-1.75,.48-1.75,1.27v4.2h-.68Z"/>
      <path class="cls-12" d="M89.03,313.89l.5-.4c.5,.66,1.09,.98,1.91,.98,.94,0,1.48-.42,1.48-1.16,0-.65-.37-1.02-1.26-1.15l-.5-.08c-1.12-.17-1.88-.61-1.88-1.71s.9-1.73,2.09-1.73c1.02,0,1.64,.4,2.1,.95l-.46,.42c-.32-.38-.83-.78-1.68-.78s-1.39,.41-1.39,1.1,.44,.98,1.32,1.13l.49,.07c1.25,.19,1.83,.73,1.83,1.72,0,1.14-.83,1.82-2.18,1.82-1.07,0-1.81-.42-2.36-1.17Z"/>
      <path class="cls-12" d="M102.43,314.92c-.53,0-.74-.3-.78-.76v-.22h-.06c-.28,.68-.9,1.12-1.86,1.12-1.28,0-2.03-.67-2.03-1.81s.72-1.78,2.49-1.78h1.42v-.72c0-1.01-.53-1.52-1.57-1.52-.82,0-1.34,.36-1.68,1l-.43-.36c.34-.71,1.02-1.24,2.13-1.24,1.43,0,2.23,.75,2.23,2.05v3.63h.83v.6h-.7Zm-.82-1.79v-1.14h-1.44c-1.22,0-1.75,.42-1.75,1.1v.29c0,.71,.56,1.09,1.4,1.09,1,0,1.79-.52,1.79-1.34Z"/>
      <path class="cls-12" d="M111.33,313.94h-.04c-.32,.68-.94,1.13-1.87,1.13-1.57,0-2.53-1.19-2.53-3.21s.96-3.21,2.53-3.21c.94,0,1.57,.44,1.87,1.13h.04v-3.72h.68v8.88h-.68v-.98Zm0-.89v-2.43c0-.8-.8-1.37-1.75-1.37-1.22,0-1.95,.85-1.95,2.17v.86c0,1.32,.73,2.17,1.95,2.17,.95,0,1.75-.54,1.75-1.4Z"/>
      <path class="cls-12" d="M114.12,306.68v-.12c0-.25,.14-.43,.47-.43s.47,.18,.47,.43v.12c0,.25-.14,.43-.47,.43s-.47-.18-.47-.43Zm.13,2.1h.68v6.14h-.68v-6.14Z"/>
      <path class="cls-12" d="M117.45,309.38h-1.06v-.6h1.06v-1.71c0-.62,.31-1.02,.96-1.02h1.08v.6h-1.35v2.13h1.35v.6h-1.35v5.54h-.68v-5.54Z"/>
      <path class="cls-12" d="M121.16,309.38h-1.06v-.6h1.06v-1.71c0-.62,.31-1.02,.96-1.02h1.08v.6h-1.35v2.13h1.35v.6h-1.35v5.54h-.68v-5.54Z"/>
      <path class="cls-12" d="M124.04,311.85c0-2.01,1.04-3.21,2.67-3.21s2.59,1.22,2.59,3.02v.32h-4.55v.3c0,1.28,.74,2.18,2,2.18,.88,0,1.52-.43,1.86-1.24l.5,.34c-.38,.9-1.24,1.5-2.4,1.5-1.64,0-2.69-1.2-2.69-3.21Zm.72-.46v.06h3.8v-.1c0-1.29-.74-2.15-1.85-2.15-1.19,0-1.96,.89-1.96,2.18Z"/>
      <path class="cls-12" d="M131.05,314.92v-6.14h.68v1.1h.05c.24-.58,.78-1.1,1.83-1.1h.41v.67h-.54c-1.02,0-1.75,.48-1.75,1.27v4.2h-.68Z"/>
      <path class="cls-12" d="M134.8,311.85c0-2.01,1.04-3.21,2.67-3.21s2.59,1.22,2.59,3.02v.32h-4.55v.3c0,1.28,.74,2.18,2,2.18,.88,0,1.52-.43,1.86-1.24l.5,.34c-.38,.9-1.24,1.5-2.4,1.5-1.64,0-2.69-1.2-2.69-3.21Zm.72-.46v.06h3.8v-.1c0-1.29-.74-2.15-1.85-2.15-1.19,0-1.96,.89-1.96,2.18Z"/>
      <path class="cls-12" d="M141.81,314.92v-6.14h.68v.97h.04c.28-.64,.83-1.12,1.81-1.12,1.31,0,2.07,.84,2.07,2.34v3.95h-.68v-3.83c0-1.25-.55-1.85-1.57-1.85-.86,0-1.67,.44-1.67,1.36v4.32h-.68Z"/>
      <path class="cls-12" d="M149.62,314.92c-.49,0-.76-.3-.76-.76v-4.79h-1.07v-.6h.7c.34,0,.43-.12,.43-.47v-1.25h.62v1.71h1.39v.6h-1.39v4.94h1.3v.6h-1.22Z"/>
      <path class="cls-12" d="M155.42,314.92v-6.14h.68v.97h.04c.25-.6,.73-1.12,1.74-1.12,.88,0,1.59,.41,1.9,1.29h.04c.23-.72,.84-1.29,1.93-1.29,1.31,0,2.04,.84,2.04,2.34v3.95h-.68v-3.83c0-1.24-.52-1.85-1.55-1.85-.85,0-1.61,.46-1.61,1.37v4.31h-.68v-3.83c0-1.25-.53-1.85-1.54-1.85-.84,0-1.62,.44-1.62,1.36v4.32h-.68Z"/>
      <path class="cls-12" d="M165.44,311.85c0-2.01,1.04-3.21,2.67-3.21s2.59,1.22,2.59,3.02v.32h-4.55v.3c0,1.28,.74,2.18,2,2.18,.88,0,1.52-.43,1.86-1.24l.5,.34c-.38,.9-1.24,1.5-2.4,1.5-1.64,0-2.69-1.2-2.69-3.21Zm.72-.46v.06h3.8v-.1c0-1.29-.74-2.15-1.85-2.15-1.19,0-1.96,.89-1.96,2.18Z"/>
      <path class="cls-12" d="M173.5,314.92c-.49,0-.76-.3-.76-.76v-4.79h-1.07v-.6h.7c.34,0,.43-.12,.43-.47v-1.25h.62v1.71h1.39v.6h-1.39v4.94h1.3v.6h-1.22Z"/>
      <path class="cls-12" d="M176.47,306.04h.68v3.71h.04c.28-.64,.83-1.12,1.81-1.12,1.31,0,2.07,.84,2.07,2.34v3.95h-.68v-3.83c0-1.25-.55-1.85-1.57-1.85-.86,0-1.67,.44-1.67,1.36v4.32h-.68v-8.88Z"/>
      <path class="cls-12" d="M182.73,311.85c0-2.01,1.06-3.21,2.67-3.21s2.67,1.2,2.67,3.21-1.06,3.21-2.67,3.21-2.67-1.2-2.67-3.21Zm4.62,.38v-.77c0-1.43-.76-2.22-1.94-2.22s-1.94,.78-1.94,2.22v.77c0,1.43,.76,2.22,1.94,2.22s1.94-.78,1.94-2.22Z"/>
      <path class="cls-12" d="M193.79,313.94h-.04c-.32,.68-.94,1.13-1.87,1.13-1.57,0-2.53-1.19-2.53-3.21s.96-3.21,2.53-3.21c.94,0,1.57,.44,1.87,1.13h.04v-3.72h.68v8.88h-.68v-.98Zm0-.89v-2.43c0-.8-.8-1.37-1.75-1.37-1.22,0-1.95,.85-1.95,2.17v.86c0,1.32,.73,2.17,1.95,2.17,.95,0,1.75-.54,1.75-1.4Z"/>
      <path class="cls-12" d="M199.05,311.85c0-2.01,1.06-3.21,2.67-3.21s2.67,1.2,2.67,3.21-1.05,3.21-2.67,3.21-2.67-1.2-2.67-3.21Zm4.62,.38v-.77c0-1.43-.76-2.22-1.94-2.22s-1.94,.78-1.94,2.22v.77c0,1.43,.76,2.22,1.94,2.22s1.94-.78,1.94-2.22Z"/>
      <path class="cls-12" d="M206.38,309.38h-1.06v-.6h1.06v-1.71c0-.62,.31-1.02,.96-1.02h1.08v.6h-1.36v2.13h1.36v.6h-1.36v5.54h-.68v-5.54Z"/>
      <path class="cls-12" d="M212.64,306.04h.68v3.71h.04c.28-.64,.83-1.12,1.81-1.12,1.31,0,2.08,.84,2.08,2.34v3.95h-.68v-3.83c0-1.25-.55-1.85-1.57-1.85-.86,0-1.67,.44-1.67,1.36v4.32h-.68v-8.88Z"/>
      <path class="cls-12" d="M218.9,311.85c0-2.01,1.04-3.21,2.67-3.21s2.59,1.22,2.59,3.02v.32h-4.55v.3c0,1.28,.74,2.18,2,2.18,.88,0,1.52-.43,1.86-1.24l.5,.34c-.38,.9-1.24,1.5-2.4,1.5-1.64,0-2.69-1.2-2.69-3.21Zm.72-.46v.06h3.8v-.1c0-1.29-.74-2.15-1.85-2.15-1.19,0-1.96,.89-1.96,2.18Z"/>
      <path class="cls-12" d="M230.13,314.92c-.53,0-.74-.3-.78-.76v-.22h-.06c-.28,.68-.9,1.12-1.86,1.12-1.28,0-2.03-.67-2.03-1.81s.72-1.78,2.49-1.78h1.42v-.72c0-1.01-.53-1.52-1.57-1.52-.82,0-1.34,.36-1.68,1l-.43-.36c.34-.71,1.02-1.24,2.13-1.24,1.43,0,2.23,.75,2.23,2.05v3.63h.83v.6h-.7Zm-.82-1.79v-1.14h-1.44c-1.22,0-1.75,.42-1.75,1.1v.29c0,.71,.56,1.09,1.4,1.09,1,0,1.79-.52,1.79-1.34Z"/>
      <path class="cls-12" d="M233.31,314.92c-.49,0-.76-.3-.76-.76v-4.79h-1.07v-.6h.7c.34,0,.43-.12,.43-.47v-1.25h.62v1.71h1.39v.6h-1.39v4.94h1.29v.6h-1.22Z"/>
      <path class="cls-12" d="M236.14,306.68v-.12c0-.25,.14-.43,.47-.43s.47,.18,.47,.43v.12c0,.25-.14,.43-.47,.43s-.47-.18-.47-.43Zm.13,2.1h.68v6.14h-.68v-6.14Z"/>
      <path class="cls-12" d="M239.19,314.92v-6.14h.68v.97h.04c.28-.64,.83-1.12,1.81-1.12,1.31,0,2.08,.84,2.08,2.34v3.95h-.68v-3.83c0-1.25-.55-1.85-1.57-1.85-.86,0-1.67,.44-1.67,1.36v4.32h-.68Z"/>
      <path class="cls-12" d="M248.03,317.46c-1.87,0-2.65-.58-2.65-1.54,0-.7,.4-1.1,1.05-1.3v-.1c-.38-.16-.58-.43-.58-.84,0-.6,.46-.9,1.04-1.05v-.05c-.71-.32-1.14-.98-1.14-1.87,0-1.24,.88-2.09,2.23-2.09,.48,0,.9,.11,1.24,.3v-.3c0-.37,.17-.62,.56-.62h1.06v.6h-1.25v.59c.41,.37,.65,.9,.65,1.52,0,1.25-.89,2.1-2.24,2.1-.22,0-.43-.04-.64-.07-.53,.14-.91,.38-.91,.79,0,.36,.31,.55,.98,.55h1.43c1.47,0,2.11,.59,2.11,1.55,0,1.25-1.03,1.82-2.95,1.82Zm.84-2.73h-1.99c-.53,.18-.85,.53-.85,1.05,0,.64,.53,1.12,1.59,1.12h.77c1.19,0,1.93-.38,1.93-1.21,0-.59-.36-.96-1.45-.96Zm.65-3.81v-.38c0-.84-.58-1.34-1.51-1.34s-1.51,.5-1.51,1.34v.38c0,.86,.58,1.36,1.51,1.36s1.51-.49,1.51-1.36Z"/>
      <path class="cls-12" d="M253.49,314.37v.16c0,.66-.41,1.51-1.03,2.05h-.58c.53-.54,.79-1.04,.89-1.57-.31-.04-.43-.24-.43-.49v-.14c0-.32,.18-.55,.58-.55s.58,.23,.58,.55Z"/>
      <path class="cls-12" d="M257.71,308.78h.67l1.48,5.53h.02l1.63-5.53h.64l1.64,5.53h.02l1.46-5.53h.66l-1.73,6.14h-.84l-1.55-5.17h-.02l-1.54,5.17h-.83l-1.73-6.14Z"/>
      <path class="cls-12" d="M267.45,306.04h.68v3.71h.04c.28-.64,.83-1.12,1.81-1.12,1.31,0,2.08,.84,2.08,2.34v3.95h-.68v-3.83c0-1.25-.55-1.85-1.57-1.85-.86,0-1.67,.44-1.67,1.36v4.32h-.68v-8.88Z"/>
      <path class="cls-12" d="M273.71,311.85c0-2.01,1.04-3.21,2.67-3.21s2.59,1.22,2.59,3.02v.32h-4.55v.3c0,1.28,.74,2.18,2,2.18,.88,0,1.52-.43,1.86-1.24l.5,.34c-.38,.9-1.24,1.5-2.4,1.5-1.64,0-2.69-1.2-2.69-3.21Zm.72-.46v.06h3.8v-.1c0-1.29-.74-2.15-1.85-2.15-1.19,0-1.96,.89-1.96,2.18Z"/>
      <path class="cls-12" d="M280.72,314.92v-6.14h.68v1.1h.05c.24-.58,.78-1.1,1.83-1.1h.41v.67h-.54c-1.02,0-1.75,.48-1.75,1.27v4.2h-.68Z"/>
      <path class="cls-12" d="M284.48,311.85c0-2.01,1.04-3.21,2.67-3.21s2.59,1.22,2.59,3.02v.32h-4.54v.3c0,1.28,.74,2.18,2,2.18,.88,0,1.52-.43,1.86-1.24l.5,.34c-.38,.9-1.24,1.5-2.4,1.5-1.64,0-2.69-1.2-2.69-3.21Zm.72-.46v.06h3.8v-.1c0-1.29-.74-2.15-1.85-2.15-1.19,0-1.96,.89-1.96,2.18Z"/>
      <path class="cls-12" d="M295.37,314.92c-.49,0-.76-.3-.76-.76v-4.79h-1.07v-.6h.7c.34,0,.43-.12,.43-.47v-1.25h.62v1.71h1.39v.6h-1.39v4.94h1.3v.6h-1.22Z"/>
      <path class="cls-12" d="M298.34,306.04h.68v3.71h.04c.28-.64,.83-1.12,1.81-1.12,1.31,0,2.08,.84,2.08,2.34v3.95h-.68v-3.83c0-1.25-.55-1.85-1.57-1.85-.86,0-1.67,.44-1.67,1.36v4.32h-.68v-8.88Z"/>
      <path class="cls-12" d="M304.6,311.85c0-2.01,1.04-3.21,2.67-3.21s2.59,1.22,2.59,3.02v.32h-4.54v.3c0,1.28,.74,2.18,2,2.18,.88,0,1.52-.43,1.86-1.24l.5,.34c-.38,.9-1.24,1.5-2.4,1.5-1.64,0-2.69-1.2-2.69-3.21Zm.72-.46v.06h3.8v-.1c0-1.29-.74-2.15-1.85-2.15-1.19,0-1.95,.89-1.95,2.18Z"/>
    </g>
    <g>
      <path class="cls-12" d="M314.26,314.92v-6.24h1.31v1.03h.06c.25-.65,.72-1.18,1.67-1.18,.84,0,1.55,.41,1.85,1.27h.04c.23-.7,.88-1.27,1.88-1.27,1.24,0,1.97,.89,1.97,2.42v3.96h-1.31v-3.8c0-.96-.36-1.45-1.15-1.45-.66,0-1.27,.35-1.27,1.07v4.19h-1.31v-3.8c0-.97-.37-1.45-1.14-1.45-.65,0-1.28,.35-1.28,1.07v4.19h-1.31Z"/>
      <path class="cls-12" d="M324.43,311.8c0-1.99,1.13-3.26,2.87-3.26s2.87,1.27,2.87,3.26-1.13,3.26-2.87,3.26-2.87-1.27-2.87-3.26Zm4.35,.53v-1.06c0-1.1-.6-1.65-1.49-1.65s-1.49,.55-1.49,1.65v1.06c0,1.1,.6,1.66,1.49,1.66s1.49-.55,1.49-1.66Z"/>
      <path class="cls-12" d="M331.06,313.89l.84-.77c.46,.55,1.02,.89,1.76,.89s1.14-.31,1.14-.84c0-.4-.24-.7-.89-.78l-.58-.07c-1.27-.16-2.05-.71-2.05-1.86,0-1.21,.95-1.92,2.32-1.92,1.13,0,1.76,.37,2.33,1l-.8,.77c-.32-.38-.85-.71-1.52-.71-.72,0-1.06,.31-1.06,.78s.3,.7,.96,.8l.58,.07c1.37,.2,1.98,.8,1.98,1.81,0,1.2-.97,2-2.47,2-1.17,0-1.94-.44-2.53-1.17Z"/>
      <path class="cls-12" d="M339.2,314.92c-.9,0-1.38-.5-1.38-1.36v-3.81h-.97v-1.07h.53c.43,0,.58-.18,.58-.61v-1.09h1.18v1.7h1.31v1.07h-1.31v4.1h1.21v1.07h-1.14Z"/>
    </g>
    <g>
      <path class="cls-12" d="M9.94,323.08h1.31v1.03h.06c.26-.74,.92-1.18,1.75-1.18,1.57,0,2.48,1.21,2.48,3.26s-.91,3.26-2.48,3.26c-.83,0-1.49-.44-1.75-1.17h-.06v3.43h-1.31v-8.63Zm4.22,3.66v-1.08c0-.96-.6-1.59-1.5-1.59-.79,0-1.42,.43-1.42,1.07v2.13c0,.64,.62,1.07,1.42,1.07,.9,0,1.5-.64,1.5-1.59Z"/>
      <path class="cls-12" d="M16.62,326.2c0-1.99,1.13-3.26,2.87-3.26s2.87,1.27,2.87,3.26-1.13,3.26-2.87,3.26-2.87-1.27-2.87-3.26Zm4.35,.53v-1.05c0-1.1-.6-1.66-1.49-1.66s-1.49,.55-1.49,1.66v1.05c0,1.1,.6,1.66,1.49,1.66s1.49-.55,1.49-1.66Z"/>
      <path class="cls-12" d="M23.81,323.08h1.31v1.03h.06c.26-.74,.92-1.18,1.75-1.18,1.57,0,2.48,1.21,2.48,3.26s-.91,3.26-2.48,3.26c-.83,0-1.49-.44-1.75-1.17h-.06v3.43h-1.31v-8.63Zm4.22,3.66v-1.08c0-.96-.6-1.59-1.5-1.59-.79,0-1.42,.43-1.42,1.07v2.13c0,.64,.62,1.07,1.42,1.07,.9,0,1.5-.64,1.5-1.59Z"/>
      <path class="cls-12" d="M34.69,328.29h-.05c-.23,.61-.72,1.17-1.75,1.17-1.28,0-2.04-.88-2.04-2.41v-3.97h1.31v3.8c0,.95,.4,1.45,1.2,1.45,.67,0,1.33-.35,1.33-1.08v-4.17h1.31v6.24h-1.31v-1.03Z"/>
      <path class="cls-12" d="M39.2,329.32c-.89,0-1.33-.49-1.33-1.29v-7.58h1.31v7.81h.86v1.07h-.84Z"/>
      <path class="cls-12" d="M45.86,329.32c-.68,0-1.04-.43-1.13-1.04h-.06c-.24,.78-.91,1.19-1.82,1.19-1.28,0-2.02-.73-2.02-1.86,0-1.24,.92-1.87,2.66-1.87h1.13v-.53c0-.76-.41-1.2-1.28-1.2-.73,0-1.18,.36-1.49,.85l-.78-.71c.41-.7,1.14-1.21,2.35-1.21,1.61,0,2.51,.79,2.51,2.18v3.13h.66v1.07h-.73Zm-1.24-1.85v-.9h-1.1c-.91,0-1.35,.3-1.35,.84v.22c0,.55,.41,.84,1.06,.84,.8,0,1.4-.38,1.4-1Z"/>
      <path class="cls-12" d="M47.88,329.32v-6.24h1.31v1.2h.06c.18-.64,.72-1.2,1.71-1.2h.35v1.26h-.52c-1.03,0-1.61,.35-1.61,1v3.98h-1.31Z"/>
    </g>
    <g>
      <path class="cls-12" d="M54.77,323.18h.67l1.48,5.53h.02l1.63-5.53h.64l1.64,5.53h.02l1.46-5.53h.66l-1.73,6.14h-.84l-1.55-5.17h-.02l-1.54,5.17h-.83l-1.73-6.14Z"/>
      <path class="cls-12" d="M68.62,329.32c-.53,0-.74-.3-.78-.76v-.22h-.06c-.28,.68-.9,1.12-1.86,1.12-1.28,0-2.03-.67-2.03-1.81s.72-1.78,2.49-1.78h1.42v-.72c0-1.01-.53-1.52-1.57-1.52-.82,0-1.34,.36-1.68,1l-.43-.36c.34-.71,1.02-1.24,2.14-1.24,1.43,0,2.23,.75,2.23,2.05v3.63h.83v.6h-.7Zm-.82-1.79v-1.14h-1.44c-1.22,0-1.75,.42-1.75,1.1v.29c0,.71,.56,1.09,1.4,1.09,1,0,1.79-.52,1.79-1.34Z"/>
      <path class="cls-12" d="M70.1,328.29l.5-.4c.5,.66,1.09,.98,1.91,.98,.94,0,1.48-.42,1.48-1.16,0-.65-.37-1.02-1.26-1.15l-.5-.08c-1.12-.17-1.88-.61-1.88-1.71s.9-1.73,2.09-1.73c1.02,0,1.64,.4,2.1,.95l-.46,.42c-.32-.38-.83-.78-1.68-.78s-1.39,.41-1.39,1.1,.44,.98,1.32,1.13l.49,.07c1.25,.19,1.83,.73,1.83,1.72,0,1.14-.83,1.82-2.18,1.82-1.07,0-1.81-.42-2.36-1.17Z"/>
      <path class="cls-12" d="M79.57,323.78h-1.06v-.6h1.06v-1.71c0-.62,.31-1.02,.96-1.02h1.08v.6h-1.35v2.13h1.35v.6h-1.35v5.54h-.68v-5.54Z"/>
      <path class="cls-12" d="M82.45,326.25c0-2.01,1.06-3.21,2.67-3.21s2.67,1.2,2.67,3.21-1.06,3.21-2.67,3.21-2.67-1.2-2.67-3.21Zm4.62,.38v-.77c0-1.43-.76-2.22-1.94-2.22s-1.94,.78-1.94,2.22v.77c0,1.43,.76,2.22,1.94,2.22s1.94-.78,1.94-2.22Z"/>
      <path class="cls-12" d="M93.38,328.35h-.05c-.23,.58-.73,1.12-1.79,1.12-1.31,0-2.09-.84-2.09-2.34v-3.95h.68v3.81c0,1.26,.56,1.86,1.58,1.86,.85,0,1.65-.44,1.65-1.37v-4.31h.68v6.14h-.68v-.97Z"/>
      <path class="cls-12" d="M96.3,329.32v-6.14h.68v.97h.04c.28-.64,.83-1.12,1.81-1.12,1.31,0,2.07,.84,2.07,2.34v3.95h-.68v-3.83c0-1.25-.55-1.85-1.57-1.85-.86,0-1.67,.44-1.67,1.36v4.32h-.68Z"/>
      <path class="cls-12" d="M107.02,328.34h-.04c-.32,.68-.94,1.13-1.87,1.13-1.57,0-2.53-1.19-2.53-3.21s.96-3.21,2.53-3.21c.94,0,1.57,.44,1.87,1.13h.04v-3.72h.68v8.88h-.68v-.98Zm0-.89v-2.43c0-.8-.8-1.37-1.75-1.37-1.22,0-1.95,.85-1.95,2.17v.86c0,1.32,.73,2.17,1.95,2.17,.95,0,1.75-.54,1.75-1.4Z"/>
      <path class="cls-12" d="M113.83,329.32c-.49,0-.76-.3-.76-.76v-4.79h-1.07v-.6h.7c.34,0,.43-.12,.43-.47v-1.25h.62v1.71h1.39v.6h-1.39v4.94h1.3v.6h-1.22Z"/>
      <path class="cls-12" d="M116.27,326.25c0-2.01,1.06-3.21,2.67-3.21s2.67,1.2,2.67,3.21-1.06,3.21-2.67,3.21-2.67-1.2-2.67-3.21Zm4.62,.38v-.77c0-1.43-.76-2.22-1.94-2.22s-1.94,.78-1.94,2.22v.77c0,1.43,.76,2.22,1.94,2.22s1.94-.78,1.94-2.22Z"/>
      <path class="cls-12" d="M126.19,320.44h.68v3.72h.04c.3-.68,.94-1.13,1.87-1.13,1.57,0,2.53,1.19,2.53,3.21s-.96,3.21-2.53,3.21c-.94,0-1.54-.44-1.87-1.13h-.04v.98h-.68v-8.88Zm4.39,6.24v-.86c0-1.32-.73-2.17-1.95-2.17-.95,0-1.75,.56-1.75,1.37v2.43c0,.86,.8,1.4,1.75,1.4,1.22,0,1.95-.85,1.95-2.17Z"/>
      <path class="cls-12" d="M132.59,326.25c0-2.01,1.04-3.21,2.67-3.21s2.59,1.22,2.59,3.02v.32h-4.55v.3c0,1.28,.74,2.18,2,2.18,.88,0,1.52-.43,1.86-1.24l.5,.34c-.38,.9-1.24,1.5-2.4,1.5-1.64,0-2.69-1.2-2.69-3.21Zm.72-.46v.06h3.8v-.1c0-1.29-.74-2.15-1.85-2.15-1.19,0-1.96,.89-1.96,2.18Z"/>
    </g>
    <g>
      <path class="cls-12" d="M142.56,324.15h-.95v-1.07h.95v-1.03c0-1.01,.54-1.61,1.58-1.61h1.03v1.07h-1.31v1.57h1.31v1.07h-1.31v5.17h-1.31v-5.17Z"/>
      <path class="cls-12" d="M150.88,329.32c-.68,0-1.04-.43-1.13-1.04h-.06c-.24,.78-.91,1.19-1.82,1.19-1.28,0-2.01-.73-2.01-1.86,0-1.24,.92-1.87,2.66-1.87h1.13v-.53c0-.76-.41-1.2-1.28-1.2-.73,0-1.18,.36-1.49,.85l-.78-.71c.41-.7,1.14-1.21,2.35-1.21,1.61,0,2.51,.79,2.51,2.18v3.13h.66v1.07h-.73Zm-1.24-1.85v-.9h-1.1c-.91,0-1.36,.3-1.36,.84v.22c0,.55,.41,.84,1.06,.84,.8,0,1.4-.38,1.4-1Z"/>
      <path class="cls-12" d="M152.9,329.32v-6.24h1.31v1.03h.06c.26-.67,.79-1.18,1.75-1.18,1.27,0,2.03,.89,2.03,2.42v3.96h-1.31v-3.79c0-.97-.37-1.46-1.18-1.46-.68,0-1.36,.35-1.36,1.08v4.17h-1.31Z"/>
      <path class="cls-12" d="M162.69,320.44h1.31v3.67h.06c.26-.67,.79-1.18,1.75-1.18,1.27,0,2.03,.89,2.03,2.42v3.96h-1.31v-3.8c0-.96-.37-1.45-1.18-1.45-.68,0-1.36,.35-1.36,1.07v4.19h-1.31v-8.88Z"/>
      <path class="cls-12" d="M169.23,326.2c0-1.99,1.09-3.26,2.87-3.26s2.77,1.38,2.77,3.11v.49h-4.28v.2c0,.96,.59,1.64,1.64,1.64,.77,0,1.28-.36,1.64-.94l.77,.76c-.47,.76-1.38,1.26-2.54,1.26-1.78,0-2.87-1.27-2.87-3.26Zm1.36-.61v.08h2.9v-.12c0-.96-.53-1.6-1.39-1.6s-1.51,.67-1.51,1.63Z"/>
      <path class="cls-12" d="M180.89,329.32c-.68,0-1.04-.43-1.13-1.04h-.06c-.24,.78-.91,1.19-1.82,1.19-1.28,0-2.02-.73-2.02-1.86,0-1.24,.92-1.87,2.66-1.87h1.13v-.53c0-.76-.41-1.2-1.28-1.2-.73,0-1.18,.36-1.49,.85l-.78-.71c.41-.7,1.14-1.21,2.35-1.21,1.61,0,2.51,.79,2.51,2.18v3.13h.66v1.07h-.73Zm-1.24-1.85v-.9h-1.1c-.91,0-1.35,.3-1.35,.84v.22c0,.55,.41,.84,1.06,.84,.8,0,1.4-.38,1.4-1Z"/>
      <path class="cls-12" d="M184.62,329.32c-.9,0-1.38-.5-1.38-1.36v-3.81h-.97v-1.07h.53c.43,0,.58-.18,.58-.61v-1.09h1.18v1.7h1.31v1.07h-1.31v4.1h1.21v1.07h-1.14Z"/>
      <path class="cls-12" d="M186.81,326.2c0-1.99,1.09-3.26,2.87-3.26s2.77,1.38,2.77,3.11v.49h-4.28v.2c0,.96,.59,1.64,1.64,1.64,.77,0,1.28-.36,1.64-.94l.77,.76c-.47,.76-1.38,1.26-2.54,1.26-1.78,0-2.87-1.27-2.87-3.26Zm1.36-.61v.08h2.9v-.12c0-.96-.53-1.6-1.39-1.6s-1.51,.67-1.51,1.63Z"/>
      <path class="cls-12" d="M193.91,329.32v-6.24h1.31v1.2h.06c.18-.64,.72-1.2,1.71-1.2h.35v1.26h-.52c-1.03,0-1.61,.35-1.61,1v3.98h-1.31Z"/>
      <path class="cls-12" d="M197.95,328.29l.84-.77c.46,.55,1.02,.89,1.76,.89s1.14-.31,1.14-.84c0-.4-.24-.7-.89-.78l-.58-.07c-1.27-.16-2.05-.71-2.05-1.86,0-1.21,.95-1.92,2.31-1.92,1.13,0,1.76,.37,2.33,1l-.8,.77c-.32-.38-.85-.71-1.52-.71-.72,0-1.06,.31-1.06,.78s.3,.7,.96,.8l.58,.07c1.37,.2,1.98,.8,1.98,1.81,0,1.2-.97,2-2.47,2-1.18,0-1.94-.44-2.53-1.17Z"/>
    </g>
    <path class="cls-12" d="M204.45,328.89v-.13c0-.32,.18-.54,.58-.54s.58,.22,.58,.54v.13c0,.32-.19,.54-.58,.54s-.58-.22-.58-.54Z"/>
  </g>
</svg>