<?xml version="1.0" encoding="UTF-8"?>
<svg id="Layer_2" data-name="Layer 2" xmlns="http://www.w3.org/2000/svg" xmlns:xlink="http://www.w3.org/1999/xlink" viewBox="0 0 852.66 279.28">
  <defs>
    <style>
      .cls-1 {
        fill: #0c0d0c;
      }

      .cls-2 {
        fill: #c9876a;
      }

      .cls-3 {
        fill: #c9876b;
      }

      .cls-4 {
        clip-path: url(#clippath-2);
      }

      .cls-5 {
        fill: #874c33;
      }

      .cls-6 {
        clip-path: url(#clippath-6);
      }

      .cls-7 {
        clip-path: url(#clippath-7);
      }

      .cls-8 {
        clip-path: url(#clippath-1);
      }

      .cls-9 {
        clip-path: url(#clippath-4);
      }

      .cls-10 {
        fill: #2958a5;
      }

      .cls-11 {
        fill: #cb886c;
      }

      .cls-12 {
        clip-path: url(#clippath);
      }

      .cls-13 {
        fill: none;
      }

      .cls-14 {
        clip-path: url(#clippath-3);
      }

      .cls-15 {
        clip-path: url(#clippath-8);
      }

      .cls-16 {
        clip-path: url(#clippath-5);
      }

      .cls-17 {
        fill: #1d1d1b;
      }
    </style>
    <clipPath id="clippath">
      <rect class="cls-13" width="852.66" height="279.28"/>
    </clipPath>
    <clipPath id="clippath-1">
      <rect class="cls-13" width="852.66" height="279.28"/>
    </clipPath>
    <clipPath id="clippath-2">
      <rect class="cls-13" width="852.66" height="279.28"/>
    </clipPath>
    <clipPath id="clippath-3">
      <rect class="cls-13" width="852.66" height="279.28"/>
    </clipPath>
    <clipPath id="clippath-4">
      <rect class="cls-13" width="852.66" height="279.28"/>
    </clipPath>
    <clipPath id="clippath-5">
      <rect class="cls-13" width="852.66" height="279.28"/>
    </clipPath>
    <clipPath id="clippath-6">
      <rect class="cls-13" width="852.66" height="279.28"/>
    </clipPath>
    <clipPath id="clippath-7">
      <rect class="cls-13" width="852.66" height="279.28"/>
    </clipPath>
    <clipPath id="clippath-8">
      <rect class="cls-13" width="852.66" height="279.28"/>
    </clipPath>
  </defs>
  <g id="Layer_1-2" data-name="Layer 1">
    <g class="cls-12">
      <path class="cls-11" d="M273.96,208.56h290.42c9.51,0,17.29-4.8,17.29-10.68v-22.22c0-5.87-7.78-10.68-17.29-10.68H273.96c-9.51,0-17.29,4.81-17.29,10.68v22.22c0,5.87,7.78,10.68,17.29,10.68"/>
    </g>
    <polyline class="cls-11" points="565.63 186.46 565.63 222.23 521.77 186.46"/>
    <g class="cls-8">
      <path class="cls-11" d="M564.38,262.48H273.96c-9.51,0-17.29-3.76-17.29-8.35v-17.37c0-4.59,7.78-8.35,17.29-8.35h290.42c9.51,0,17.29,3.76,17.29,8.35v17.37c0,4.59-7.78,8.35-17.29,8.35"/>
    </g>
    <polyline class="cls-11" points="272.72 240.38 272.72 276.15 316.58 240.38"/>
    <g class="cls-4">
      <path class="cls-11" d="M563.46,145.59H273.04c-9.51,0-17.29-3.76-17.29-8.35v-17.37c0-4.59,7.78-8.35,17.29-8.35h290.42c9.51,0,17.29,3.75,17.29,8.35v17.37c0,4.59-7.78,8.35-17.29,8.35"/>
    </g>
    <polyline class="cls-11" points="271.8 123.5 271.8 159.27 315.65 123.5"/>
    <g>
      <path class="cls-17" d="M738.39,119.37c0-2.83,1.29-4.33,3.43-4.33s3.42,1.5,3.42,4.33-1.29,4.33-3.42,4.33-3.43-1.5-3.43-4.33Zm6.08,.53v-1.06c0-1.99-1.05-3.15-2.65-3.15s-2.66,1.16-2.66,3.15v1.06c0,1.99,1.05,3.15,2.66,3.15s2.65-1.16,2.65-3.15Z"/>
      <path class="cls-17" d="M748.17,123.55c-.49,0-.76-.3-.76-.76v-4.79h-1.07v-.6h.7c.34,0,.43-.12,.43-.47v-1.25h.62v1.71h1.39v.6h-1.39v4.94h1.3v.6h-1.22Z"/>
      <path class="cls-17" d="M751.13,114.68h.68v3.71h.04c.28-.64,.83-1.12,1.81-1.12,1.31,0,2.08,.84,2.08,2.34v3.95h-.68v-3.83c0-1.25-.55-1.85-1.57-1.85-.86,0-1.67,.44-1.67,1.36v4.32h-.68v-8.88Z"/>
      <path class="cls-17" d="M757.4,120.48c0-2.01,1.04-3.21,2.67-3.21s2.59,1.22,2.59,3.02v.32h-4.55v.3c0,1.28,.74,2.18,2,2.18,.88,0,1.52-.43,1.86-1.24l.5,.34c-.38,.9-1.24,1.5-2.4,1.5-1.64,0-2.69-1.2-2.69-3.21Zm.72-.46v.06h3.8v-.1c0-1.29-.74-2.15-1.85-2.15-1.19,0-1.96,.89-1.96,2.18Z"/>
      <path class="cls-17" d="M764.41,123.55v-6.14h.68v1.1h.05c.24-.58,.78-1.1,1.83-1.1h.41v.67h-.54c-1.02,0-1.75,.48-1.75,1.27v4.2h-.68Z"/>
    </g>
    <g>
      <path class="cls-17" d="M757.42,244.06l-2.11-8.37h.77l1.79,7.48h.04l1.98-7.48h.88l1.96,7.48h.04l1.85-7.48h.74l-2.18,8.37h-.84l-2-7.57h-.02l-2.03,7.57h-.84Z"/>
      <path class="cls-17" d="M766.14,240.99c0-2.02,1.05-3.21,2.67-3.21s2.67,1.2,2.67,3.21-1.06,3.21-2.67,3.21-2.67-1.2-2.67-3.21Zm4.62,.38v-.77c0-1.43-.76-2.22-1.94-2.22s-1.94,.78-1.94,2.22v.77c0,1.43,.75,2.22,1.94,2.22s1.94-.78,1.94-2.22Z"/>
      <path class="cls-17" d="M773.23,244.06v-6.14h.68v1.1h.05c.24-.58,.78-1.1,1.83-1.1h.41v.67h-.54c-1.02,0-1.75,.48-1.75,1.27v4.2h-.68Z"/>
      <path class="cls-17" d="M777.51,235.18h.68v5.86h.04l.96-1.02,2.04-2.11h.84l-2.41,2.49,2.67,3.65h-.84l-2.33-3.21-.97,.98v2.23h-.68v-8.88Z"/>
      <path class="cls-17" d="M783.53,235.82v-.12c0-.25,.14-.43,.47-.43s.47,.18,.47,.43v.12c0,.25-.14,.43-.47,.43s-.47-.18-.47-.43Zm.13,2.1h.68v6.14h-.68v-6.14Z"/>
      <path class="cls-17" d="M786.58,244.06v-6.14h.68v.97h.04c.28-.63,.83-1.12,1.81-1.12,1.31,0,2.08,.84,2.08,2.34v3.95h-.68v-3.83c0-1.25-.55-1.85-1.57-1.85-.86,0-1.67,.44-1.67,1.36v4.32h-.68Z"/>
      <path class="cls-17" d="M795.42,246.6c-1.87,0-2.65-.58-2.65-1.54,0-.7,.4-1.1,1.06-1.3v-.1c-.38-.16-.58-.43-.58-.84,0-.6,.46-.9,1.04-1.05v-.05c-.71-.32-1.14-.98-1.14-1.87,0-1.24,.88-2.09,2.23-2.09,.48,0,.9,.11,1.24,.3v-.3c0-.37,.17-.62,.56-.62h1.06v.6h-1.25v.59c.41,.37,.65,.9,.65,1.52,0,1.25-.89,2.1-2.24,2.1-.22,0-.43-.04-.64-.07-.53,.14-.91,.38-.91,.79,0,.36,.31,.55,.98,.55h1.43c1.47,0,2.11,.59,2.11,1.55,0,1.25-1.03,1.82-2.95,1.82Zm.84-2.74h-1.99c-.53,.18-.85,.53-.85,1.06,0,.63,.53,1.12,1.6,1.12h.77c1.19,0,1.93-.38,1.93-1.21,0-.59-.36-.96-1.45-.96Zm.65-3.81v-.38c0-.84-.58-1.34-1.51-1.34s-1.51,.5-1.51,1.34v.38c0,.86,.58,1.36,1.51,1.36s1.51-.49,1.51-1.36Z"/>
    </g>
    <g>
      <path class="cls-17" d="M756.93,258.46h-.72v-8.37h3.29c1.43,0,2.24,.86,2.24,2.33,0,1.28-.65,2.13-1.85,2.29l2.06,3.75h-.8l-2-3.71h-2.22v3.71Zm2.57-4.32c.96,0,1.47-.6,1.47-1.43v-.58c0-.81-.52-1.41-1.47-1.41h-2.57v3.42h2.57Z"/>
      <path class="cls-17" d="M763.11,255.39c0-2.01,1.04-3.21,2.67-3.21s2.59,1.22,2.59,3.02v.32h-4.54v.3c0,1.28,.74,2.18,2,2.18,.88,0,1.52-.43,1.86-1.24l.5,.34c-.38,.9-1.24,1.5-2.4,1.5-1.64,0-2.69-1.2-2.69-3.21Zm.72-.46v.06h3.8v-.1c0-1.29-.74-2.15-1.85-2.15-1.19,0-1.95,.89-1.95,2.18Z"/>
      <path class="cls-17" d="M770.87,258.46c-.49,0-.76-.3-.76-.74v-8.13h.68v8.28h.95v.6h-.88Z"/>
      <path class="cls-17" d="M777.51,258.46c-.53,0-.74-.3-.78-.76v-.21h-.06c-.28,.68-.9,1.12-1.86,1.12-1.28,0-2.03-.67-2.03-1.81s.72-1.78,2.5-1.78h1.42v-.72c0-1.01-.53-1.52-1.57-1.52-.82,0-1.34,.36-1.68,.99l-.43-.36c.34-.71,1.02-1.23,2.13-1.23,1.43,0,2.23,.75,2.23,2.05v3.63h.83v.6h-.7Zm-.82-1.79v-1.14h-1.44c-1.22,0-1.75,.42-1.75,1.1v.29c0,.71,.56,1.09,1.4,1.09,1,0,1.79-.52,1.79-1.34Z"/>
      <path class="cls-17" d="M781.12,255.36l-2.2-3.05h.8l1.75,2.51h.04l1.79-2.51h.77l-2.18,3,2.24,3.14h-.8l-1.81-2.59h-.02l-1.88,2.59h-.77l2.28-3.09Z"/>
      <path class="cls-17" d="M785.43,250.22v-.12c0-.25,.14-.43,.47-.43s.47,.18,.47,.43v.12c0,.25-.14,.43-.47,.43s-.47-.18-.47-.43Zm.13,2.1h.68v6.14h-.68v-6.14Z"/>
      <path class="cls-17" d="M788.48,258.46v-6.14h.68v.97h.04c.28-.64,.83-1.12,1.81-1.12,1.31,0,2.08,.84,2.08,2.34v3.95h-.68v-3.83c0-1.25-.55-1.85-1.57-1.85-.86,0-1.67,.44-1.67,1.36v4.32h-.68Z"/>
      <path class="cls-17" d="M797.32,261c-1.87,0-2.65-.58-2.65-1.54,0-.7,.4-1.1,1.06-1.29v-.1c-.38-.16-.58-.43-.58-.84,0-.6,.46-.9,1.04-1.05v-.05c-.71-.32-1.14-.98-1.14-1.87,0-1.23,.88-2.09,2.23-2.09,.48,0,.9,.11,1.24,.3v-.3c0-.37,.17-.62,.56-.62h1.06v.6h-1.25v.59c.41,.37,.65,.9,.65,1.52,0,1.25-.89,2.1-2.24,2.1-.22,0-.43-.04-.64-.07-.53,.14-.91,.38-.91,.79,0,.36,.31,.55,.98,.55h1.43c1.47,0,2.11,.59,2.11,1.55,0,1.25-1.03,1.82-2.95,1.82Zm.84-2.73h-1.99c-.53,.18-.85,.53-.85,1.05,0,.64,.53,1.12,1.6,1.12h.77c1.19,0,1.93-.38,1.93-1.21,0-.59-.36-.96-1.45-.96Zm.65-3.81v-.38c0-.84-.58-1.34-1.51-1.34s-1.51,.5-1.51,1.34v.38c0,.86,.58,1.36,1.51,1.36s1.51-.49,1.51-1.36Z"/>
    </g>
    <g class="cls-14">
      <path class="cls-5" d="M682.38,158.41c26.65,0,48.25,21.6,48.25,48.25s-21.6,48.25-48.25,48.25-48.25-21.6-48.25-48.25,21.6-48.25,48.25-48.25m0-23.36c-39.55,0-71.62,32.06-71.62,71.61s32.06,71.62,71.62,71.62,71.61-32.06,71.61-71.62-32.06-71.61-71.61-71.61"/>
      <path class="cls-3" d="M613.99,185.37c9.07-29.15,36.26-50.32,68.4-50.32v23.36c-21.81,0-40.25,14.47-46.22,34.34"/>
      <path class="cls-1" d="M698.95,161.33c-5.76-2.43-9.92-2.92-16.57-2.92v-23.36c8.5,0,16.65,1.48,24.22,4.2l-7.65,22.08Z"/>
      <path class="cls-2" d="M750.53,135.21c-3.05,0-6.11-.93-8.17-2.8-3.43-3.11-10.41-3.11-13.84,0-4.12,3.74-12.21,3.74-16.33,0-3.43-3.11-10.41-3.11-13.84,0l-1.25-1.37c4.12-3.74,12.21-3.74,16.33,0,3.43,3.11,10.41,3.11,13.84,0,4.12-3.74,12.21-3.74,16.33,0,3.43,3.11,10.41,3.11,13.84,0,4.12-3.74,12.21-3.74,16.33,0,3.43,3.11,10.41,3.11,13.84,0l1.25,1.37c-4.12,3.74-12.21,3.74-16.33,0-3.43-3.11-10.41-3.11-13.84,0-2.06,1.87-5.11,2.8-8.17,2.8Z"/>
    </g>
    <rect class="cls-2" x="684.45" y="141.49" width="21.68" height="2" transform="translate(391.92 784.13) rotate(-76.28)"/>
    <g class="cls-9">
      <path class="cls-2" d="M691.28,273.47c-2.92,0-5.84-.94-7.81-2.82-3.23-3.09-9.83-3.09-13.06,0l-1.28-1.34c3.94-3.76,11.68-3.76,15.62,0,3.23,3.09,9.83,3.09,13.06,0,3.95-3.76,11.68-3.76,15.62,0,3.23,3.09,9.83,3.08,13.06,0,3.94-3.76,11.68-3.76,15.62,0,3.23,3.09,9.83,3.08,13.06,0,3.94-3.76,11.68-3.76,15.62,0,3.23,3.09,9.83,3.09,13.06,0,3.94-3.76,11.68-3.76,15.62,0,3.24,3.09,9.83,3.08,13.06,0l1.28,1.34c-3.94,3.76-11.68,3.76-15.62,0-3.23-3.09-9.83-3.09-13.06,0-3.94,3.76-11.68,3.76-15.62,0-3.23-3.09-9.83-3.09-13.06,0-3.94,3.76-11.68,3.76-15.62,0-3.23-3.09-9.83-3.09-13.06,0-3.94,3.76-11.68,3.76-15.62,0-3.23-3.09-9.83-3.09-13.06,0-1.97,1.88-4.89,2.82-7.81,2.82Z"/>
    </g>
    <g>
      <path class="cls-17" d="M719.67,86.15h2.66c2.15,0,3.38,1.4,3.38,4.19s-1.24,4.19-3.38,4.19h-2.66v-8.37Zm2.67,7.74c1.64,0,2.6-1.14,2.6-3v-1.1c0-1.86-.96-3-2.6-3h-1.96v7.1h1.96Z"/>
      <path class="cls-17" d="M727.59,94.53v-6.14h.68v1.1h.05c.24-.58,.78-1.1,1.83-1.1h.41v.67h-.54c-1.02,0-1.75,.48-1.75,1.27v4.2h-.68Z"/>
      <path class="cls-17" d="M731.35,91.45c0-2.01,1.04-3.21,2.67-3.21s2.59,1.22,2.59,3.02v.32h-4.55v.3c0,1.28,.74,2.18,2,2.18,.88,0,1.52-.43,1.86-1.24l.5,.34c-.38,.9-1.24,1.5-2.4,1.5-1.64,0-2.69-1.2-2.69-3.21Zm.72-.46v.06h3.8v-.1c0-1.29-.74-2.15-1.85-2.15-1.19,0-1.96,.89-1.96,2.18Z"/>
      <path class="cls-17" d="M737.73,93.49l.5-.4c.5,.66,1.09,.98,1.91,.98,.94,0,1.48-.42,1.48-1.16,0-.65-.37-1.02-1.26-1.15l-.5-.08c-1.12-.17-1.88-.61-1.88-1.71s.9-1.73,2.09-1.73c1.02,0,1.64,.4,2.1,.95l-.46,.42c-.32-.38-.83-.78-1.68-.78s-1.39,.41-1.39,1.1,.44,.98,1.32,1.13l.49,.07c1.25,.19,1.83,.73,1.83,1.72,0,1.14-.83,1.82-2.18,1.82-1.07,0-1.81-.42-2.36-1.17Z"/>
      <path class="cls-17" d="M743.37,93.49l.5-.4c.5,.66,1.09,.98,1.91,.98,.94,0,1.48-.42,1.48-1.16,0-.65-.37-1.02-1.26-1.15l-.5-.08c-1.12-.17-1.88-.61-1.88-1.71s.9-1.73,2.09-1.73c1.02,0,1.64,.4,2.1,.95l-.46,.42c-.32-.38-.83-.78-1.68-.78s-1.39,.41-1.39,1.1,.44,.98,1.32,1.13l.49,.07c1.25,.19,1.83,.73,1.83,1.72,0,1.14-.83,1.82-2.18,1.82-1.07,0-1.81-.42-2.36-1.17Z"/>
      <path class="cls-17" d="M749.59,86.29v-.12c0-.25,.14-.43,.47-.43s.47,.18,.47,.43v.12c0,.25-.14,.43-.47,.43s-.47-.18-.47-.43Zm.13,2.1h.68v6.14h-.68v-6.14Z"/>
      <path class="cls-17" d="M752.64,94.53v-6.14h.68v.97h.04c.28-.64,.83-1.12,1.81-1.12,1.31,0,2.08,.84,2.08,2.34v3.95h-.68v-3.83c0-1.25-.55-1.85-1.57-1.85-.86,0-1.67,.44-1.67,1.36v4.32h-.68Z"/>
      <path class="cls-17" d="M761.48,97.07c-1.87,0-2.65-.58-2.65-1.54,0-.7,.4-1.1,1.06-1.3v-.1c-.38-.16-.58-.43-.58-.84,0-.6,.46-.9,1.04-1.05v-.05c-.71-.32-1.14-.98-1.14-1.87,0-1.24,.88-2.09,2.23-2.09,.48,0,.9,.11,1.24,.3v-.3c0-.37,.17-.62,.56-.62h1.06v.6h-1.25v.59c.41,.37,.65,.9,.65,1.52,0,1.25-.89,2.1-2.24,2.1-.22,0-.43-.04-.64-.07-.53,.14-.91,.38-.91,.79,0,.36,.31,.55,.98,.55h1.43c1.47,0,2.11,.59,2.11,1.55,0,1.25-1.03,1.82-2.95,1.82Zm.84-2.73h-1.99c-.53,.18-.85,.53-.85,1.05,0,.64,.53,1.12,1.6,1.12h.77c1.19,0,1.93-.38,1.93-1.21,0-.59-.36-.96-1.45-.96Zm.65-3.81v-.38c0-.84-.58-1.34-1.51-1.34s-1.51,.5-1.51,1.34v.38c0,.86,.58,1.36,1.51,1.36s1.51-.49,1.51-1.36Z"/>
    </g>
    <g class="cls-16">
      <path class="cls-2" d="M698.71,106.16c-2.82,0-5.64-.94-7.54-2.84-3.09-3.07-9.38-3.07-12.47,0l-1.31-1.32c3.8-3.78,11.28-3.78,15.08,0,3.09,3.07,9.38,3.07,12.47,0,3.8-3.78,11.28-3.78,15.08,0,3.09,3.07,9.38,3.07,12.47,0,3.8-3.78,11.28-3.78,15.08,0,3.09,3.07,9.38,3.07,12.47,0,3.8-3.78,11.28-3.78,15.08,0,3.09,3.07,9.38,3.07,12.47,0l1.31,1.32c-3.8,3.78-11.28,3.78-15.08,0-3.09-3.07-9.38-3.07-12.47,0-3.8,3.78-11.28,3.78-15.08,0-3.09-3.07-9.38-3.07-12.47,0-3.8,3.78-11.28,3.78-15.08,0-3.09-3.07-9.38-3.07-12.47,0-1.9,1.89-4.72,2.84-7.54,2.84Z"/>
    </g>
    <rect class="cls-2" x="643.26" y="126.51" width="53" height="2" transform="translate(344.93 726.95) rotate(-72.33)"/>
    <g>
      <path class="cls-17" d="M620.31,86.31l-1.26-3.71h-5.08l-1.26,3.71h-1.53l4.39-12.57h1.93l4.39,12.57h-1.58Zm-3.76-11.16h-.09l-2.12,6.12h4.34l-2.12-6.12Z"/>
      <path class="cls-17" d="M623.15,81.66c0-2.97,1.53-4.86,4.14-4.86,1.84,0,2.94,.9,3.48,2.18l-1.21,.61c-.34-.95-1.13-1.51-2.27-1.51-1.71,0-2.59,1.17-2.59,2.79v1.58c0,1.62,.88,2.79,2.59,2.79,1.17,0,2.02-.56,2.52-1.62l1.04,.7c-.59,1.33-1.8,2.2-3.57,2.2-2.61,0-4.14-1.89-4.14-4.86Z"/>
      <path class="cls-17" d="M634.94,86.31c-.99,0-1.53-.63-1.53-1.53v-6.5h-1.53v-1.26h.86c.61,0,.81-.22,.81-.85v-1.73h1.3v2.57h2.03v1.26h-2.03v6.77h1.89v1.26h-1.8Z"/>
      <path class="cls-17" d="M639.05,74.03v-.23c0-.49,.27-.81,.88-.81s.88,.32,.88,.81v.23c0,.49-.27,.81-.88,.81s-.88-.32-.88-.81Zm.16,2.99h1.44v9.29h-1.44v-9.29Z"/>
      <path class="cls-17" d="M645.76,86.31l-3.26-9.29h1.44l1.62,4.61,1.01,3.17h.09l1.01-3.17,1.66-4.61h1.39l-3.28,9.29h-1.67Z"/>
      <path class="cls-17" d="M652.4,74.03v-.23c0-.49,.27-.81,.88-.81s.88,.32,.88,.81v.23c0,.49-.27,.81-.88,.81s-.88-.32-.88-.81Zm.16,2.99h1.44v9.29h-1.44v-9.29Z"/>
      <path class="cls-17" d="M659.12,86.31c-.99,0-1.53-.63-1.53-1.53v-6.5h-1.53v-1.26h.86c.61,0,.81-.22,.81-.85v-1.73h1.3v2.57h2.03v1.26h-2.03v6.77h1.89v1.26h-1.8Z"/>
      <path class="cls-17" d="M669.11,77.02h1.42l-4.16,11.45c-.41,1.12-.79,1.44-2.16,1.44h-.74v-1.26h1.46l.7-1.98-3.48-9.65h1.44l2.23,6.32,.43,1.51h.09l.5-1.51,2.25-6.32Z"/>
    </g>
    <g>
      <path class="cls-17" d="M358.75,78.28l-1.78,1.98v4.2h-1.51v-12.57h1.51v6.68h.05l1.8-2.18,3.8-4.5h1.85l-4.68,5.38,5.01,7.18h-1.87l-4.18-6.18Z"/>
      <path class="cls-17" d="M365.61,79.81c0-2.95,1.66-4.86,4.18-4.86s4.02,1.91,4.02,4.54v.68h-6.68v.43c0,1.6,1.03,2.81,2.75,2.81,1.17,0,2.07-.58,2.56-1.6l1.03,.74c-.59,1.26-1.93,2.12-3.67,2.12-2.52,0-4.18-1.91-4.18-4.86Zm1.51-.85v.13h5.13v-.2c0-1.64-.99-2.74-2.47-2.74-1.57,0-2.67,1.19-2.67,2.81Z"/>
      <path class="cls-17" d="M381.83,75.16h1.42l-4.16,11.45c-.41,1.12-.79,1.44-2.16,1.44h-.74v-1.26h1.46l.7-1.98-3.48-9.65h1.44l2.23,6.32,.43,1.51h.09l.5-1.51,2.25-6.32Z"/>
      <path class="cls-17" d="M388.65,79.81c0-2.97,1.53-4.86,4.14-4.86,1.84,0,2.93,.9,3.48,2.18l-1.21,.61c-.34-.95-1.13-1.51-2.27-1.51-1.71,0-2.59,1.17-2.59,2.79v1.58c0,1.62,.88,2.79,2.59,2.79,1.17,0,2.02-.56,2.52-1.62l1.04,.7c-.59,1.33-1.8,2.2-3.57,2.2-2.61,0-4.14-1.89-4.14-4.86Z"/>
      <path class="cls-17" d="M397.61,79.81c0-2.95,1.71-4.86,4.2-4.86s4.19,1.91,4.19,4.86-1.71,4.86-4.19,4.86-4.2-1.91-4.2-4.86Zm6.84,.67v-1.33c0-1.96-1.1-2.92-2.65-2.92s-2.65,.95-2.65,2.92v1.33c0,1.96,1.1,2.92,2.65,2.92s2.65-.95,2.65-2.92Z"/>
      <path class="cls-17" d="M408.38,84.45v-9.29h1.44v1.51h.07c.41-.95,1.06-1.73,2.5-1.73,1.22,0,2.34,.56,2.84,1.89h.04c.34-1.01,1.24-1.89,2.83-1.89,1.89,0,3.03,1.3,3.03,3.55v5.96h-1.44v-5.71c0-1.64-.63-2.5-2.03-2.5-1.13,0-2.18,.58-2.18,1.76v6.45h-1.44v-5.71c0-1.66-.63-2.5-2-2.5-1.13,0-2.21,.58-2.21,1.76v6.45h-1.44Z"/>
      <path class="cls-17" d="M424.09,84.45v-9.29h1.44v1.51h.07c.41-.95,1.06-1.73,2.5-1.73,1.22,0,2.34,.56,2.84,1.89h.04c.34-1.01,1.24-1.89,2.83-1.89,1.89,0,3.03,1.3,3.03,3.55v5.96h-1.44v-5.71c0-1.64-.63-2.5-2.04-2.5-1.13,0-2.18,.58-2.18,1.76v6.45h-1.44v-5.71c0-1.66-.63-2.5-2-2.5-1.13,0-2.21,.58-2.21,1.76v6.45h-1.44Z"/>
      <path class="cls-17" d="M439.12,79.81c0-2.95,1.66-4.86,4.18-4.86s4.02,1.91,4.02,4.54v.68h-6.68v.43c0,1.6,1.03,2.81,2.75,2.81,1.17,0,2.07-.58,2.56-1.6l1.03,.74c-.59,1.26-1.93,2.12-3.67,2.12-2.52,0-4.18-1.91-4.18-4.86Zm1.51-.85v.13h5.13v-.2c0-1.64-.99-2.74-2.47-2.74-1.57,0-2.67,1.19-2.67,2.81Z"/>
      <path class="cls-17" d="M449.69,84.45v-9.29h1.44v1.51h.07c.45-1.04,1.24-1.73,2.63-1.73,1.91,0,3.12,1.3,3.12,3.55v5.96h-1.44v-5.71c0-1.66-.72-2.5-2.11-2.5-1.15,0-2.27,.58-2.27,1.76v6.45h-1.44Z"/>
      <path class="cls-17" d="M461.96,84.45c-.99,0-1.53-.63-1.53-1.53v-6.5h-1.53v-1.26h.86c.61,0,.81-.22,.81-.85v-1.73h1.3v2.57h2.03v1.26h-2.03v6.77h1.89v1.26h-1.8Z"/>
      <path class="cls-17" d="M465.35,82.85l1.03-.83c.72,.9,1.58,1.42,2.75,1.42s1.94-.56,1.94-1.51c0-.72-.4-1.28-1.62-1.46l-.74-.11c-1.71-.25-2.99-.95-2.99-2.68,0-1.84,1.42-2.74,3.31-2.74,1.5,0,2.49,.56,3.24,1.49l-.95,.86c-.41-.58-1.21-1.13-2.39-1.13s-1.82,.56-1.82,1.44,.63,1.26,1.78,1.44l.72,.11c2.05,.31,2.85,1.21,2.85,2.61,0,1.8-1.31,2.9-3.44,2.9-1.71,0-2.84-.72-3.67-1.82Z"/>
    </g>
    <g>
      <path class="cls-17" d="M272.82,125.2c0-.1,.01-.25,.04-.36,.17-.73,.73-1.78,1.58-2.41h.67c-.74,.63-1.15,1.27-1.39,1.85,.29,.04,.42,.2,.42,.42,0,.11-.03,.27-.06,.36-.07,.29-.21,.59-.7,.59-.38,0-.57-.17-.57-.45Zm2.55,0c0-.1,.01-.25,.04-.36,.17-.73,.73-1.78,1.58-2.41h.67c-.74,.63-1.15,1.27-1.39,1.85,.29,.04,.42,.2,.42,.42,0,.11-.03,.27-.06,.36-.07,.29-.21,.59-.7,.59-.38,0-.57-.17-.57-.45Z"/>
      <path class="cls-17" d="M277.2,132.79l.14-.7h1.39l1.67-8.38h-1.37l.14-.7h3.57l-.14,.7h-1.39l-1.67,8.38h1.37l-.14,.7h-3.57Z"/>
      <path class="cls-17" d="M288.38,125.62l-.9,4.47c-.06,.28-.07,.62-.07,.8,0,.9,.39,1.37,1.28,1.37,.56,0,1.08-.2,1.53-.69,.43-.48,.78-1.13,.92-1.79l.83-4.16h.77l-1.29,6.49h1.08l-.13,.69h-1.02c-.46,0-.69-.25-.69-.64,0-.08,.01-.18,.04-.34l.08-.46h-.06c-.52,1.08-1.23,1.61-2.3,1.61-1.22,0-1.85-.73-1.85-1.95,0-.27,.04-.6,.1-.92l.9-4.47h.77Z"/>
      <path class="cls-17" d="M293.67,131.62l.55-.46c.52,.76,1.22,1.13,2.13,1.13,1.09,0,1.85-.55,1.85-1.56,0-.63-.34-.98-1.22-1.18l-.6-.14c-1.04-.22-1.81-.66-1.81-1.81,0-1.25,.94-2.16,2.54-2.16,1.13,0,1.82,.43,2.33,1.08l-.55,.48c-.35-.49-.87-.88-1.84-.88-1.11,0-1.72,.56-1.72,1.43,0,.64,.34,.98,1.19,1.18l.6,.14c1.08,.24,1.82,.67,1.82,1.82,0,1.43-1.12,2.27-2.59,2.27-1.13,0-2.1-.48-2.67-1.34Z"/>
      <path class="cls-17" d="M302.64,125.62l-.9,4.47c-.06,.28-.07,.62-.07,.8,0,.9,.39,1.37,1.27,1.37,.56,0,1.08-.2,1.53-.69,.43-.48,.79-1.13,.92-1.79l.83-4.16h.77l-1.29,6.49h1.08l-.13,.69h-1.02c-.46,0-.69-.25-.69-.64,0-.08,.01-.18,.04-.34l.08-.46h-.06c-.52,1.08-1.23,1.61-2.3,1.61-1.22,0-1.85-.73-1.85-1.95,0-.27,.04-.6,.1-.92l.9-4.47h.77Z"/>
      <path class="cls-17" d="M313.73,132.79c-.48,0-.7-.25-.7-.63,0-.1,.01-.22,.04-.35l.11-.59h-.04c-.59,1.15-1.3,1.74-2.41,1.74-1.37,0-2.23-1.08-2.23-2.7,0-2.31,1.18-4.8,3.5-4.8,.99,0,1.78,.5,2.02,1.39h.04l.24-1.22h.77l-1.29,6.49h1.09l-.14,.69h-1.01Zm-1.3-1.19c.5-.45,.91-1.09,1.06-1.92l.34-1.67c.18-.91-.32-1.86-1.75-1.86-1.34,0-2.23,.95-2.55,2.52l-.17,.84c-.04,.27-.07,.52-.07,.83,0,1.08,.49,1.92,1.62,1.92,.6,0,1.06-.24,1.51-.66Z"/>
      <path class="cls-17" d="M317.29,132.79c-.48,0-.71-.25-.71-.64,0-.08,0-.13,.03-.28l1.89-9.44h.77l-1.93,9.68h1.13l-.14,.69h-1.04Z"/>
      <path class="cls-17" d="M320.77,132.79c-.48,0-.71-.25-.71-.64,0-.08,0-.13,.03-.28l1.89-9.44h.77l-1.93,9.68h1.13l-.14,.69h-1.04Z"/>
      <path class="cls-17" d="M329.01,125.62h.83l-5.1,9.13c-.34,.62-.6,.84-1.16,.84h-1.09l.14-.67h1.25l1.09-1.97-1.19-7.33h.76l.99,6.32h.06l3.43-6.32Z"/>
    </g>
    <g>
      <path class="cls-17" d="M334.56,125.51h1.46l-.32,1.62h.06c.59-1.19,1.26-1.79,2.37-1.79,1.33,0,2.1,1.06,2.1,2.68,0,2.55-1.32,4.94-3.49,4.94-.94,0-1.71-.52-1.86-1.39h-.07l-.8,4.02h-1.46l2.02-10.09Zm3.88,4.24l.21-1.02c.04-.22,.07-.52,.07-.76,0-.81-.39-1.39-1.19-1.39-.57,0-1.04,.29-1.39,.7-.39,.45-.67,.95-.8,1.61l-.27,1.33c-.17,.83,.31,1.49,1.39,1.49s1.72-.69,1.97-1.96Z"/>
      <path class="cls-17" d="M344.01,125.51l-.88,4.43c-.06,.27-.08,.55-.08,.74,0,.66,.27,1.02,.91,1.02,.49,0,.9-.22,1.25-.62,.43-.48,.73-1.11,.84-1.68l.78-3.89h1.46l-1.22,6.07h.94l-.24,1.22h-1.12c-.64,0-1.04-.38-1.04-.97,0-.13,.01-.27,.04-.42l.03-.17h-.07c-.53,1.12-1.22,1.72-2.25,1.72-1.19,0-1.81-.73-1.81-1.96,0-.31,.04-.63,.11-.99l.9-4.5h1.46Z"/>
      <path class="cls-17" d="M348.91,131.66l.95-.87c.46,.62,1.05,.97,1.89,.97,.92,0,1.47-.45,1.47-1.13,0-.39-.2-.7-.9-.83l-.63-.11c-1.16-.2-1.95-.73-1.95-1.91,0-1.29,.91-2.44,2.83-2.44,1.11,0,1.93,.38,2.52,1.11l-.95,.87c-.34-.45-.88-.77-1.65-.77-.88,0-1.33,.43-1.33,1.05,0,.41,.21,.7,.9,.83l.63,.1c1.2,.21,1.95,.76,1.95,1.93,0,1.44-1.12,2.51-2.91,2.51-1.15,0-2.21-.46-2.82-1.3Z"/>
      <path class="cls-17" d="M357.98,122.43h1.46l-.92,4.64h.07c.53-1.12,1.23-1.72,2.31-1.72,1.2,0,1.82,.73,1.82,1.96,0,.31-.04,.62-.11,.98l-.66,3.29h.88l-.24,1.22h-1.11c-.62,0-1.01-.32-1.01-.92,0-.11,.01-.25,.03-.34l.63-3.15c.06-.28,.08-.55,.08-.77,0-.64-.28-1.01-.95-1.01-.5,0-.92,.22-1.27,.62-.41,.45-.73,1.08-.84,1.65l-.78,3.92h-1.46l2.07-10.37Z"/>
      <path class="cls-17" d="M372.94,132.79c-.66,0-1.06-.36-1.06-.95,0-.14,.01-.29,.04-.41l.06-.27h-.06c-.59,1.19-1.26,1.79-2.37,1.79-1.34,0-2.1-1.06-2.1-2.68,0-2.55,1.32-4.94,3.49-4.94,.94,0,1.71,.53,1.86,1.39h.07l.24-1.22h1.46l-1.22,6.07h.94l-.24,1.22h-1.11Zm-1.42-1.78c.41-.43,.67-.98,.8-1.62l.29-1.47c.13-.64-.42-1.33-1.4-1.33-1.08,0-1.74,.69-1.99,1.96l-.21,1.02c-.04,.22-.07,.53-.07,.76,0,.81,.39,1.39,1.16,1.39,.6,0,1.04-.29,1.41-.7Z"/>
      <path class="cls-17" d="M375.44,132.79l1.46-7.28h1.46l-.31,1.55h.07c.53-1.12,1.23-1.72,2.31-1.72,1.2,0,1.82,.73,1.82,1.96,0,.31-.04,.62-.11,.98l-.66,3.29h.88l-.24,1.22h-1.11c-.62,0-1.01-.32-1.01-.92,0-.11,0-.17,.03-.34l.63-3.15c.06-.28,.08-.55,.08-.77,0-.64-.28-1.01-.95-1.01-.5,0-.92,.22-1.27,.62-.41,.45-.73,1.08-.84,1.65l-.78,3.92h-1.46Z"/>
      <path class="cls-17" d="M389.16,132.79c-.66,0-1.06-.36-1.06-.95,0-.14,.01-.29,.04-.41l.06-.27h-.06c-.59,1.19-1.26,1.79-2.37,1.79-1.34,0-2.1-1.06-2.1-2.68,0-2.55,1.32-4.94,3.49-4.94,.94,0,1.71,.53,1.86,1.39h.07l.85-4.3h1.46l-1.83,9.15h.94l-.24,1.22h-1.11Zm-1.42-1.78c.39-.42,.67-.97,.8-1.61l.27-1.33c.17-.83-.31-1.48-1.4-1.48-1.04,0-1.71,.69-1.96,1.96l-.21,1.02c-.04,.22-.07,.52-.07,.76,0,.81,.39,1.39,1.19,1.39,.58,0,1.02-.31,1.39-.7Z"/>
      <path class="cls-17" d="M397.04,122.43h1.46l-1.26,6.32h.08l1.16-1.23,2.14-2h1.72l-3.12,2.94,1.27,3.12h.88l-.24,1.22h-.8c-.66,0-1.04-.28-1.27-.91l-.99-2.49-1.21,1.13-.45,2.27h-1.46l2.07-10.37Z"/>
      <path class="cls-17" d="M403.74,132.79c-.7,0-1.09-.41-1.09-.98,0-.11,.01-.21,.04-.35l1.19-5.95h1.46l-1.22,6.07h.94l-.24,1.22h-1.08Zm.39-9.17c0-.11,.03-.28,.07-.49,.1-.43,.35-.76,1.01-.76,.55,0,.77,.25,.77,.59,0,.11-.03,.28-.07,.49-.1,.43-.35,.76-1.01,.76-.55,0-.77-.25-.77-.59Z"/>
      <path class="cls-17" d="M406.42,129.91c0-2.55,1.5-4.57,3.7-4.57,1.33,0,2.26,.73,2.49,1.78l-1.22,.49c-.21-.66-.57-1.04-1.34-1.04-1.01,0-1.65,.67-1.88,1.83l-.24,1.21c-.04,.21-.07,.43-.07,.62,0,.88,.46,1.5,1.43,1.5,.71,0,1.18-.39,1.68-1.3l1.12,.53c-.62,1.3-1.62,2-2.94,2-1.62,0-2.73-1.05-2.73-3.05Z"/>
      <path class="cls-17" d="M415.16,122.43h1.46l-1.26,6.32h.08l1.16-1.23,2.14-2h1.72l-3.12,2.94,1.27,3.12h.88l-.24,1.22h-.8c-.66,0-1.04-.28-1.27-.91l-.99-2.49-1.21,1.13-.45,2.27h-1.46l2.07-10.37Z"/>
    </g>
    <g>
      <path class="cls-17" d="M425.2,132.79c-.52,0-.73-.25-.73-.63,0-.14,.01-.28,.04-.39l1.09-5.46h-1.18l.14-.69h.71c.42,0,.53-.15,.6-.56l.29-1.44h.73l-.41,2h1.6l-.14,.69h-1.58l-1.16,5.8h1.48l-.14,.69h-1.36Z"/>
      <path class="cls-17" d="M430.52,122.43h.77l-.92,4.64h.06c.52-1.08,1.23-1.61,2.33-1.61,1.22,0,1.85,.73,1.85,1.95,0,.27-.03,.6-.1,.92l-.76,3.78h1.09l-.13,.69h-1.05c-.41,0-.67-.18-.67-.6,0-.08,0-.14,.03-.27l.71-3.6c.06-.29,.08-.62,.08-.8,0-.91-.42-1.37-1.3-1.37-.56,0-1.08,.2-1.54,.69-.41,.43-.79,1.11-.92,1.79l-.83,4.16h-.77l2.07-10.37Z"/>
      <path class="cls-17" d="M436.4,130.03c0-2.46,1.47-4.58,3.66-4.58,1.26,0,2.28,.64,2.28,1.85,0,1.32-1.22,2.27-5.11,2.33-.03,.18-.04,.45-.04,.6,0,1.33,.63,2.04,1.88,2.04,1.01,0,1.82-.55,2.38-1.39l.53,.42c-.83,1.19-1.86,1.65-2.96,1.65-1.67,0-2.62-.99-2.62-2.93Zm1-1.36l-.07,.34c3.53-.1,4.22-.74,4.22-1.72,0-.8-.62-1.16-1.57-1.16-1.3,0-2.27,1.04-2.58,2.55Z"/>
      <path class="cls-17" d="M448.75,122.43h.77l-.92,4.64h.06c.52-1.08,1.23-1.61,2.33-1.61,1.22,0,1.85,.73,1.85,1.95,0,.27-.03,.6-.1,.92l-.76,3.78h1.09l-.13,.69h-1.05c-.41,0-.67-.18-.67-.6,0-.08,0-.14,.03-.27l.71-3.6c.06-.29,.08-.62,.08-.8,0-.91-.42-1.37-1.3-1.37-.56,0-1.08,.2-1.54,.69-.41,.43-.79,1.11-.92,1.79l-.83,4.16h-.77l2.07-10.37Z"/>
      <path class="cls-17" d="M454.62,130.03c0-2.46,1.47-4.58,3.66-4.58,1.26,0,2.28,.64,2.28,1.85,0,1.32-1.22,2.27-5.11,2.33-.03,.18-.04,.45-.04,.6,0,1.33,.63,2.04,1.88,2.04,1.01,0,1.82-.55,2.38-1.39l.53,.42c-.83,1.19-1.86,1.65-2.96,1.65-1.67,0-2.62-.99-2.62-2.93Zm1-1.36l-.07,.34c3.53-.1,4.22-.74,4.22-1.72,0-.8-.62-1.16-1.57-1.16-1.3,0-2.27,1.04-2.58,2.55Z"/>
      <path class="cls-17" d="M466.99,132.79c-.48,0-.7-.25-.7-.63,0-.1,.01-.22,.04-.35l.11-.59h-.04c-.59,1.15-1.3,1.74-2.41,1.74-1.37,0-2.23-1.08-2.23-2.7,0-2.31,1.18-4.8,3.5-4.8,.99,0,1.78,.5,2.02,1.39h.04l.24-1.22h.77l-1.29,6.49h1.09l-.14,.69h-1.01Zm-1.3-1.19c.5-.45,.91-1.09,1.06-1.92l.34-1.67c.18-.91-.32-1.86-1.75-1.86-1.34,0-2.23,.95-2.55,2.52l-.17,.84c-.04,.27-.07,.52-.07,.83,0,1.08,.49,1.92,1.62,1.92,.6,0,1.06-.24,1.51-.66Z"/>
      <path class="cls-17" d="M470.81,132.79c-.52,0-.73-.25-.73-.63,0-.14,.01-.28,.04-.39l1.09-5.46h-1.18l.14-.69h.71c.42,0,.53-.15,.6-.56l.29-1.44h.73l-.41,2h1.6l-.14,.69h-1.58l-1.16,5.8h1.48l-.14,.69h-1.36Z"/>
      <path class="cls-17" d="M474.14,130.03c0-2.46,1.47-4.58,3.66-4.58,1.26,0,2.28,.64,2.28,1.85,0,1.32-1.22,2.27-5.11,2.33-.03,.18-.04,.45-.04,.6,0,1.33,.63,2.04,1.88,2.04,1.01,0,1.82-.55,2.38-1.39l.53,.42c-.83,1.19-1.86,1.65-2.96,1.65-1.67,0-2.62-.99-2.62-2.93Zm1-1.36l-.07,.34c3.53-.1,4.22-.74,4.22-1.72,0-.8-.62-1.16-1.57-1.16-1.3,0-2.27,1.04-2.58,2.55Z"/>
      <path class="cls-17" d="M481.11,132.79l1.43-7.17h.78l-.32,1.5h.06c.43-.8,1.05-1.5,2.27-1.5h.45l-.15,.77h-.46c-1.36,0-2.2,.99-2.44,2.17l-.84,4.23h-.77Z"/>
      <path class="cls-17" d="M489.85,125.62h.74l.41,6.33h.06l3.1-6.33h.77l.57,6.3h.06l2.96-6.3h.76l-3.4,7.17h-.94l-.56-6.01h-.06l-2.94,6.01h-.98l-.53-7.17Z"/>
      <path class="cls-17" d="M500.47,132.79c-.48,0-.71-.25-.71-.64,0-.08,0-.15,.03-.28l1.26-6.25h.77l-1.3,6.49h1.09l-.14,.69h-1Zm.91-9.51c0-.06,0-.11,.04-.31,.06-.28,.24-.45,.6-.45s.48,.18,.48,.39c0,.06,0,.11-.04,.31-.06,.28-.24,.45-.6,.45s-.48-.18-.48-.39Z"/>
      <path class="cls-17" d="M504.3,132.79c-.52,0-.73-.25-.73-.63,0-.14,.01-.28,.04-.39l1.09-5.46h-1.18l.14-.69h.71c.42,0,.53-.15,.6-.56l.29-1.44h.73l-.41,2h1.6l-.14,.69h-1.58l-1.16,5.8h1.48l-.14,.69h-1.36Z"/>
      <path class="cls-17" d="M509.62,122.43h.77l-.92,4.64h.06c.52-1.08,1.23-1.61,2.33-1.61,1.22,0,1.85,.73,1.85,1.95,0,.27-.03,.6-.1,.92l-.76,3.78h1.09l-.13,.69h-1.05c-.41,0-.67-.18-.67-.6,0-.08,0-.14,.03-.27l.71-3.6c.06-.29,.08-.62,.08-.8,0-.91-.42-1.37-1.3-1.37-.56,0-1.08,.2-1.54,.69-.41,.43-.79,1.11-.92,1.79l-.83,4.16h-.77l2.07-10.37Z"/>
    </g>
    <g>
      <path class="cls-17" d="M518.44,132.79l1.46-7.28h1.46l-.31,1.55h.07c.53-1.11,1.19-1.72,2.27-1.72s1.62,.64,1.69,1.72h.07c.52-1.09,1.23-1.72,2.34-1.72,1.16,0,1.77,.73,1.77,1.93,0,.35-.04,.7-.13,1.09l-.64,3.21h.88l-.24,1.22h-1.11c-.63,0-1.02-.32-1.02-.91,0-.13,.01-.24,.04-.35l.63-3.17c.06-.28,.1-.55,.1-.77,0-.63-.28-.99-.9-.99-.45,0-.84,.22-1.19,.62-.41,.45-.7,1.09-.81,1.65l-.78,3.92h-1.46l.88-4.41c.06-.28,.1-.56,.1-.8,0-.62-.27-.98-.85-.98-.49,0-.9,.25-1.22,.62-.42,.48-.74,1.09-.85,1.65l-.78,3.92h-1.46Z"/>
      <path class="cls-17" d="M535.92,125.51h1.55l-4.73,8.73c-.5,.95-.98,1.36-2,1.36h-1.11l.24-1.21h1.33l.69-1.29-1.11-7.59h1.43l.43,3.24,.27,2.67h.07l1.27-2.67,1.67-3.24Z"/>
      <path class="cls-17" d="M542.22,133.79c-.22,1.15-.85,1.81-2.16,1.81h-.98l.24-1.22h1.32l1.54-7.65h-1.09l.24-1.22h1.11l.25-1.27c.22-1.15,.85-1.81,2.16-1.81h1.08l-.24,1.22h-1.43l-.36,1.86h1.42l-.24,1.22h-1.43l-1.42,7.06Z"/>
      <path class="cls-17" d="M545.31,129.88c0-2.38,1.53-4.54,3.87-4.54,1.18,0,2.45,.56,2.45,1.99,0,1.54-1.5,2.38-4.83,2.45-.03,.18-.04,.35-.04,.46,0,.9,.49,1.49,1.54,1.49,.8,0,1.43-.35,2.03-1.09l.92,.77c-.91,1.13-1.92,1.55-3.05,1.55-1.88,0-2.89-1.13-2.89-3.08Zm1.72-1.48l-.07,.36c2.66-.11,3.22-.53,3.22-1.36,0-.73-.57-.9-1.12-.9-1.01,0-1.81,.74-2.03,1.89Z"/>
      <path class="cls-17" d="M552.48,129.88c0-2.38,1.53-4.54,3.87-4.54,1.18,0,2.45,.56,2.45,1.99,0,1.54-1.5,2.38-4.83,2.45-.03,.18-.04,.35-.04,.46,0,.9,.49,1.49,1.54,1.49,.8,0,1.43-.35,2.03-1.09l.92,.77c-.91,1.13-1.92,1.55-3.05,1.55-1.88,0-2.89-1.13-2.89-3.08Zm1.72-1.48l-.07,.36c2.66-.11,3.22-.53,3.22-1.36,0-.73-.57-.9-1.12-.9-1.01,0-1.81,.74-2.03,1.89Z"/>
      <path class="cls-17" d="M561.28,132.79c-.9,0-1.3-.42-1.3-1.11,0-.15,.03-.36,.06-.53l.88-4.43h-1.06l.24-1.22h.55c.55,0,.67-.21,.77-.71l.25-1.28h1.36l-.39,1.99h1.46l-.24,1.22h-1.47l-.97,4.85h1.42l-.24,1.22h-1.3Z"/>
    </g>
    <path class="cls-17" d="M567.51,122.74c0,.1-.01,.25-.04,.36-.17,.73-.73,1.78-1.58,2.41h-.67c.74-.63,1.15-1.27,1.39-1.85-.29-.04-.42-.2-.42-.42,0-.11,.03-.27,.06-.36,.07-.29,.21-.59,.7-.59,.38,0,.57,.17,.57,.45Zm2.55,0c0,.1-.01,.25-.04,.36-.17,.73-.73,1.78-1.58,2.41h-.67c.74-.63,1.15-1.27,1.39-1.85-.29-.04-.42-.2-.42-.42,0-.11,.03-.27,.06-.36,.07-.29,.21-.59,.7-.59,.38,0,.57,.17,.57,.45Z"/>
    <path class="cls-17" d="M272.82,175.6c0-.1,.01-.25,.04-.36,.17-.73,.73-1.78,1.58-2.41h.67c-.74,.63-1.15,1.28-1.39,1.85,.29,.04,.42,.2,.42,.42,0,.11-.03,.27-.06,.36-.07,.29-.21,.59-.7,.59-.38,0-.57-.17-.57-.45Zm2.55,0c0-.1,.01-.25,.04-.36,.17-.73,.73-1.78,1.58-2.41h.67c-.74,.63-1.15,1.28-1.39,1.85,.29,.04,.42,.2,.42,.42,0,.11-.03,.27-.06,.36-.07,.29-.21,.59-.7,.59-.38,0-.57-.17-.57-.45Z"/>
    <g>
      <path class="cls-17" d="M281.22,177.8l-.69-2.17h-.08l-1.51,7.56h-1.44l1.96-9.78h1.68l1.91,5.39,.69,2.17h.08l1.51-7.56h1.44l-1.96,9.78h-1.68l-1.91-5.39Z"/>
      <path class="cls-17" d="M287.31,180.35c0-2.52,1.55-4.61,3.75-4.61,1.64,0,2.75,1.06,2.75,3.01,0,2.52-1.55,4.61-3.75,4.61-1.64,0-2.75-1.06-2.75-3.01Zm4.76-.2l.24-1.16c.03-.15,.06-.35,.06-.55,0-.88-.49-1.47-1.41-1.47s-1.65,.69-1.91,1.97l-.24,1.16c-.03,.17-.06,.35-.06,.55,0,.88,.49,1.47,1.41,1.47s1.65-.69,1.91-1.97Z"/>
      <path class="cls-17" d="M296.55,183.19c-.9,0-1.3-.42-1.3-1.11,0-.15,.03-.37,.06-.53l.88-4.43h-1.06l.24-1.22h.55c.55,0,.67-.21,.77-.71l.25-1.28h1.36l-.39,1.99h1.46l-.24,1.22h-1.47l-.97,4.85h1.42l-.24,1.22h-1.3Z"/>
      <path class="cls-17" d="M302.89,180.31c0-2.55,1.5-4.57,3.7-4.57,1.33,0,2.26,.73,2.49,1.78l-1.22,.49c-.21-.66-.57-1.04-1.34-1.04-1.01,0-1.65,.67-1.88,1.83l-.24,1.21c-.04,.21-.07,.44-.07,.62,0,.88,.46,1.5,1.43,1.5,.71,0,1.18-.39,1.68-1.3l1.12,.53c-.62,1.3-1.62,2-2.94,2-1.62,0-2.73-1.05-2.73-3.05Z"/>
      <path class="cls-17" d="M310.86,183.19c-.7,0-1.09-.41-1.09-.98,0-.11,.01-.21,.04-.35l1.81-9.04h1.46l-1.83,9.15h1.01l-.24,1.22h-1.15Z"/>
      <path class="cls-17" d="M313.55,180.28c0-2.38,1.53-4.54,3.87-4.54,1.18,0,2.45,.56,2.45,1.99,0,1.54-1.5,2.38-4.83,2.45-.03,.18-.04,.35-.04,.46,0,.9,.49,1.48,1.54,1.48,.8,0,1.43-.35,2.03-1.09l.92,.77c-.91,1.13-1.92,1.55-3.05,1.55-1.88,0-2.89-1.13-2.89-3.08Zm1.72-1.48l-.07,.37c2.66-.11,3.22-.53,3.22-1.36,0-.73-.57-.9-1.12-.9-1.01,0-1.81,.74-2.03,1.89Z"/>
      <path class="cls-17" d="M326.21,183.19c-.66,0-1.06-.36-1.06-.95,0-.14,.01-.29,.04-.41l.06-.27h-.06c-.59,1.19-1.26,1.79-2.37,1.79-1.34,0-2.1-1.06-2.1-2.68,0-2.55,1.32-4.94,3.49-4.94,.94,0,1.71,.53,1.86,1.39h.07l.24-1.22h1.46l-1.22,6.06h.94l-.24,1.22h-1.11Zm-1.42-1.78c.41-.43,.67-.98,.8-1.62l.29-1.47c.13-.64-.42-1.33-1.4-1.33-1.08,0-1.74,.69-1.99,1.96l-.21,1.02c-.04,.22-.07,.53-.07,.76,0,.81,.39,1.39,1.16,1.39,.6,0,1.04-.29,1.41-.7Z"/>
      <path class="cls-17" d="M328.71,183.19l1.46-7.28h1.46l-.31,1.55h.08c.35-.74,1-1.55,2.16-1.55h.41l-.29,1.44h-.49c-1.29,0-1.98,.66-2.19,1.72l-.83,4.12h-1.46Z"/>
    </g>
    <g>
      <path class="cls-17" d="M337.98,176.02h.74l.41,6.33h.06l3.1-6.33h.77l.57,6.3h.06l2.96-6.3h.76l-3.4,7.17h-.94l-.56-6.01h-.06l-2.94,6.01h-.98l-.53-7.17Z"/>
      <path class="cls-17" d="M349.81,172.83h.77l-.92,4.64h.06c.52-1.08,1.23-1.61,2.33-1.61,1.22,0,1.85,.73,1.85,1.95,0,.27-.03,.6-.1,.92l-.76,3.78h1.09l-.13,.69h-1.05c-.41,0-.67-.18-.67-.6,0-.08,0-.14,.03-.27l.71-3.6c.06-.29,.08-.62,.08-.8,0-.91-.42-1.37-1.3-1.37-.56,0-1.08,.2-1.54,.69-.41,.44-.79,1.11-.92,1.79l-.83,4.16h-.77l2.07-10.37Z"/>
      <path class="cls-17" d="M360.94,183.19c-.48,0-.7-.25-.7-.63,0-.1,.01-.22,.04-.35l.11-.59h-.04c-.59,1.15-1.3,1.74-2.41,1.74-1.37,0-2.23-1.08-2.23-2.7,0-2.31,1.18-4.8,3.5-4.8,.99,0,1.78,.5,2.02,1.39h.04l.24-1.22h.77l-1.29,6.49h1.09l-.14,.69h-1.01Zm-1.3-1.19c.5-.45,.91-1.09,1.06-1.92l.34-1.67c.18-.91-.32-1.86-1.75-1.86-1.34,0-2.23,.95-2.55,2.52l-.17,.84c-.04,.27-.07,.52-.07,.83,0,1.08,.49,1.92,1.62,1.92,.6,0,1.06-.24,1.51-.66Z"/>
      <path class="cls-17" d="M364.76,183.19c-.52,0-.73-.25-.73-.63,0-.14,.01-.28,.04-.39l1.09-5.46h-1.18l.14-.69h.71c.42,0,.53-.15,.6-.56l.29-1.44h.73l-.41,2h1.6l-.14,.69h-1.58l-1.16,5.8h1.48l-.14,.69h-1.36Z"/>
    </g>
    <g>
      <path class="cls-17" d="M372.92,183.19c-.9,0-1.3-.42-1.3-1.11,0-.15,.03-.37,.06-.53l.88-4.43h-1.06l.24-1.22h.55c.55,0,.67-.21,.77-.71l.25-1.28h1.36l-.39,1.99h1.46l-.24,1.22h-1.47l-.97,4.85h1.42l-.24,1.22h-1.3Z"/>
      <path class="cls-17" d="M377.82,172.83h1.46l-.92,4.64h.07c.53-1.12,1.23-1.72,2.31-1.72,1.2,0,1.82,.73,1.82,1.96,0,.31-.04,.62-.11,.98l-.66,3.29h.88l-.24,1.22h-1.11c-.62,0-1.01-.32-1.01-.92,0-.11,.01-.25,.03-.34l.63-3.15c.06-.28,.08-.55,.08-.77,0-.64-.28-1.01-.95-1.01-.5,0-.92,.22-1.27,.62-.41,.45-.73,1.08-.84,1.65l-.78,3.92h-1.46l2.07-10.37Z"/>
      <path class="cls-17" d="M383.98,180.28c0-2.38,1.53-4.54,3.87-4.54,1.18,0,2.45,.56,2.45,1.99,0,1.54-1.5,2.38-4.83,2.45-.03,.18-.04,.35-.04,.46,0,.9,.49,1.48,1.54,1.48,.8,0,1.43-.35,2.03-1.09l.92,.77c-.91,1.13-1.92,1.55-3.05,1.55-1.88,0-2.89-1.13-2.89-3.08Zm1.72-1.48l-.07,.37c2.66-.11,3.22-.53,3.22-1.36,0-.73-.57-.9-1.12-.9-1.01,0-1.81,.74-2.03,1.89Z"/>
      <path class="cls-17" d="M396.32,172.83h1.46l-1.26,6.32h.08l1.16-1.23,2.14-2h1.72l-3.12,2.94,1.27,3.12h.88l-.24,1.22h-.8c-.66,0-1.04-.28-1.27-.91l-.99-2.49-1.21,1.13-.45,2.27h-1.46l2.07-10.37Z"/>
      <path class="cls-17" d="M401.69,183.19l1.46-7.28h1.46l-.31,1.55h.07c.53-1.12,1.23-1.72,2.31-1.72,1.2,0,1.82,.73,1.82,1.96,0,.31-.04,.62-.11,.98l-.66,3.29h.88l-.24,1.22h-1.11c-.62,0-1.01-.32-1.01-.92,0-.11,0-.17,.03-.34l.63-3.15c.06-.28,.08-.55,.08-.77,0-.64-.28-1.01-.95-1.01-.5,0-.92,.22-1.27,.62-.41,.45-.73,1.08-.84,1.65l-.78,3.92h-1.46Z"/>
      <path class="cls-17" d="M409.92,180.35c0-2.52,1.56-4.61,3.75-4.61,1.64,0,2.75,1.06,2.75,3.01,0,2.52-1.55,4.61-3.75,4.61-1.64,0-2.75-1.06-2.75-3.01Zm4.76-.2l.24-1.16c.03-.15,.06-.35,.06-.55,0-.88-.49-1.47-1.42-1.47s-1.65,.69-1.91,1.97l-.24,1.16c-.03,.17-.06,.35-.06,.55,0,.88,.49,1.47,1.42,1.47s1.65-.69,1.9-1.97Z"/>
      <path class="cls-17" d="M419.46,172.83h1.46l-.94,4.71h.06c.59-1.19,1.26-1.79,2.37-1.79,1.33,0,2.1,1.06,2.1,2.68,0,2.55-1.32,4.94-3.49,4.94-.94,0-1.71-.52-1.86-1.39h-.07l-.24,1.22h-1.46l2.07-10.37Zm3.26,7.33l.21-1.02c.04-.22,.07-.52,.07-.76,0-.81-.39-1.39-1.19-1.39-.57,0-1.02,.31-1.39,.7-.39,.42-.67,.95-.8,1.61l-.27,1.33c-.17,.83,.31,1.48,1.39,1.48s1.72-.69,1.97-1.96Z"/>
    </g>
    <g>
      <path class="cls-17" d="M429.86,183.19c-.48,0-.71-.25-.71-.64,0-.08,0-.15,.03-.28l1.26-6.25h.77l-1.3,6.49h1.09l-.14,.69h-.99Zm.91-9.51c0-.06,0-.11,.04-.31,.06-.28,.24-.45,.6-.45s.48,.18,.48,.39c0,.06,0,.11-.04,.31-.06,.28-.24,.45-.6,.45s-.48-.18-.48-.39Z"/>
      <path class="cls-17" d="M432.14,182.02l.55-.46c.52,.76,1.22,1.13,2.13,1.13,1.09,0,1.85-.55,1.85-1.55,0-.63-.34-.98-1.22-1.18l-.6-.14c-1.04-.22-1.81-.66-1.81-1.81,0-1.25,.94-2.16,2.54-2.16,1.13,0,1.82,.44,2.33,1.08l-.55,.48c-.35-.49-.87-.88-1.83-.88-1.11,0-1.72,.56-1.72,1.43,0,.64,.34,.98,1.19,1.18l.6,.14c1.08,.24,1.82,.67,1.82,1.82,0,1.43-1.12,2.27-2.59,2.27-1.13,0-2.1-.48-2.67-1.34Z"/>
      <path class="cls-17" d="M442.32,183.19l1.43-7.17h.78l-.32,1.5h.06c.43-.8,1.05-1.5,2.27-1.5h.45l-.15,.77h-.46c-1.36,0-2.2,.99-2.44,2.17l-.84,4.23h-.77Z"/>
      <path class="cls-17" d="M447.35,180.43c0-2.46,1.47-4.58,3.66-4.58,1.26,0,2.28,.64,2.28,1.85,0,1.32-1.22,2.27-5.11,2.32-.03,.18-.04,.45-.04,.6,0,1.33,.63,2.04,1.88,2.04,1.01,0,1.82-.55,2.38-1.39l.53,.42c-.83,1.19-1.86,1.65-2.96,1.65-1.67,0-2.62-.99-2.62-2.93Zm1-1.36l-.07,.34c3.53-.1,4.22-.74,4.22-1.72,0-.8-.62-1.16-1.57-1.16-1.3,0-2.27,1.04-2.58,2.55Z"/>
      <path class="cls-17" d="M456.36,186.17c-1.85,0-2.8-.59-2.8-1.62,0-.8,.53-1.39,1.47-1.68v-.08c-.36-.15-.56-.46-.56-.87,0-.69,.55-1.13,1.43-1.34v-.08c-.64-.32-1-.95-1-1.74,0-1.71,1.22-2.89,2.91-2.89,.56,0,1.05,.15,1.4,.39l.07-.41c.07-.45,.31-.71,.77-.71h1.13l-.13,.69h-1.32l-.14,.78c.27,.35,.41,.77,.41,1.26,0,1.7-1.23,2.87-2.94,2.87-.21,0-.39-.01-.59-.06-.83,.18-1.29,.49-1.29,1,0,.35,.25,.56,.94,.56h1.74c1.57,0,2.19,.59,2.19,1.58,0,1.36-1.04,2.35-3.7,2.35Zm1.46-3.21h-2.33c-.71,.25-1.15,.7-1.15,1.37,0,.76,.58,1.19,1.78,1.19h.57c1.65,0,2.56-.56,2.56-1.57,0-.62-.36-1-1.44-1Zm1.3-4.4c.08-.49,.11-.63,.11-.78,0-.76-.5-1.29-1.5-1.29-1.12,0-1.77,.63-1.93,1.55-.1,.49-.13,.64-.13,.79,0,.77,.5,1.29,1.5,1.29,1.12,0,1.76-.63,1.95-1.55Z"/>
      <path class="cls-17" d="M463.4,176.02l-.9,4.47c-.06,.28-.07,.62-.07,.8,0,.9,.39,1.37,1.27,1.37,.56,0,1.08-.2,1.53-.69,.43-.48,.79-1.13,.92-1.79l.83-4.16h.77l-1.29,6.49h1.08l-.13,.69h-1.02c-.46,0-.69-.25-.69-.64,0-.08,.01-.18,.04-.34l.08-.46h-.06c-.52,1.08-1.23,1.61-2.3,1.61-1.22,0-1.85-.73-1.85-1.95,0-.27,.04-.6,.1-.92l.9-4.47h.77Z"/>
      <path class="cls-17" d="M469.97,183.19c-.48,0-.71-.25-.71-.64,0-.08,0-.12,.03-.28l1.89-9.44h.77l-1.93,9.68h1.13l-.14,.69h-1.04Z"/>
      <path class="cls-17" d="M478.04,183.19c-.48,0-.7-.25-.7-.63,0-.1,.01-.22,.04-.35l.11-.59h-.04c-.59,1.15-1.3,1.74-2.41,1.74-1.37,0-2.23-1.08-2.23-2.7,0-2.31,1.18-4.8,3.5-4.8,.99,0,1.78,.5,2.02,1.39h.04l.24-1.22h.77l-1.29,6.49h1.09l-.14,.69h-1.01Zm-1.3-1.19c.5-.45,.91-1.09,1.06-1.92l.34-1.67c.18-.91-.32-1.86-1.75-1.86-1.34,0-2.23,.95-2.55,2.52l-.17,.84c-.04,.27-.07,.52-.07,.83,0,1.08,.49,1.92,1.62,1.92,.6,0,1.06-.24,1.51-.66Z"/>
      <path class="cls-17" d="M481.86,183.19c-.52,0-.73-.25-.73-.63,0-.14,.01-.28,.04-.39l1.09-5.46h-1.18l.14-.69h.71c.42,0,.53-.15,.6-.56l.29-1.44h.73l-.41,2h1.6l-.14,.69h-1.58l-1.16,5.8h1.48l-.14,.69h-1.36Z"/>
      <path class="cls-17" d="M485.97,183.19c-.48,0-.71-.25-.71-.64,0-.08,0-.15,.03-.28l1.26-6.25h.77l-1.3,6.49h1.09l-.14,.69h-.99Zm.91-9.51c0-.06,0-.11,.04-.31,.06-.28,.24-.45,.6-.45s.48,.18,.48,.39c0,.06,0,.11-.04,.31-.06,.28-.24,.45-.6,.45s-.48-.18-.48-.39Z"/>
      <path class="cls-17" d="M488.66,183.19l1.43-7.17h.78l-.29,1.44h.06c.52-1.08,1.23-1.61,2.33-1.61,1.22,0,1.85,.73,1.85,1.95,0,.27-.03,.6-.1,.92l-.76,3.78h1.09l-.14,.69h-1.04c-.42,0-.69-.2-.69-.59,0-.13,.03-.24,.06-.39l.7-3.49c.06-.29,.08-.62,.08-.8,0-.91-.42-1.37-1.3-1.37-.56,0-1.08,.2-1.54,.69-.41,.44-.79,1.11-.92,1.79l-.83,4.16h-.77Z"/>
      <path class="cls-17" d="M498.52,186.17c-1.85,0-2.8-.59-2.8-1.62,0-.8,.53-1.39,1.47-1.68v-.08c-.36-.15-.56-.46-.56-.87,0-.69,.55-1.13,1.43-1.34v-.08c-.64-.32-1-.95-1-1.74,0-1.71,1.22-2.89,2.91-2.89,.56,0,1.05,.15,1.4,.39l.07-.41c.07-.45,.31-.71,.77-.71h1.13l-.13,.69h-1.32l-.14,.78c.27,.35,.41,.77,.41,1.26,0,1.7-1.23,2.87-2.94,2.87-.21,0-.39-.01-.59-.06-.83,.18-1.29,.49-1.29,1,0,.35,.25,.56,.94,.56h1.74c1.57,0,2.19,.59,2.19,1.58,0,1.36-1.04,2.35-3.7,2.35Zm1.46-3.21h-2.33c-.71,.25-1.15,.7-1.15,1.37,0,.76,.58,1.19,1.78,1.19h.57c1.65,0,2.56-.56,2.56-1.57,0-.62-.36-1-1.44-1Zm1.3-4.4c.08-.49,.11-.63,.11-.78,0-.76-.5-1.29-1.5-1.29-1.12,0-1.77,.63-1.93,1.55-.1,.49-.13,.64-.13,.79,0,.77,.5,1.29,1.5,1.29,1.12,0,1.76-.63,1.95-1.55Z"/>
      <path class="cls-17" d="M506.9,180.43c0-2.46,1.47-4.58,3.66-4.58,1.26,0,2.28,.64,2.28,1.85,0,1.32-1.22,2.27-5.11,2.32-.03,.18-.04,.45-.04,.6,0,1.33,.63,2.04,1.88,2.04,1.01,0,1.82-.55,2.38-1.39l.53,.42c-.83,1.19-1.86,1.65-2.96,1.65-1.67,0-2.62-.99-2.62-2.93Zm1-1.36l-.07,.34c3.53-.1,4.22-.74,4.22-1.72,0-.8-.62-1.16-1.57-1.16-1.3,0-2.27,1.04-2.58,2.55Z"/>
      <path class="cls-17" d="M512.91,183.19l3.24-3.68-1.79-3.49h.83l1.5,2.97h.06l2.56-2.97h.91l-3.14,3.57,1.88,3.6h-.83l-1.58-3.1h-.06l-2.65,3.1h-.92Z"/>
      <path class="cls-17" d="M525.77,183.19c-.48,0-.7-.25-.7-.63,0-.1,.01-.22,.04-.35l.11-.59h-.04c-.59,1.15-1.3,1.74-2.41,1.74-1.37,0-2.23-1.08-2.23-2.7,0-2.31,1.18-4.8,3.5-4.8,.99,0,1.78,.5,2.02,1.39h.04l.24-1.22h.77l-1.29,6.49h1.09l-.14,.69h-1.01Zm-1.3-1.19c.5-.45,.91-1.09,1.06-1.92l.34-1.67c.18-.91-.32-1.86-1.75-1.86-1.34,0-2.23,.95-2.55,2.52l-.17,.84c-.04,.27-.07,.52-.07,.83,0,1.08,.49,1.92,1.62,1.92,.6,0,1.06-.24,1.51-.66Z"/>
      <path class="cls-17" d="M528.61,180.48c0-2.55,1.29-4.62,3.47-4.62,1.2,0,2.03,.69,2.27,1.67l-.64,.27c-.22-.81-.8-1.25-1.65-1.25-1.26,0-2.12,.91-2.4,2.37l-.2,.98c-.04,.27-.07,.49-.07,.73,0,1.18,.55,2.06,1.76,2.06,.85,0,1.51-.46,2.12-1.5l.62,.29c-.63,1.18-1.57,1.89-2.8,1.89-1.6,0-2.48-1.18-2.48-2.88Z"/>
      <path class="cls-17" d="M536.37,183.19c-.52,0-.73-.25-.73-.63,0-.14,.01-.28,.04-.39l1.09-5.46h-1.18l.14-.69h.71c.42,0,.53-.15,.6-.56l.29-1.44h.73l-.41,2h1.6l-.14,.69h-1.58l-1.16,5.8h1.48l-.14,.69h-1.36Z"/>
      <path class="cls-17" d="M540.49,183.19c-.48,0-.71-.25-.71-.64,0-.08,0-.12,.03-.28l1.89-9.44h.77l-1.93,9.68h1.13l-.14,.69h-1.04Z"/>
      <path class="cls-17" d="M548.72,176.02h.83l-5.1,9.13c-.34,.62-.6,.84-1.16,.84h-1.09l.14-.67h1.25l1.09-1.97-1.19-7.33h.76l.99,6.32h.06l3.43-6.32Z"/>
      <path class="cls-17" d="M550.27,182.35c0,.1-.01,.25-.04,.36-.17,.73-.73,1.78-1.58,2.41h-.67c.74-.63,1.15-1.28,1.39-1.85-.29-.04-.42-.2-.42-.42,0-.11,.03-.27,.06-.36,.07-.29,.21-.59,.7-.59,.38,0,.57,.17,.57,.45Z"/>
      <path class="cls-17" d="M556.1,180.56c0-2.49,1.39-4.71,3.64-4.71,1.5,0,2.49,1.05,2.49,2.8,0,2.49-1.39,4.71-3.64,4.71-1.5,0-2.49-1.05-2.49-2.8Zm5.11-.46l.17-.85c.06-.25,.07-.5,.07-.79,0-1.09-.59-1.92-1.81-1.92s-2.2,.94-2.52,2.58l-.17,.86c-.06,.25-.07,.5-.07,.78,0,1.09,.59,1.92,1.81,1.92s2.2-.94,2.52-2.58Z"/>
      <path class="cls-17" d="M563.57,183.19l1.43-7.17h.78l-.32,1.5h.06c.43-.8,1.05-1.5,2.27-1.5h.45l-.15,.77h-.46c-1.36,0-2.2,.99-2.44,2.17l-.84,4.23h-.77Z"/>
    </g>
    <g>
      <path class="cls-17" d="M271.93,192.82h.74l.41,6.33h.06l3.1-6.33h.77l.57,6.3h.06l2.96-6.3h.76l-3.4,7.17h-.94l-.56-6.01h-.06l-2.94,6.01h-.98l-.53-7.17Z"/>
      <path class="cls-17" d="M283.76,189.63h.77l-.92,4.63h.06c.52-1.08,1.23-1.61,2.33-1.61,1.22,0,1.85,.73,1.85,1.95,0,.27-.03,.6-.1,.92l-.76,3.78h1.09l-.13,.69h-1.05c-.41,0-.67-.18-.67-.6,0-.08,0-.14,.03-.27l.71-3.6c.06-.29,.08-.62,.08-.8,0-.91-.42-1.37-1.3-1.37-.56,0-1.08,.2-1.54,.69-.41,.43-.78,1.11-.92,1.79l-.83,4.16h-.77l2.07-10.37Z"/>
      <path class="cls-17" d="M294.99,192.82h.83l-5.1,9.13c-.34,.62-.6,.84-1.16,.84h-1.09l.14-.67h1.25l1.09-1.97-1.19-7.33h.76l.99,6.32h.06l3.43-6.32Z"/>
      <path class="cls-17" d="M300.19,200c-.48,0-.71-.25-.71-.64,0-.08,0-.15,.03-.28l1.26-6.25h.77l-1.3,6.48h1.09l-.14,.69h-1Zm.91-9.51c0-.06,0-.11,.04-.31,.06-.28,.24-.45,.6-.45s.48,.18,.48,.39c0,.05,0,.11-.04,.31-.06,.28-.24,.45-.6,.45s-.48-.18-.48-.39Z"/>
      <path class="cls-17" d="M304.02,200c-.52,0-.73-.25-.73-.63,0-.14,.01-.28,.04-.39l1.09-5.46h-1.18l.14-.69h.71c.42,0,.53-.15,.6-.56l.29-1.44h.73l-.41,2h1.6l-.14,.69h-1.58l-1.16,5.8h1.48l-.14,.69h-1.36Z"/>
      <path class="cls-17" d="M310.16,198.82l.55-.46c.52,.76,1.22,1.13,2.13,1.13,1.09,0,1.85-.55,1.85-1.56,0-.63-.34-.98-1.22-1.18l-.6-.14c-1.04-.22-1.81-.66-1.81-1.81,0-1.25,.94-2.16,2.54-2.16,1.13,0,1.82,.43,2.33,1.08l-.55,.48c-.35-.49-.87-.88-1.83-.88-1.11,0-1.72,.56-1.72,1.43,0,.64,.34,.98,1.19,1.18l.6,.14c1.08,.24,1.82,.67,1.82,1.82,0,1.43-1.12,2.27-2.59,2.27-1.13,0-2.1-.48-2.67-1.35Z"/>
      <path class="cls-17" d="M317.93,200c-.52,0-.73-.25-.73-.63,0-.14,.01-.28,.04-.39l1.09-5.46h-1.18l.14-.69h.71c.42,0,.53-.15,.6-.56l.29-1.44h.73l-.41,2h1.6l-.14,.69h-1.58l-1.16,5.8h1.48l-.14,.69h-1.36Z"/>
      <path class="cls-17" d="M326.52,200c-.48,0-.7-.25-.7-.63,0-.1,.01-.22,.04-.35l.11-.59h-.04c-.59,1.15-1.3,1.74-2.41,1.74-1.37,0-2.23-1.08-2.23-2.7,0-2.31,1.18-4.8,3.5-4.8,.99,0,1.78,.5,2.02,1.39h.04l.24-1.22h.77l-1.29,6.48h1.09l-.14,.69h-1.01Zm-1.3-1.19c.5-.45,.91-1.09,1.06-1.92l.34-1.67c.18-.91-.32-1.86-1.75-1.86-1.34,0-2.23,.95-2.55,2.52l-.17,.84c-.04,.27-.07,.52-.07,.83,0,1.08,.49,1.92,1.62,1.92,.6,0,1.06-.24,1.51-.66Z"/>
      <path class="cls-17" d="M329.2,200l1.43-7.17h.78l-.32,1.5h.06c.43-.8,1.05-1.5,2.27-1.5h.45l-.15,.77h-.46c-1.36,0-2.2,.99-2.44,2.17l-.84,4.23h-.77Z"/>
      <path class="cls-17" d="M335.32,200c-.52,0-.73-.25-.73-.63,0-.14,.01-.28,.04-.39l1.09-5.46h-1.18l.14-.69h.71c.42,0,.53-.15,.6-.56l.29-1.44h.73l-.41,2h1.6l-.14,.69h-1.58l-1.16,5.8h1.48l-.14,.69h-1.36Z"/>
      <path class="cls-17" d="M338.16,198.82l.55-.46c.52,.76,1.22,1.13,2.13,1.13,1.09,0,1.85-.55,1.85-1.56,0-.63-.34-.98-1.22-1.18l-.6-.14c-1.04-.22-1.81-.66-1.81-1.81,0-1.25,.94-2.16,2.54-2.16,1.13,0,1.82,.43,2.33,1.08l-.55,.48c-.35-.49-.87-.88-1.83-.88-1.11,0-1.72,.56-1.72,1.43,0,.64,.34,.98,1.19,1.18l.6,.14c1.08,.24,1.82,.67,1.82,1.82,0,1.43-1.12,2.27-2.59,2.27-1.13,0-2.1-.48-2.67-1.35Z"/>
      <path class="cls-17" d="M353.73,200c-.48,0-.7-.25-.7-.63,0-.1,.01-.22,.04-.35l.11-.59h-.04c-.59,1.15-1.3,1.74-2.41,1.74-1.37,0-2.23-1.08-2.23-2.7,0-2.31,1.18-4.8,3.5-4.8,.99,0,1.78,.5,2.02,1.39h.04l.24-1.22h.77l-1.29,6.48h1.09l-.14,.69h-1.01Zm-1.3-1.19c.5-.45,.91-1.09,1.06-1.92l.34-1.67c.18-.91-.32-1.86-1.75-1.86-1.34,0-2.23,.95-2.55,2.52l-.17,.84c-.04,.27-.07,.52-.07,.83,0,1.08,.49,1.92,1.62,1.92,.6,0,1.06-.24,1.51-.66Z"/>
      <path class="cls-17" d="M356.42,200l1.43-7.17h.78l-.29,1.44h.06c.52-1.08,1.23-1.61,2.33-1.61,1.22,0,1.85,.73,1.85,1.95,0,.27-.03,.6-.1,.92l-.76,3.78h1.09l-.14,.69h-1.04c-.42,0-.69-.2-.69-.59,0-.13,.03-.24,.06-.39l.7-3.49c.06-.29,.08-.62,.08-.8,0-.91-.42-1.37-1.3-1.37-.56,0-1.08,.2-1.54,.69-.41,.43-.79,1.11-.92,1.79l-.83,4.16h-.77Z"/>
      <path class="cls-17" d="M369.62,200c-.48,0-.7-.25-.7-.63,0-.1,.01-.21,.04-.35l.11-.59h-.04c-.59,1.15-1.3,1.74-2.41,1.74-1.37,0-2.23-1.08-2.23-2.7,0-2.31,1.18-4.8,3.5-4.8,.99,0,1.78,.5,2.02,1.39h.04l.88-4.41h.77l-1.93,9.68h1.09l-.14,.69h-1.01Zm-1.3-1.19c.5-.45,.91-1.09,1.06-1.92l.34-1.67c.18-.91-.32-1.86-1.75-1.86-1.34,0-2.23,.95-2.55,2.52l-.17,.84c-.04,.27-.07,.52-.07,.83,0,1.08,.49,1.92,1.62,1.92,.6,0,1.06-.24,1.51-.66Z"/>
      <path class="cls-17" d="M375.2,198.82l.55-.46c.52,.76,1.22,1.13,2.13,1.13,1.09,0,1.85-.55,1.85-1.56,0-.63-.34-.98-1.22-1.18l-.6-.14c-1.04-.22-1.81-.66-1.81-1.81,0-1.25,.94-2.16,2.54-2.16,1.13,0,1.82,.43,2.33,1.08l-.55,.48c-.35-.49-.87-.88-1.83-.88-1.11,0-1.72,.56-1.72,1.43,0,.64,.34,.98,1.19,1.18l.6,.14c1.08,.24,1.82,.67,1.82,1.82,0,1.43-1.12,2.27-2.59,2.27-1.13,0-2.1-.48-2.67-1.35Z"/>
      <path class="cls-17" d="M382.99,200c-.52,0-.73-.25-.73-.63,0-.14,.01-.28,.04-.39l1.09-5.46h-1.18l.14-.69h.71c.42,0,.53-.15,.6-.56l.29-1.44h.73l-.41,2h1.6l-.14,.69h-1.58l-1.16,5.8h1.48l-.14,.69h-1.36Z"/>
      <path class="cls-17" d="M386.33,197.36c0-2.49,1.39-4.71,3.64-4.71,1.5,0,2.49,1.05,2.49,2.8,0,2.49-1.39,4.71-3.64,4.71-1.5,0-2.49-1.05-2.49-2.8Zm5.11-.46l.17-.86c.06-.25,.07-.5,.07-.78,0-1.09-.59-1.92-1.81-1.92s-2.2,.94-2.52,2.58l-.17,.85c-.06,.25-.07,.5-.07,.79,0,1.09,.59,1.92,1.81,1.92s2.2-.94,2.52-2.58Z"/>
      <path class="cls-17" d="M395.24,192.82h.77l-.32,1.57h.04c.59-1.15,1.3-1.74,2.41-1.74,1.37,0,2.23,1.08,2.23,2.7,0,2.31-1.18,4.8-3.5,4.8-1,0-1.78-.5-2.02-1.39h-.04l-.8,4.02h-.77l2-9.97Zm4.1,4.12l.17-.84c.04-.27,.07-.52,.07-.83,0-1.08-.49-1.92-1.62-1.92-.6,0-1.07,.24-1.51,.66-.5,.45-.91,1.09-1.06,1.92l-.34,1.67c-.18,.91,.32,1.86,1.75,1.86,1.34,0,2.23-.95,2.55-2.52Z"/>
      <path class="cls-17" d="M401.33,198.82l.55-.46c.52,.76,1.22,1.13,2.13,1.13,1.09,0,1.85-.55,1.85-1.56,0-.63-.34-.98-1.22-1.18l-.6-.14c-1.04-.22-1.81-.66-1.81-1.81,0-1.25,.94-2.16,2.54-2.16,1.13,0,1.82,.43,2.33,1.08l-.55,.48c-.35-.49-.87-.88-1.83-.88-1.11,0-1.72,.56-1.72,1.43,0,.64,.34,.98,1.19,1.18l.6,.14c1.08,.24,1.82,.67,1.82,1.82,0,1.43-1.12,2.27-2.59,2.27-1.13,0-2.1-.48-2.67-1.35Z"/>
      <path class="cls-17" d="M416.9,200c-.48,0-.7-.25-.7-.63,0-.1,.01-.22,.04-.35l.11-.59h-.04c-.59,1.15-1.3,1.74-2.41,1.74-1.37,0-2.23-1.08-2.23-2.7,0-2.31,1.18-4.8,3.5-4.8,.99,0,1.78,.5,2.02,1.39h.04l.24-1.22h.77l-1.29,6.48h1.09l-.14,.69h-1.01Zm-1.3-1.19c.5-.45,.91-1.09,1.06-1.92l.34-1.67c.18-.91-.32-1.86-1.75-1.86-1.34,0-2.23,.95-2.55,2.52l-.17,.84c-.04,.27-.07,.52-.07,.83,0,1.08,.49,1.92,1.62,1.92,.6,0,1.06-.24,1.51-.66Z"/>
      <path class="cls-17" d="M421.68,192.82l-.9,4.47c-.06,.28-.07,.62-.07,.8,0,.9,.39,1.37,1.27,1.37,.56,0,1.08-.2,1.53-.69,.43-.48,.79-1.13,.92-1.79l.83-4.16h.77l-1.29,6.48h1.08l-.13,.69h-1.02c-.46,0-.69-.25-.69-.64,0-.08,.01-.18,.04-.34l.08-.46h-.06c-.52,1.08-1.23,1.61-2.3,1.61-1.22,0-1.85-.73-1.85-1.95,0-.27,.04-.6,.1-.92l.9-4.47h.77Z"/>
      <path class="cls-17" d="M428.52,200c-.52,0-.73-.25-.73-.63,0-.14,.01-.28,.04-.39l1.09-5.46h-1.18l.14-.69h.71c.42,0,.53-.15,.6-.56l.29-1.44h.73l-.41,2h1.6l-.14,.69h-1.58l-1.16,5.8h1.48l-.14,.69h-1.36Z"/>
      <path class="cls-17" d="M431.85,197.36c0-2.49,1.39-4.71,3.64-4.71,1.5,0,2.49,1.05,2.49,2.8,0,2.49-1.39,4.71-3.64,4.71-1.5,0-2.49-1.05-2.49-2.8Zm5.11-.46l.17-.86c.06-.25,.07-.5,.07-.78,0-1.09-.59-1.92-1.81-1.92s-2.2,.94-2.52,2.58l-.17,.85c-.06,.25-.07,.5-.07,.79,0,1.09,.59,1.92,1.81,1.92s2.2-.94,2.52-2.58Z"/>
      <path class="cls-17" d="M439.32,200l1.43-7.17h.78l-.29,1.44h.06c.5-1.04,1.19-1.61,2.27-1.61s1.64,.67,1.71,1.65h.07c.49-1.06,1.26-1.65,2.35-1.65,1.19,0,1.81,.71,1.81,1.93,0,.28-.03,.6-.1,.93l-.76,3.79h1.09l-.14,.69h-1.04c-.42,0-.69-.2-.69-.59,0-.13,.03-.24,.06-.39l.7-3.49c.06-.29,.08-.62,.08-.83,0-.88-.41-1.35-1.26-1.35-.52,0-1.02,.21-1.46,.69-.41,.45-.73,1.08-.85,1.75l-.85,4.2h-.77l.9-4.47c.06-.29,.1-.62,.1-.84,0-.87-.41-1.33-1.2-1.33-.53,0-1.04,.24-1.44,.69-.45,.46-.81,1.15-.95,1.79l-.83,4.16h-.77Z"/>
      <path class="cls-17" d="M456.56,200c-.48,0-.7-.25-.7-.63,0-.1,.01-.22,.04-.35l.11-.59h-.04c-.59,1.15-1.3,1.74-2.41,1.74-1.37,0-2.23-1.08-2.23-2.7,0-2.31,1.18-4.8,3.5-4.8,.99,0,1.78,.5,2.02,1.39h.04l.24-1.22h.77l-1.29,6.48h1.09l-.14,.69h-1.01Zm-1.3-1.19c.5-.45,.91-1.09,1.06-1.92l.34-1.67c.18-.91-.32-1.86-1.75-1.86-1.34,0-2.23,.95-2.55,2.52l-.17,.84c-.04,.27-.07,.52-.07,.83,0,1.08,.49,1.92,1.62,1.92,.6,0,1.06-.24,1.51-.66Z"/>
      <path class="cls-17" d="M460.38,200c-.52,0-.73-.25-.73-.63,0-.14,.01-.28,.04-.39l1.09-5.46h-1.18l.14-.69h.71c.42,0,.53-.15,.6-.56l.29-1.44h.73l-.41,2h1.6l-.14,.69h-1.58l-1.16,5.8h1.48l-.14,.69h-1.36Z"/>
      <path class="cls-17" d="M464.49,200c-.48,0-.71-.25-.71-.64,0-.08,0-.15,.03-.28l1.26-6.25h.77l-1.3,6.48h1.09l-.14,.69h-1Zm.91-9.51c0-.06,0-.11,.04-.31,.06-.28,.24-.45,.6-.45s.48,.18,.48,.39c0,.05,0,.11-.04,.31-.06,.28-.24,.45-.6,.45s-.48-.18-.48-.39Z"/>
      <path class="cls-17" d="M467.34,197.28c0-2.55,1.29-4.62,3.47-4.62,1.2,0,2.03,.69,2.27,1.67l-.64,.27c-.22-.81-.8-1.25-1.65-1.25-1.26,0-2.12,.91-2.4,2.37l-.2,.98c-.04,.27-.07,.49-.07,.73,0,1.18,.55,2.06,1.76,2.06,.85,0,1.51-.46,2.12-1.5l.62,.29c-.63,1.18-1.57,1.89-2.8,1.89-1.6,0-2.48-1.18-2.48-2.89Z"/>
      <path class="cls-17" d="M479.27,200c-.48,0-.7-.25-.7-.63,0-.1,.01-.22,.04-.35l.11-.59h-.04c-.59,1.15-1.3,1.74-2.41,1.74-1.37,0-2.23-1.08-2.23-2.7,0-2.31,1.18-4.8,3.5-4.8,.99,0,1.78,.5,2.02,1.39h.04l.24-1.22h.77l-1.29,6.48h1.09l-.14,.69h-1.01Zm-1.3-1.19c.5-.45,.91-1.09,1.06-1.92l.34-1.67c.18-.91-.32-1.86-1.75-1.86-1.34,0-2.23,.95-2.55,2.52l-.17,.84c-.04,.27-.07,.52-.07,.83,0,1.08,.49,1.92,1.62,1.92,.6,0,1.06-.24,1.51-.66Z"/>
      <path class="cls-17" d="M482.82,200c-.48,0-.71-.25-.71-.64,0-.08,0-.13,.03-.28l1.89-9.44h.77l-1.93,9.68h1.13l-.14,.69h-1.04Z"/>
      <path class="cls-17" d="M486.32,200c-.48,0-.71-.25-.71-.64,0-.08,0-.13,.03-.28l1.89-9.44h.77l-1.93,9.68h1.13l-.14,.69h-1.04Z"/>
      <path class="cls-17" d="M494.55,192.82h.83l-5.1,9.13c-.34,.62-.6,.84-1.16,.84h-1.09l.14-.67h1.25l1.09-1.97-1.19-7.33h.76l.99,6.32h.06l3.43-6.32Z"/>
      <path class="cls-17" d="M499.23,189.94c0,.1-.01,.25-.04,.37-.17,.73-.73,1.78-1.58,2.41h-.67c.74-.63,1.15-1.27,1.39-1.85-.29-.04-.42-.2-.42-.42,0-.11,.03-.27,.06-.37,.07-.29,.21-.59,.7-.59,.38,0,.57,.17,.57,.45Zm2.55,0c0,.1-.01,.25-.04,.37-.17,.73-.73,1.78-1.58,2.41h-.67c.74-.63,1.15-1.27,1.39-1.85-.29-.04-.42-.2-.42-.42,0-.11,.03-.27,.06-.37,.07-.29,.21-.59,.7-.59,.38,0,.57,.17,.57,.45Z"/>
    </g>
    <g>
      <path class="cls-17" d="M272.82,242.8c0-.1,.01-.25,.04-.36,.17-.73,.73-1.78,1.58-2.41h.67c-.74,.63-1.15,1.28-1.39,1.85,.29,.04,.42,.2,.42,.42,0,.11-.03,.27-.06,.36-.07,.29-.21,.59-.7,.59-.38,0-.57-.17-.57-.45Zm2.55,0c0-.1,.01-.25,.04-.36,.17-.73,.73-1.78,1.58-2.41h.67c-.74,.63-1.15,1.28-1.39,1.85,.29,.04,.42,.2,.42,.42,0,.11-.03,.27-.06,.36-.07,.29-.21,.59-.7,.59-.38,0-.57-.17-.57-.45Z"/>
      <path class="cls-17" d="M277.2,250.39l.14-.7h1.39l1.67-8.38h-1.37l.14-.7h3.57l-.14,.7h-1.39l-1.67,8.38h1.37l-.14,.7h-3.57Z"/>
      <path class="cls-17" d="M291.67,250.39c-.48,0-.7-.25-.7-.63,0-.1,.01-.21,.04-.35l.11-.59h-.04c-.59,1.15-1.3,1.74-2.41,1.74-1.37,0-2.23-1.08-2.23-2.7,0-2.31,1.18-4.8,3.5-4.8,.99,0,1.78,.5,2.02,1.39h.04l.88-4.41h.77l-1.93,9.68h1.09l-.14,.69h-1.01Zm-1.3-1.19c.5-.45,.91-1.09,1.06-1.92l.34-1.67c.18-.91-.32-1.86-1.75-1.86-1.34,0-2.23,.95-2.55,2.52l-.17,.84c-.04,.27-.07,.52-.07,.83,0,1.08,.49,1.92,1.62,1.92,.6,0,1.06-.24,1.51-.66Z"/>
      <path class="cls-17" d="M294.49,247.76c0-2.49,1.39-4.71,3.64-4.71,1.5,0,2.49,1.05,2.49,2.8,0,2.49-1.39,4.71-3.64,4.71-1.5,0-2.49-1.05-2.49-2.8Zm5.11-.46l.17-.85c.06-.25,.07-.5,.07-.79,0-1.09-.59-1.92-1.81-1.92s-2.2,.94-2.52,2.58l-.17,.86c-.06,.25-.07,.5-.07,.78,0,1.09,.59,1.92,1.81,1.92s2.2-.94,2.52-2.58Z"/>
      <path class="cls-17" d="M301.97,250.39l1.43-7.17h.78l-.29,1.44h.06c.52-1.08,1.23-1.61,2.33-1.61,1.22,0,1.85,.73,1.85,1.95,0,.27-.03,.6-.1,.92l-.76,3.78h1.09l-.14,.69h-1.04c-.42,0-.69-.2-.69-.59,0-.13,.03-.24,.06-.39l.7-3.49c.06-.29,.08-.62,.08-.8,0-.91-.42-1.37-1.3-1.37-.56,0-1.08,.2-1.54,.69-.41,.44-.79,1.11-.92,1.79l-.83,4.16h-.77Z"/>
      <path class="cls-17" d="M310.92,250.39c-.52,0-.73-.25-.73-.63,0-.14,.01-.28,.04-.39l1.09-5.46h-1.18l.14-.69h.71c.42,0,.53-.15,.6-.56l.29-1.44h.73l-.41,2h1.6l-.14,.69h-1.58l-1.16,5.8h1.48l-.14,.69h-1.36Z"/>
      <path class="cls-17" d="M317.94,243.22h.74l.41,6.33h.06l3.1-6.33h.77l.57,6.3h.06l2.96-6.3h.76l-3.4,7.17h-.94l-.56-6.01h-.06l-2.94,6.01h-.98l-.53-7.17Z"/>
      <path class="cls-17" d="M332.9,250.39c-.48,0-.7-.25-.7-.63,0-.1,.01-.22,.04-.35l.11-.59h-.04c-.59,1.15-1.3,1.74-2.41,1.74-1.37,0-2.23-1.08-2.23-2.7,0-2.31,1.18-4.8,3.5-4.8,.99,0,1.78,.5,2.02,1.39h.04l.24-1.22h.77l-1.29,6.49h1.09l-.14,.69h-1.01Zm-1.3-1.19c.5-.45,.91-1.09,1.06-1.92l.34-1.67c.18-.91-.32-1.86-1.75-1.86-1.34,0-2.23,.95-2.55,2.52l-.17,.84c-.04,.27-.07,.52-.07,.83,0,1.08,.49,1.92,1.62,1.92,.6,0,1.06-.24,1.51-.66Z"/>
      <path class="cls-17" d="M335.58,250.39l1.43-7.17h.78l-.29,1.44h.06c.52-1.08,1.23-1.61,2.33-1.61,1.22,0,1.85,.73,1.85,1.95,0,.27-.03,.6-.1,.92l-.76,3.78h1.09l-.14,.69h-1.04c-.42,0-.69-.2-.69-.59,0-.13,.03-.24,.06-.39l.7-3.49c.06-.29,.08-.62,.08-.8,0-.91-.42-1.37-1.3-1.37-.56,0-1.08,.2-1.54,.69-.41,.44-.79,1.11-.92,1.79l-.83,4.16h-.77Z"/>
      <path class="cls-17" d="M344.53,250.39c-.52,0-.73-.25-.73-.63,0-.14,.01-.28,.04-.39l1.09-5.46h-1.18l.14-.69h.71c.42,0,.53-.15,.6-.56l.29-1.44h.73l-.41,2h1.6l-.14,.69h-1.58l-1.16,5.8h1.48l-.14,.69h-1.36Z"/>
      <path class="cls-17" d="M352.22,250.39c-.52,0-.73-.25-.73-.63,0-.14,.01-.28,.04-.39l1.09-5.46h-1.18l.14-.69h.71c.42,0,.53-.15,.6-.56l.29-1.44h.73l-.41,2h1.6l-.14,.69h-1.58l-1.16,5.8h1.48l-.14,.69h-1.36Z"/>
      <path class="cls-17" d="M355.56,247.76c0-2.49,1.39-4.71,3.64-4.71,1.5,0,2.49,1.05,2.49,2.8,0,2.49-1.39,4.71-3.64,4.71-1.5,0-2.49-1.05-2.49-2.8Zm5.11-.46l.17-.85c.06-.25,.07-.5,.07-.79,0-1.09-.59-1.92-1.81-1.92s-2.2,.94-2.52,2.58l-.17,.86c-.06,.25-.07,.5-.07,.78,0,1.09,.59,1.92,1.81,1.92s2.2-.94,2.52-2.58Z"/>
    </g>
    <g>
      <path class="cls-17" d="M366.66,243.11h1.43l.11,3.15,.07,2.61h.07l1.02-2.27,1.61-3.49h1.39l.25,3.22,.17,2.54h.07l.98-2.34,1.48-3.42h1.43l-3.32,7.28h-1.62l-.29-3.29-.14-2.1h-.07l-.88,1.97-1.61,3.42h-1.68l-.46-7.28Z"/>
      <path class="cls-17" d="M376.78,247.55c0-2.52,1.56-4.61,3.75-4.61,1.64,0,2.75,1.06,2.75,3.01,0,2.52-1.55,4.61-3.75,4.61-1.64,0-2.75-1.06-2.75-3.01Zm4.76-.2l.24-1.16c.03-.15,.06-.35,.06-.55,0-.88-.49-1.47-1.42-1.47s-1.65,.69-1.91,1.97l-.24,1.16c-.03,.17-.06,.35-.06,.55,0,.88,.49,1.47,1.42,1.47s1.65-.69,1.9-1.97Z"/>
      <path class="cls-17" d="M384.25,250.39l1.46-7.28h1.46l-.31,1.55h.08c.35-.74,1-1.55,2.16-1.55h.41l-.29,1.44h-.49c-1.29,0-1.98,.66-2.19,1.72l-.83,4.12h-1.46Z"/>
      <path class="cls-17" d="M389.52,250.39l1.46-7.28h1.46l-.31,1.55h.08c.35-.74,1-1.55,2.16-1.55h.41l-.29,1.44h-.49c-1.29,0-1.98,.66-2.19,1.72l-.83,4.12h-1.46Z"/>
      <path class="cls-17" d="M400.57,243.11h1.55l-4.73,8.73c-.5,.95-.98,1.36-2,1.36h-1.11l.24-1.21h1.33l.69-1.29-1.11-7.59h1.43l.43,3.24,.27,2.67h.07l1.27-2.67,1.67-3.24Z"/>
    </g>
    <g>
      <path class="cls-17" d="M410.85,250.39c-.48,0-.7-.25-.7-.63,0-.1,.01-.22,.04-.35l.11-.59h-.04c-.59,1.15-1.3,1.74-2.41,1.74-1.37,0-2.23-1.08-2.23-2.7,0-2.31,1.18-4.8,3.5-4.8,.99,0,1.78,.5,2.02,1.39h.04l.24-1.22h.77l-1.29,6.49h1.09l-.14,.69h-1.01Zm-1.3-1.19c.5-.45,.91-1.09,1.06-1.92l.34-1.67c.18-.91-.32-1.86-1.75-1.86-1.34,0-2.23,.95-2.55,2.52l-.17,.84c-.04,.27-.07,.52-.07,.83,0,1.08,.49,1.92,1.62,1.92,.6,0,1.06-.24,1.51-.66Z"/>
      <path class="cls-17" d="M415.58,240.03h.77l-.95,4.76h.04c.59-1.15,1.3-1.74,2.41-1.74,1.37,0,2.23,1.08,2.23,2.7,0,2.31-1.18,4.8-3.5,4.8-.99,0-1.78-.5-2.02-1.39h-.04l-.24,1.22h-.77l2.07-10.37Zm3.47,7.31l.17-.84c.04-.27,.07-.52,.07-.83,0-1.08-.49-1.92-1.62-1.92-.6,0-1.06,.24-1.51,.66-.5,.45-.91,1.09-1.06,1.92l-.34,1.67c-.18,.91,.32,1.86,1.75,1.86,1.34,0,2.23-.95,2.55-2.52Z"/>
      <path class="cls-17" d="M421.56,247.76c0-2.49,1.39-4.71,3.64-4.71,1.5,0,2.49,1.05,2.49,2.8,0,2.49-1.39,4.71-3.64,4.71-1.5,0-2.49-1.05-2.49-2.8Zm5.11-.46l.17-.85c.06-.25,.07-.5,.07-.79,0-1.09-.59-1.92-1.81-1.92s-2.2,.94-2.52,2.58l-.17,.86c-.06,.25-.07,.5-.07,.78,0,1.09,.59,1.92,1.81,1.92s2.2-.94,2.52-2.58Z"/>
      <path class="cls-17" d="M431.13,243.22l-.9,4.47c-.06,.28-.07,.62-.07,.8,0,.9,.39,1.37,1.27,1.37,.56,0,1.08-.2,1.53-.69,.43-.48,.79-1.13,.92-1.79l.83-4.16h.77l-1.29,6.49h1.08l-.13,.69h-1.02c-.46,0-.69-.25-.69-.64,0-.08,.01-.18,.04-.34l.08-.46h-.06c-.52,1.08-1.23,1.61-2.3,1.61-1.22,0-1.85-.73-1.85-1.95,0-.27,.04-.6,.1-.92l.9-4.47h.77Z"/>
      <path class="cls-17" d="M437.97,250.39c-.52,0-.73-.25-.73-.63,0-.14,.01-.28,.04-.39l1.09-5.46h-1.18l.14-.69h.71c.42,0,.53-.15,.6-.56l.29-1.44h.73l-.41,2h1.6l-.14,.69h-1.58l-1.16,5.8h1.48l-.14,.69h-1.36Z"/>
    </g>
    <g>
      <path class="cls-17" d="M444.29,250.39l1.46-7.28h1.46l-.31,1.55h.07c.53-1.11,1.19-1.72,2.27-1.72s1.62,.64,1.69,1.72h.07c.52-1.09,1.23-1.72,2.34-1.72,1.16,0,1.77,.73,1.77,1.93,0,.35-.04,.7-.13,1.09l-.64,3.21h.88l-.24,1.22h-1.11c-.63,0-1.02-.32-1.02-.91,0-.12,.01-.24,.04-.35l.63-3.17c.06-.28,.1-.55,.1-.77,0-.63-.28-.99-.9-.99-.45,0-.84,.22-1.19,.62-.41,.45-.7,1.09-.81,1.65l-.78,3.92h-1.46l.88-4.41c.06-.28,.1-.56,.1-.8,0-.62-.27-.98-.85-.98-.49,0-.9,.25-1.22,.62-.42,.48-.74,1.09-.85,1.65l-.78,3.92h-1.46Z"/>
      <path class="cls-17" d="M461.8,243.11h1.55l-4.73,8.73c-.5,.95-.98,1.36-2,1.36h-1.11l.24-1.21h1.33l.69-1.29-1.11-7.59h1.43l.43,3.24,.27,2.67h.07l1.27-2.67,1.67-3.24Z"/>
      <path class="cls-17" d="M466.66,247.51c0-2.55,1.5-4.57,3.7-4.57,1.33,0,2.26,.73,2.49,1.78l-1.22,.49c-.21-.66-.57-1.04-1.34-1.04-1.01,0-1.65,.67-1.88,1.83l-.24,1.21c-.04,.21-.07,.44-.07,.62,0,.88,.46,1.5,1.43,1.5,.71,0,1.18-.39,1.68-1.3l1.12,.53c-.62,1.3-1.62,2-2.94,2-1.62,0-2.73-1.05-2.73-3.05Z"/>
      <path class="cls-17" d="M473.45,247.55c0-2.52,1.56-4.61,3.75-4.61,1.64,0,2.75,1.06,2.75,3.01,0,2.52-1.55,4.61-3.75,4.61-1.64,0-2.75-1.06-2.75-3.01Zm4.76-.2l.24-1.16c.03-.15,.06-.35,.06-.55,0-.88-.49-1.47-1.42-1.47s-1.65,.69-1.91,1.97l-.24,1.16c-.03,.17-.06,.35-.06,.55,0,.88,.49,1.47,1.42,1.47s1.65-.69,1.9-1.97Z"/>
      <path class="cls-17" d="M480.92,250.39l1.46-7.28h1.46l-.31,1.55h.07c.53-1.12,1.23-1.72,2.31-1.72,1.2,0,1.82,.73,1.82,1.96,0,.31-.04,.62-.11,.98l-.66,3.29h.88l-.24,1.22h-1.11c-.62,0-1.01-.32-1.01-.92,0-.11,0-.17,.03-.34l.63-3.15c.06-.28,.08-.55,.08-.77,0-.64-.28-1.01-.95-1.01-.5,0-.92,.22-1.27,.62-.41,.45-.73,1.08-.84,1.65l-.78,3.92h-1.46Z"/>
      <path class="cls-17" d="M488.69,249.26l.95-.87c.46,.62,1.05,.97,1.89,.97,.92,0,1.47-.45,1.47-1.13,0-.39-.2-.7-.9-.83l-.63-.11c-1.16-.2-1.95-.73-1.95-1.9,0-1.29,.91-2.44,2.83-2.44,1.11,0,1.93,.38,2.52,1.11l-.95,.87c-.34-.45-.88-.77-1.65-.77-.88,0-1.33,.43-1.33,1.05,0,.41,.21,.7,.9,.83l.63,.1c1.2,.21,1.95,.76,1.95,1.93,0,1.44-1.12,2.51-2.91,2.51-1.15,0-2.21-.46-2.82-1.3Z"/>
      <path class="cls-17" d="M498.52,243.11l-.88,4.43c-.06,.27-.08,.55-.08,.74,0,.66,.27,1.02,.91,1.02,.49,0,.9-.22,1.25-.62,.43-.48,.73-1.11,.84-1.68l.78-3.89h1.46l-1.22,6.06h.94l-.24,1.22h-1.12c-.64,0-1.04-.38-1.04-.97,0-.12,.01-.27,.04-.42l.03-.17h-.07c-.53,1.12-1.22,1.72-2.25,1.72-1.19,0-1.81-.73-1.81-1.96,0-.31,.04-.63,.11-.99l.9-4.5h1.46Z"/>
      <path class="cls-17" d="M503.67,250.39l1.46-7.28h1.46l-.31,1.55h.07c.53-1.11,1.19-1.72,2.27-1.72s1.62,.64,1.69,1.72h.07c.52-1.09,1.23-1.72,2.34-1.72,1.16,0,1.77,.73,1.77,1.93,0,.35-.04,.7-.13,1.09l-.64,3.21h.88l-.24,1.22h-1.11c-.63,0-1.02-.32-1.02-.91,0-.12,.01-.24,.04-.35l.63-3.17c.06-.28,.1-.55,.1-.77,0-.63-.28-.99-.9-.99-.45,0-.84,.22-1.19,.62-.41,.45-.7,1.09-.81,1.65l-.78,3.92h-1.46l.88-4.41c.06-.28,.1-.56,.1-.8,0-.62-.27-.98-.85-.98-.49,0-.9,.25-1.22,.62-.42,.48-.74,1.09-.85,1.65l-.78,3.92h-1.46Z"/>
      <path class="cls-17" d="M517.15,243.11h1.46l-.32,1.62h.06c.59-1.19,1.26-1.79,2.37-1.79,1.33,0,2.1,1.06,2.1,2.68,0,2.55-1.32,4.94-3.49,4.94-.94,0-1.71-.52-1.86-1.39h-.07l-.8,4.02h-1.46l2.02-10.09Zm3.88,4.24l.21-1.02c.04-.22,.07-.52,.07-.76,0-.81-.39-1.39-1.19-1.39-.57,0-1.04,.29-1.39,.7-.39,.45-.67,.95-.8,1.61l-.27,1.33c-.17,.83,.31,1.48,1.39,1.48s1.72-.69,1.97-1.96Z"/>
      <path class="cls-17" d="M525.53,250.39c-.9,0-1.3-.42-1.3-1.11,0-.15,.03-.37,.06-.53l.88-4.43h-1.06l.24-1.22h.55c.55,0,.67-.21,.77-.71l.25-1.28h1.36l-.39,1.99h1.46l-.24,1.22h-1.47l-.97,4.85h1.42l-.24,1.22h-1.3Z"/>
      <path class="cls-17" d="M529.68,250.39c-.7,0-1.09-.41-1.09-.98,0-.11,.01-.21,.04-.35l1.19-5.95h1.46l-1.22,6.06h.94l-.24,1.22h-1.08Zm.39-9.17c0-.11,.03-.28,.07-.49,.1-.44,.35-.76,1.01-.76,.55,0,.77,.25,.77,.59,0,.11-.03,.28-.07,.49-.1,.43-.35,.76-1.01,.76-.55,0-.77-.25-.77-.59Z"/>
      <path class="cls-17" d="M532.37,247.55c0-2.52,1.56-4.61,3.75-4.61,1.64,0,2.75,1.06,2.75,3.01,0,2.52-1.55,4.61-3.75,4.61-1.64,0-2.75-1.06-2.75-3.01Zm4.76-.2l.24-1.16c.03-.15,.06-.35,.06-.55,0-.88-.49-1.47-1.42-1.47s-1.65,.69-1.91,1.97l-.24,1.16c-.03,.17-.06,.35-.06,.55,0,.88,.49,1.47,1.42,1.47s1.65-.69,1.9-1.97Z"/>
      <path class="cls-17" d="M539.83,250.39l1.46-7.28h1.46l-.31,1.55h.07c.53-1.12,1.23-1.72,2.31-1.72,1.2,0,1.82,.73,1.82,1.96,0,.31-.04,.62-.11,.98l-.66,3.29h.88l-.24,1.22h-1.11c-.62,0-1.01-.32-1.01-.92,0-.11,0-.17,.03-.34l.63-3.15c.06-.28,.08-.55,.08-.77,0-.64-.28-1.01-.95-1.01-.5,0-.92,.22-1.27,.62-.41,.45-.73,1.08-.84,1.65l-.78,3.92h-1.46Z"/>
    </g>
    <path class="cls-17" d="M551.24,240.34c0,.1-.01,.25-.04,.36-.17,.73-.73,1.78-1.58,2.41h-.67c.74-.63,1.15-1.28,1.39-1.85-.29-.04-.42-.2-.42-.42,0-.11,.03-.27,.06-.36,.07-.29,.21-.59,.7-.59,.38,0,.57,.17,.57,.45Zm2.55,0c0,.1-.01,.25-.04,.36-.17,.73-.73,1.78-1.58,2.41h-.67c.74-.63,1.15-1.28,1.39-1.85-.29-.04-.42-.2-.42-.42,0-.11,.03-.27,.06-.36,.07-.29,.21-.59,.7-.59,.38,0,.57,.17,.57,.45Z"/>
    <g>
      <path class="cls-17" d="M12.42,86.15l-3.06-12.57h1.6l1.35,6.05,1.04,4.7h.04l1.17-4.7,1.58-6.05h1.73l1.53,6.05,1.17,4.68h.05l1.08-4.68,1.42-6.05h1.55l-3.22,12.57h-1.67l-1.64-6.27-1.15-4.61h-.04l-1.19,4.61-1.67,6.27h-1.67Z"/>
      <path class="cls-17" d="M26.57,72.83h1.44v5.55h.07c.45-1.04,1.24-1.73,2.63-1.73,1.91,0,3.11,1.3,3.11,3.55v5.96h-1.44v-5.71c0-1.66-.72-2.5-2.11-2.5-1.15,0-2.27,.58-2.27,1.76v6.45h-1.44v-13.32Z"/>
      <path class="cls-17" d="M36.11,81.5c0-2.95,1.66-4.86,4.18-4.86s4.02,1.91,4.02,4.54v.68h-6.68v.43c0,1.6,1.03,2.81,2.75,2.81,1.17,0,2.07-.58,2.56-1.6l1.03,.74c-.59,1.26-1.93,2.12-3.67,2.12-2.52,0-4.18-1.91-4.18-4.86Zm1.51-.85v.13h5.13v-.2c0-1.64-.99-2.74-2.47-2.74-1.57,0-2.66,1.19-2.66,2.81Z"/>
      <path class="cls-17" d="M46.67,86.15v-9.29h1.44v1.51h.07c.45-1.04,1.24-1.73,2.63-1.73,1.91,0,3.11,1.3,3.11,3.55v5.96h-1.44v-5.71c0-1.66-.72-2.5-2.11-2.5-1.15,0-2.27,.58-2.27,1.76v6.45h-1.44Z"/>
    </g>
    <g class="cls-6">
      <path class="cls-5" d="M61.85,162.08c24.56-10.43,52.93,1.03,63.35,25.6,10.43,24.56-1.03,52.93-25.6,63.35-24.56,10.43-52.93-1.03-63.35-25.6-10.43-24.56,1.03-52.93,25.6-63.35m-9.14-21.53C16.25,156.02-.76,198.11,14.72,234.57c15.48,36.46,57.57,53.46,94.03,37.99,36.46-15.47,53.46-57.57,37.99-94.03-15.47-36.46-57.57-53.46-94.03-37.99"/>
      <path class="cls-1" d="M92.69,135.84c-13.06-2.22-26.88-.85-39.98,4.71l9.14,21.53c8.03-3.41,16.47-4.48,24.55-3.51l6.29-22.72Z"/>
      <path class="cls-3" d="M130.32,258.37c-6.1,5.84-13.34,10.69-21.58,14.19-36.46,15.47-78.55-1.53-94.03-37.99-15.47-36.46,1.54-78.55,37.99-94.03l9.14,21.53c-24.56,10.43-36.02,38.79-25.6,63.35,10.43,24.56,38.79,36.02,63.35,25.6,6.14-2.61,11.46-6.33,15.83-10.84l14.89,18.19Z"/>
    </g>
    <g>
      <path class="cls-17" d="M168.77,191.07h.98l2.65,4.71h.04l2.65-4.71h.95v8.37h-.7v-7.45h-.05l-2.89,5.12-2.89-5.12h-.05v7.45h-.7v-8.37Z"/>
      <path class="cls-17" d="M177.85,196.37c0-2.01,1.06-3.21,2.67-3.21s2.67,1.2,2.67,3.21-1.06,3.21-2.67,3.21-2.67-1.2-2.67-3.21Zm4.62,.38v-.77c0-1.43-.76-2.22-1.94-2.22s-1.94,.78-1.94,2.22v.77c0,1.43,.75,2.22,1.94,2.22s1.94-.78,1.94-2.22Z"/>
      <path class="cls-17" d="M184.95,199.44v-6.14h.68v1.1h.05c.24-.58,.78-1.1,1.83-1.1h.41v.67h-.54c-1.02,0-1.75,.48-1.75,1.27v4.2h-.68Z"/>
      <path class="cls-17" d="M189.23,199.44v-6.14h.68v.97h.04c.28-.64,.83-1.12,1.81-1.12,1.31,0,2.08,.84,2.08,2.34v3.95h-.68v-3.83c0-1.25-.55-1.85-1.57-1.85-.86,0-1.67,.44-1.67,1.36v4.32h-.68Z"/>
      <path class="cls-17" d="M195.85,191.2v-.12c0-.25,.14-.43,.47-.43s.47,.18,.47,.43v.12c0,.25-.14,.43-.47,.43s-.47-.18-.47-.43Zm.13,2.1h.68v6.14h-.68v-6.14Z"/>
      <path class="cls-17" d="M198.9,199.44v-6.14h.68v.97h.04c.28-.64,.83-1.12,1.81-1.12,1.31,0,2.08,.84,2.08,2.34v3.95h-.68v-3.83c0-1.25-.55-1.85-1.57-1.85-.86,0-1.67,.44-1.67,1.36v4.32h-.68Z"/>
      <path class="cls-17" d="M207.74,201.99c-1.87,0-2.65-.58-2.65-1.54,0-.7,.4-1.1,1.05-1.29v-.1c-.38-.16-.58-.43-.58-.84,0-.6,.46-.9,1.04-1.05v-.05c-.71-.32-1.14-.98-1.14-1.87,0-1.23,.88-2.09,2.23-2.09,.48,0,.9,.11,1.24,.3v-.3c0-.37,.17-.62,.56-.62h1.06v.6h-1.25v.59c.41,.37,.65,.9,.65,1.52,0,1.25-.89,2.1-2.24,2.1-.22,0-.43-.04-.64-.07-.53,.14-.91,.38-.91,.79,0,.36,.31,.55,.98,.55h1.43c1.47,0,2.11,.59,2.11,1.55,0,1.25-1.03,1.82-2.95,1.82Zm.84-2.73h-1.99c-.53,.18-.85,.53-.85,1.05,0,.64,.53,1.12,1.59,1.12h.77c1.19,0,1.93-.38,1.93-1.21,0-.59-.36-.96-1.45-.96Zm.65-3.81v-.38c0-.84-.58-1.34-1.51-1.34s-1.51,.5-1.51,1.34v.38c0,.86,.58,1.36,1.51,1.36s1.51-.49,1.51-1.36Z"/>
    </g>
    <g>
      <path class="cls-17" d="M147.11,261.39v-8.37h4.89v.63h-4.17v3.17h3.97v.64h-3.97v3.3h4.17v.64h-4.89Z"/>
      <path class="cls-17" d="M153.06,255.25h.72l1.88,5.41h.05l1.87-5.41h.7l-2.22,6.14h-.78l-2.22-6.14Z"/>
      <path class="cls-17" d="M159.07,258.32c0-2.02,1.04-3.21,2.67-3.21s2.59,1.22,2.59,3.02v.32h-4.55v.3c0,1.28,.74,2.18,2,2.18,.88,0,1.52-.43,1.86-1.23l.5,.34c-.38,.9-1.24,1.5-2.4,1.5-1.64,0-2.69-1.2-2.69-3.21Zm.72-.46v.06h3.8v-.1c0-1.29-.74-2.15-1.85-2.15-1.19,0-1.96,.89-1.96,2.18Z"/>
      <path class="cls-17" d="M166.08,261.39v-6.14h.68v.97h.04c.28-.63,.83-1.12,1.81-1.12,1.31,0,2.07,.84,2.07,2.34v3.95h-.68v-3.83c0-1.25-.55-1.85-1.57-1.85-.86,0-1.67,.44-1.67,1.36v4.32h-.68Z"/>
      <path class="cls-17" d="M172.71,253.15v-.12c0-.25,.14-.43,.47-.43s.47,.18,.47,.43v.12c0,.25-.14,.43-.47,.43s-.47-.18-.47-.43Zm.13,2.1h.68v6.14h-.68v-6.14Z"/>
      <path class="cls-17" d="M175.75,261.39v-6.14h.68v.97h.04c.28-.63,.83-1.12,1.81-1.12,1.31,0,2.07,.84,2.07,2.34v3.95h-.68v-3.83c0-1.25-.55-1.85-1.57-1.85-.86,0-1.67,.44-1.67,1.36v4.32h-.68Z"/>
      <path class="cls-17" d="M184.6,263.93c-1.87,0-2.65-.58-2.65-1.54,0-.7,.4-1.1,1.06-1.3v-.1c-.38-.16-.58-.43-.58-.84,0-.6,.46-.9,1.04-1.05v-.05c-.71-.32-1.14-.98-1.14-1.87,0-1.24,.88-2.09,2.23-2.09,.48,0,.9,.11,1.23,.3v-.3c0-.37,.17-.62,.56-.62h1.05v.6h-1.25v.59c.41,.37,.65,.9,.65,1.52,0,1.25-.89,2.1-2.24,2.1-.22,0-.43-.04-.64-.07-.53,.14-.91,.38-.91,.79,0,.36,.31,.55,.98,.55h1.43c1.48,0,2.11,.59,2.11,1.55,0,1.25-1.03,1.82-2.95,1.82Zm.84-2.74h-1.99c-.53,.18-.85,.53-.85,1.06,0,.63,.53,1.12,1.6,1.12h.77c1.19,0,1.93-.38,1.93-1.21,0-.59-.36-.96-1.45-.96Zm.65-3.81v-.38c0-.84-.58-1.34-1.51-1.34s-1.51,.5-1.51,1.34v.38c0,.86,.58,1.36,1.51,1.36s1.51-.49,1.51-1.36Z"/>
      <path class="cls-17" d="M188.59,258.1v-.73h2.99v.73h-2.99Z"/>
      <path class="cls-17" d="M193.59,261.39v-6.14h.68v.97h.04c.28-.63,.83-1.12,1.81-1.12,1.31,0,2.08,.84,2.08,2.34v3.95h-.68v-3.83c0-1.25-.55-1.85-1.57-1.85-.86,0-1.67,.44-1.67,1.36v4.32h-.68Z"/>
      <path class="cls-17" d="M200.21,253.15v-.12c0-.25,.14-.43,.47-.43s.47,.18,.47,.43v.12c0,.25-.14,.43-.47,.43s-.47-.18-.47-.43Zm.13,2.1h.68v6.14h-.68v-6.14Z"/>
      <path class="cls-17" d="M205.34,263.93c-1.87,0-2.65-.58-2.65-1.54,0-.7,.4-1.1,1.05-1.3v-.1c-.38-.16-.58-.43-.58-.84,0-.6,.46-.9,1.04-1.05v-.05c-.71-.32-1.14-.98-1.14-1.87,0-1.24,.88-2.09,2.23-2.09,.48,0,.9,.11,1.24,.3v-.3c0-.37,.17-.62,.56-.62h1.06v.6h-1.25v.59c.41,.37,.65,.9,.65,1.52,0,1.25-.89,2.1-2.24,2.1-.22,0-.43-.04-.64-.07-.53,.14-.91,.38-.91,.79,0,.36,.31,.55,.98,.55h1.43c1.47,0,2.11,.59,2.11,1.55,0,1.25-1.03,1.82-2.95,1.82Zm.84-2.74h-1.99c-.53,.18-.85,.53-.85,1.06,0,.63,.53,1.12,1.59,1.12h.77c1.19,0,1.93-.38,1.93-1.21,0-.59-.36-.96-1.45-.96Zm.65-3.81v-.38c0-.84-.58-1.34-1.51-1.34s-1.51,.5-1.51,1.34v.38c0,.86,.58,1.36,1.51,1.36s1.51-.49,1.51-1.36Z"/>
      <path class="cls-17" d="M209.6,252.51h.68v3.71h.04c.28-.63,.83-1.12,1.81-1.12,1.31,0,2.08,.84,2.08,2.34v3.95h-.68v-3.83c0-1.25-.55-1.85-1.57-1.85-.86,0-1.67,.44-1.67,1.36v4.32h-.68v-8.88Z"/>
      <path class="cls-17" d="M217.42,261.39c-.49,0-.76-.3-.76-.76v-4.79h-1.07v-.6h.7c.34,0,.43-.12,.43-.47v-1.25h.62v1.71h1.39v.6h-1.39v4.94h1.29v.6h-1.22Z"/>
    </g>
    <g>
      <path class="cls-17" d="M111.74,100.32l-.91-2.6h-3.56l-.91,2.6h-.72l2.96-8.37h.92l2.97,8.37h-.76Zm-2.67-7.69h-.05l-1.57,4.46h3.19l-1.57-4.46Z"/>
      <path class="cls-17" d="M114.22,94.78h-1.06v-.6h1.06v-1.71c0-.62,.31-1.02,.96-1.02h1.08v.6h-1.35v2.13h1.35v.6h-1.35v5.54h-.68v-5.54Z"/>
      <path class="cls-17" d="M118.72,100.32c-.49,0-.76-.3-.76-.76v-4.79h-1.07v-.6h.7c.34,0,.43-.12,.43-.47v-1.25h.62v1.71h1.39v.6h-1.39v4.94h1.3v.6h-1.22Z"/>
      <path class="cls-17" d="M121.15,97.25c0-2.01,1.04-3.21,2.67-3.21s2.59,1.22,2.59,3.02v.32h-4.55v.3c0,1.28,.74,2.18,2,2.18,.88,0,1.52-.43,1.86-1.24l.5,.34c-.38,.9-1.24,1.5-2.4,1.5-1.64,0-2.69-1.2-2.69-3.21Zm.72-.46v.06h3.8v-.1c0-1.29-.74-2.15-1.85-2.15-1.19,0-1.96,.89-1.96,2.18Z"/>
      <path class="cls-17" d="M128.16,100.32v-6.14h.68v1.1h.05c.24-.58,.78-1.1,1.83-1.1h.41v.67h-.54c-1.02,0-1.75,.48-1.75,1.27v4.2h-.68Z"/>
      <path class="cls-17" d="M132.45,100.32v-6.14h.68v.97h.04c.28-.64,.83-1.12,1.81-1.12,1.31,0,2.07,.84,2.07,2.34v3.95h-.68v-3.83c0-1.25-.55-1.85-1.57-1.85-.86,0-1.67,.44-1.67,1.36v4.32h-.68Z"/>
      <path class="cls-17" d="M138.71,97.25c0-2.01,1.06-3.21,2.67-3.21s2.67,1.2,2.67,3.21-1.06,3.21-2.67,3.21-2.67-1.2-2.67-3.21Zm4.62,.38v-.77c0-1.43-.76-2.22-1.94-2.22s-1.94,.78-1.94,2.22v.77c0,1.43,.76,2.22,1.94,2.22s1.94-.78,1.94-2.22Z"/>
      <path class="cls-17" d="M145.31,97.25c0-2.01,1.06-3.21,2.67-3.21s2.67,1.2,2.67,3.21-1.06,3.21-2.67,3.21-2.67-1.2-2.67-3.21Zm4.62,.38v-.77c0-1.43-.76-2.22-1.94-2.22s-1.94,.78-1.94,2.22v.77c0,1.43,.76,2.22,1.94,2.22s1.94-.78,1.94-2.22Z"/>
      <path class="cls-17" d="M152.4,100.32v-6.14h.68v.97h.04c.28-.64,.83-1.12,1.81-1.12,1.31,0,2.07,.84,2.07,2.34v3.95h-.68v-3.83c0-1.25-.55-1.85-1.57-1.85-.86,0-1.67,.44-1.67,1.36v4.32h-.68Z"/>
    </g>
    <g class="cls-7">
      <path class="cls-2" d="M197.55,211.51c-2.05,0-4.1-.67-5.49-2.01-2.26-2.19-6.88-2.19-9.14,0-2.77,2.67-8.2,2.67-10.97,0-2.26-2.19-6.88-2.19-9.14,0-2.77,2.67-8.2,2.67-10.97,0-2.26-2.19-6.88-2.19-9.14,0l-.92-.95c2.77-2.67,8.2-2.67,10.97,0,2.26,2.19,6.88,2.19,9.14,0,2.77-2.67,8.2-2.67,10.97,0,2.26,2.19,6.88,2.19,9.14,0,2.77-2.67,8.2-2.67,10.97,0,2.26,2.19,6.88,2.19,9.14,0,2.77-2.67,8.2-2.67,10.97,0,2.26,2.19,6.88,2.19,9.14,0l.92,.95c-2.77,2.68-8.2,2.68-10.97,0-2.26-2.19-6.88-2.19-9.14,0-1.38,1.34-3.43,2.01-5.48,2.01Z"/>
      <path class="cls-2" d="M119.11,113.48c-2,0-4.01-.67-5.36-2.01-2.19-2.18-6.67-2.18-8.86,0-2.7,2.68-8.01,2.68-10.72,0-2.2-2.18-6.67-2.18-8.86,0l-.93-.93c2.7-2.68,8.01-2.68,10.72,0,2.19,2.18,6.67,2.18,8.86,0,2.71-2.68,8.01-2.68,10.72,0,2.2,2.18,6.67,2.18,8.86,0,2.71-2.69,8.01-2.68,10.72,0,2.19,2.18,6.67,2.18,8.86,0,2.71-2.69,8.01-2.68,10.72,0,2.19,2.18,6.67,2.18,8.86,0,2.7-2.69,8.01-2.69,10.72,0,2.2,2.18,6.67,2.18,8.86,0l.93,.93c-2.7,2.68-8.01,2.69-10.72,0-2.19-2.18-6.67-2.18-8.86,0-2.7,2.68-8.01,2.68-10.72,0-2.2-2.18-6.67-2.18-8.86,0-2.71,2.68-8.01,2.68-10.72,0-2.2-2.18-6.67-2.18-8.86,0-1.35,1.34-3.36,2.01-5.36,2.01Z"/>
    </g>
    <rect class="cls-2" x="60.39" y="129.57" width="41.42" height="1.42" transform="translate(-63.97 180.32) rotate(-77.13)"/>
    <g class="cls-15">
      <path class="cls-2" d="M205.99,272.16c-2.24,0-4.48-.66-6-1.98-2.54-2.22-7.72-2.22-10.26,0-3.03,2.64-8.97,2.64-12,0-2.54-2.22-7.72-2.22-10.26,0-3.02,2.64-8.97,2.64-12,0-2.54-2.22-7.72-2.22-10.26,0-3.03,2.64-8.97,2.64-12,0-2.54-2.22-7.72-2.22-10.26,0-3.03,2.64-8.97,2.64-12,0l.87-.99c2.54,2.22,7.72,2.22,10.26,0,3.03-2.64,8.97-2.64,12,0,2.54,2.22,7.72,2.22,10.26,0,3.03-2.64,8.97-2.64,12,0,2.54,2.22,7.72,2.22,10.27,0,3.03-2.64,8.97-2.64,12,0,2.54,2.22,7.72,2.22,10.27,0,3.02-2.64,8.97-2.64,12,0,2.54,2.22,7.72,2.22,10.26,0,3.03-2.64,8.97-2.64,12,0l-.87,.99c-2.54-2.22-7.72-2.22-10.27,0-1.51,1.32-3.76,1.98-6,1.98Z"/>
    </g>
    <g>
      <path class="cls-10" d="M301.5,10.9v12.48h-1.68V10.9h-4.44v-1.48h10.56v1.48h-4.44Z"/>
      <path class="cls-10" d="M314.2,23.38c-1.18,0-1.66-.72-1.78-1.68h-.1c-.44,1.26-1.54,1.92-2.98,1.92-2.18,0-3.46-1.2-3.46-3.12s1.4-3.02,4.4-3.02h2.04v-1.02c0-1.46-.8-2.26-2.44-2.26-1.24,0-2.06,.6-2.62,1.54l-.96-.9c.56-1.1,1.8-2.02,3.66-2.02,2.48,0,3.96,1.3,3.96,3.48v5.68h1.18v1.4h-.9Zm-1.88-3v-1.7h-2.12c-1.82,0-2.64,.56-2.64,1.56v.42c0,1.02,.8,1.6,2.04,1.6,1.58,0,2.72-.82,2.72-1.88Z"/>
      <path class="cls-10" d="M317.38,23.38V13.06h1.6v1.9h.1c.36-.98,1.3-1.9,2.98-1.9h.62v1.6h-.94c-1.72,0-2.76,.74-2.76,1.72v7h-1.6Z"/>
      <path class="cls-10" d="M327.98,27.62c-3.22,0-4.54-.92-4.54-2.54,0-1.12,.62-1.72,1.64-2v-.22c-.58-.28-.92-.74-.92-1.44,0-1.04,.74-1.54,1.78-1.8v-.08c-1.22-.58-1.94-1.72-1.94-3.16,0-2.1,1.54-3.56,3.88-3.56,.74,0,1.4,.14,1.96,.4v-.18c0-.8,.34-1.38,1.2-1.38h1.54v1.4h-1.96v.66c.74,.64,1.18,1.56,1.18,2.66,0,2.1-1.54,3.56-3.9,3.56-.34,0-.7-.04-1-.1-.68,.18-1.36,.52-1.36,1.16s.64,.78,1.58,.78h2.2c2.56,0,3.66,1.04,3.66,2.74,0,2.12-1.68,3.1-5,3.1Zm1.36-4.34h-3.44c-.66,.3-.96,.76-.96,1.4,0,.9,.62,1.64,2.24,1.64h1.48c1.78,0,2.82-.56,2.82-1.68,0-.82-.54-1.36-2.14-1.36Zm.78-6.62v-.56c0-1.36-.86-2-2.22-2s-2.22,.64-2.22,2v.56c0,1.36,.86,2,2.22,2s2.22-.64,2.22-2Z"/>
      <path class="cls-10" d="M333.96,18.22c0-3.28,1.84-5.4,4.64-5.4s4.46,2.12,4.46,5.04v.76h-7.42v.48c0,1.78,1.14,3.12,3.06,3.12,1.3,0,2.3-.64,2.84-1.78l1.14,.82c-.66,1.4-2.14,2.36-4.08,2.36-2.8,0-4.64-2.12-4.64-5.4Zm1.68-.94v.14h5.7v-.22c0-1.82-1.1-3.04-2.74-3.04-1.74,0-2.96,1.32-2.96,3.12Z"/>
      <path class="cls-10" d="M347.98,23.38c-1.1,0-1.7-.7-1.7-1.7v-7.22h-1.7v-1.4h.96c.68,0,.9-.24,.9-.94v-1.92h1.44v2.86h2.26v1.4h-2.26v7.52h2.1v1.4h-2Z"/>
      <path class="cls-10" d="M351.9,18.22c0-3.28,1.84-5.4,4.64-5.4s4.46,2.12,4.46,5.04v.76h-7.42v.48c0,1.78,1.14,3.12,3.06,3.12,1.3,0,2.3-.64,2.84-1.78l1.14,.82c-.66,1.4-2.14,2.36-4.08,2.36-2.8,0-4.64-2.12-4.64-5.4Zm1.68-.94v.14h5.7v-.22c0-1.82-1.1-3.04-2.74-3.04-1.74,0-2.96,1.32-2.96,3.12Z"/>
      <path class="cls-10" d="M370.24,21.7h-.08c-.62,1.28-1.6,1.92-3.02,1.92-2.58,0-4.2-2.1-4.2-5.4s1.62-5.4,4.2-5.4c1.42,0,2.48,.62,3.02,1.92h.08v-6.16h1.6v14.8h-1.6v-1.68Zm0-1.62v-3.84c0-1.14-1.2-1.98-2.66-1.98-1.8,0-2.92,1.24-2.92,3.08v1.76c0,1.84,1.12,3.08,2.92,3.08,1.46,0,2.66-.76,2.66-2.1Z"/>
      <path class="cls-10" d="M379.78,9.74v-.26c0-.54,.3-.9,.98-.9s.98,.36,.98,.9v.26c0,.54-.3,.9-.98,.9s-.98-.36-.98-.9Zm.18,3.32h1.6v10.32h-1.6V13.06Z"/>
      <path class="cls-10" d="M384.96,23.38V13.06h1.6v1.68h.08c.5-1.16,1.38-1.92,2.92-1.92,2.12,0,3.46,1.44,3.46,3.94v6.62h-1.6v-6.34c0-1.84-.8-2.78-2.34-2.78-1.28,0-2.52,.64-2.52,1.96v7.16h-1.6Z"/>
      <path class="cls-10" d="M398.6,23.38c-1.1,0-1.7-.7-1.7-1.7v-7.22h-1.7v-1.4h.96c.68,0,.9-.24,.9-.94v-1.92h1.44v2.86h2.26v1.4h-2.26v7.52h2.1v1.4h-2Z"/>
      <path class="cls-10" d="M402.5,18.22c0-3.28,1.84-5.4,4.64-5.4s4.46,2.12,4.46,5.04v.76h-7.42v.48c0,1.78,1.14,3.12,3.06,3.12,1.3,0,2.3-.64,2.84-1.78l1.14,.82c-.66,1.4-2.14,2.36-4.08,2.36-2.8,0-4.64-2.12-4.64-5.4Zm1.68-.94v.14h5.7v-.22c0-1.82-1.1-3.04-2.74-3.04-1.74,0-2.96,1.32-2.96,3.12Z"/>
      <path class="cls-10" d="M414.24,23.38V13.06h1.6v1.9h.1c.36-.98,1.3-1.9,2.98-1.9h.62v1.6h-.94c-1.72,0-2.76,.74-2.76,1.72v7h-1.6Z"/>
      <path class="cls-10" d="M424.04,23.38l-3.62-10.32h1.6l1.8,5.12,1.12,3.52h.1l1.12-3.52,1.84-5.12h1.54l-3.64,10.32h-1.86Z"/>
      <path class="cls-10" d="M431.42,9.74v-.26c0-.54,.3-.9,.98-.9s.98,.36,.98,.9v.26c0,.54-.3,.9-.98,.9s-.98-.36-.98-.9Zm.18,3.32h1.6v10.32h-1.6V13.06Z"/>
      <path class="cls-10" d="M435.84,18.22c0-3.28,1.84-5.4,4.64-5.4s4.46,2.12,4.46,5.04v.76h-7.42v.48c0,1.78,1.14,3.12,3.06,3.12,1.3,0,2.3-.64,2.84-1.78l1.14,.82c-.66,1.4-2.14,2.36-4.08,2.36-2.8,0-4.64-2.12-4.64-5.4Zm1.68-.94v.14h5.7v-.22c0-1.82-1.1-3.04-2.74-3.04-1.74,0-2.96,1.32-2.96,3.12Z"/>
      <path class="cls-10" d="M446.42,13.06h1.56l1.1,4.46,1.1,4.52h.04l1.26-4.52,1.3-4.46h1.42l1.34,4.46,1.28,4.52h.04l1.06-4.52,1.12-4.46h1.5l-2.74,10.32h-1.98l-1.44-4.96-.9-3.14h-.04l-.88,3.14-1.44,4.96h-1.94l-2.76-10.32Z"/>
      <path class="cls-10" d="M467.58,23.38V13.06h1.6v1.9h.1c.36-.98,1.3-1.9,2.98-1.9h.62v1.6h-.94c-1.72,0-2.76,.74-2.76,1.72v7h-1.6Z"/>
      <path class="cls-10" d="M474.08,18.22c0-3.28,1.84-5.4,4.64-5.4s4.46,2.12,4.46,5.04v.76h-7.42v.48c0,1.78,1.14,3.12,3.06,3.12,1.3,0,2.3-.64,2.84-1.78l1.14,.82c-.66,1.4-2.14,2.36-4.08,2.36-2.8,0-4.64-2.12-4.64-5.4Zm1.68-.94v.14h5.7v-.22c0-1.82-1.1-3.04-2.74-3.04-1.74,0-2.96,1.32-2.96,3.12Z"/>
      <path class="cls-10" d="M484.84,21.6l1.14-.92c.8,1,1.76,1.58,3.06,1.58s2.16-.62,2.16-1.68c0-.8-.44-1.42-1.8-1.62l-.82-.12c-1.9-.28-3.32-1.06-3.32-2.98,0-2.04,1.58-3.04,3.68-3.04,1.66,0,2.76,.62,3.6,1.66l-1.06,.96c-.46-.64-1.34-1.26-2.66-1.26s-2.02,.62-2.02,1.6,.7,1.4,1.98,1.6l.8,.12c2.28,.34,3.16,1.34,3.16,2.9,0,2-1.46,3.22-3.82,3.22-1.9,0-3.16-.8-4.08-2.02Z"/>
      <path class="cls-10" d="M501.92,21.7h-.08c-.4,.98-1.18,1.92-2.9,1.92-2.12,0-3.48-1.44-3.48-3.94v-6.62h1.6v6.34c0,1.84,.82,2.78,2.36,2.78,1.26,0,2.5-.62,2.5-1.98v-7.14h1.6v10.32h-1.6v-1.68Z"/>
      <path class="cls-10" d="M508.62,23.38c-1.1,0-1.7-.7-1.7-1.66V8.58h1.6v13.4h1.52v1.4h-1.42Z"/>
      <path class="cls-10" d="M514.56,23.38c-1.1,0-1.7-.7-1.7-1.7v-7.22h-1.7v-1.4h.96c.68,0,.9-.24,.9-.94v-1.92h1.44v2.86h2.26v1.4h-2.26v7.52h2.1v1.4h-2Z"/>
      <path class="cls-10" d="M518.32,21.6l1.14-.92c.8,1,1.76,1.58,3.06,1.58s2.16-.62,2.16-1.68c0-.8-.44-1.42-1.8-1.62l-.82-.12c-1.9-.28-3.32-1.06-3.32-2.98,0-2.04,1.58-3.04,3.68-3.04,1.66,0,2.76,.62,3.6,1.66l-1.06,.96c-.46-.64-1.34-1.26-2.66-1.26s-2.02,.62-2.02,1.6,.7,1.4,1.98,1.6l.8,.12c2.28,.34,3.16,1.34,3.16,2.9,0,2-1.46,3.22-3.82,3.22-1.9,0-3.16-.8-4.08-2.02Z"/>
    </g>
  </g>
</svg>