<?xml version="1.0" encoding="UTF-8"?>
<svg id="Layer_2" data-name="Layer 2" xmlns="http://www.w3.org/2000/svg" xmlns:xlink="http://www.w3.org/1999/xlink" viewBox="0 0 486.9 147.62">
  <defs>
    <style>
      .cls-1 {
        fill: #c4daf3;
      }

      .cls-2 {
        clip-path: url(#clippath-1);
      }

      .cls-3 {
        font-family: IBMPlexSans, 'IBM Plex Sans';
        font-size: 14px;
      }

      .cls-3, .cls-4 {
        fill: #1d1d1b;
      }

      .cls-5 {
        clip-path: url(#clippath);
      }

      .cls-6 {
        fill: none;
      }
    </style>
    <clipPath id="clippath">
      <rect class="cls-6" width="486.9" height="147.62"/>
    </clipPath>
    <clipPath id="clippath-1">
      <rect class="cls-6" width="486.9" height="147.62"/>
    </clipPath>
  </defs>
  <g id="Layer_1-2" data-name="Layer 1">
    <g class="cls-5">
      <rect class="cls-1" y="38.05" width="434.77" height="102.05" rx="12" ry="12"/>
    </g>
    <g>
      <path class="cls-4" d="m23.68,59.37v-9.78h5.59v.74h-4.75v3.7h4.43v.74h-4.43v4.59h-.84Z"/>
      <path class="cls-4" d="m35.74,59.37c-.62,0-.87-.35-.91-.88v-.25h-.07c-.32.8-1.05,1.3-2.17,1.3-1.5,0-2.37-.78-2.37-2.12s.84-2.07,2.91-2.07h1.65v-.84c0-1.18-.62-1.78-1.83-1.78-.95,0-1.57.42-1.96,1.16l-.5-.42c.39-.83,1.19-1.44,2.49-1.44,1.67,0,2.6.88,2.6,2.4v4.24h.97v.7h-.81Zm-.95-2.09v-1.33h-1.68c-1.43,0-2.05.49-2.05,1.29v.34c0,.83.66,1.27,1.64,1.27,1.16,0,2.09-.6,2.09-1.57Z"/>
      <path class="cls-4" d="m38.19,59.37v-7.17h.8v1.13h.04c.32-.74.97-1.3,2.12-1.3,1.53,0,2.42.98,2.42,2.73v4.61h-.8v-4.47c0-1.46-.64-2.16-1.83-2.16-1.01,0-1.95.52-1.95,1.58v5.04h-.8Z"/>
      <path class="cls-4" d="m49.37,49.01h.8v4.33h.04c.32-.74.97-1.3,2.12-1.3,1.53,0,2.42.98,2.42,2.73v4.61h-.8v-4.47c0-1.46-.64-2.16-1.83-2.16-1.01,0-1.95.52-1.95,1.58v5.04h-.8v-10.37Z"/>
      <path class="cls-4" d="m56.68,55.79c0-2.35,1.22-3.75,3.12-3.75s3.03,1.43,3.03,3.53v.38h-5.31v.35c0,1.5.87,2.55,2.34,2.55,1.02,0,1.78-.5,2.17-1.44l.59.39c-.45,1.05-1.44,1.75-2.8,1.75-1.92,0-3.14-1.4-3.14-3.75Zm.84-.53v.07h4.44v-.11c0-1.51-.87-2.51-2.16-2.51-1.39,0-2.28,1.04-2.28,2.55Z"/>
      <path class="cls-4" d="m69.79,59.37c-.62,0-.87-.35-.91-.88v-.25h-.07c-.32.8-1.05,1.3-2.17,1.3-1.5,0-2.37-.78-2.37-2.12s.84-2.07,2.91-2.07h1.65v-.84c0-1.18-.62-1.78-1.83-1.78-.95,0-1.57.42-1.96,1.16l-.5-.42c.39-.83,1.19-1.44,2.49-1.44,1.67,0,2.61.88,2.61,2.4v4.24h.97v.7h-.81Zm-.95-2.09v-1.33h-1.68c-1.43,0-2.05.49-2.05,1.29v.34c0,.83.66,1.27,1.64,1.27,1.16,0,2.09-.6,2.09-1.57Z"/>
      <path class="cls-4" d="m73.49,59.37c-.57,0-.88-.35-.88-.88v-5.59h-1.25v-.7h.81c.39,0,.5-.14.5-.55v-1.46h.73v2h1.62v.7h-1.62v5.77h1.51v.7h-1.43Z"/>
      <path class="cls-4" d="m76.32,55.79c0-2.35,1.22-3.75,3.12-3.75s3.03,1.43,3.03,3.53v.38h-5.31v.35c0,1.5.87,2.55,2.34,2.55,1.02,0,1.78-.5,2.17-1.44l.59.39c-.45,1.05-1.44,1.75-2.8,1.75-1.92,0-3.14-1.4-3.14-3.75Zm.84-.53v.07h4.44v-.11c0-1.51-.87-2.51-2.16-2.51-1.39,0-2.28,1.04-2.28,2.55Z"/>
      <path class="cls-4" d="m84.5,59.37v-7.17h.8v1.29h.06c.28-.67.91-1.29,2.14-1.29h.48v.78h-.63c-1.19,0-2.05.56-2.05,1.49v4.9h-.8Z"/>
    </g>
    <g>
      <path class="cls-4" d="m92.45,59.37v-7.35h2.07v1.25h.08c.27-.78.88-1.42,1.98-1.42,1.01,0,1.74.52,2.06,1.49h.04c.27-.83,1.12-1.49,2.24-1.49,1.42,0,2.2,1.07,2.2,2.91v4.61h-2.07v-4.44c0-.95-.32-1.4-1.01-1.4-.62,0-1.22.35-1.22,1.08v4.76h-2.07v-4.44c0-.95-.34-1.4-1.01-1.4-.6,0-1.22.35-1.22,1.08v4.76h-2.07Z"/>
      <path class="cls-4" d="m104.5,55.69c0-2.37,1.29-3.84,3.45-3.84s3.45,1.47,3.45,3.84-1.29,3.85-3.45,3.85-3.45-1.48-3.45-3.85Zm4.73.76v-1.5c0-.92-.48-1.46-1.29-1.46s-1.29.53-1.29,1.46v1.5c0,.92.48,1.46,1.29,1.46s1.29-.53,1.29-1.46Z"/>
      <path class="cls-4" d="m112.86,59.37v-7.35h2.07v1.6h.07c.17-.81.73-1.6,1.88-1.6h.36v1.93h-.52c-1.2,0-1.79.27-1.79,1.12v4.3h-2.07Z"/>
      <path class="cls-4" d="m118,55.69c0-2.33,1.23-3.84,3.45-3.84,2.44,0,3.42,1.77,3.42,3.75v.62h-4.72v.11c0,.97.52,1.58,1.62,1.58.87,0,1.34-.41,1.81-.88l1.04,1.29c-.66.76-1.74,1.22-3.08,1.22-2.26,0-3.53-1.5-3.53-3.85Zm2.14-.8v.11h2.58v-.13c0-.9-.41-1.5-1.23-1.5s-1.34.6-1.34,1.51Z"/>
      <path class="cls-4" d="m129.03,58.22l1.22-1.23c.52.57,1.15.94,1.95.94s1.09-.27,1.09-.7c0-.36-.22-.55-.74-.62l-.8-.1c-1.67-.21-2.48-.94-2.48-2.27,0-1.42,1.11-2.4,2.86-2.4,1.54,0,2.26.42,3,1.15l-1.19,1.22c-.46-.46-1.08-.76-1.7-.76-.7,0-.98.25-.98.62,0,.39.17.6.77.69l.83.11c1.6.21,2.42.94,2.42,2.21,0,1.42-1.26,2.45-3.15,2.45-1.42,0-2.34-.48-3.1-1.32Z"/>
      <path class="cls-4" d="m141.03,58.14h-.07c-.25.74-.85,1.4-2.06,1.4-1.5,0-2.3-1.05-2.3-2.9v-4.62h2.07v4.44c0,.9.29,1.4,1.05,1.4.64,0,1.3-.36,1.3-1.06v-4.78h2.07v7.35h-2.07v-1.23Z"/>
      <path class="cls-4" d="m144.86,50.21v-.31c0-.59.36-1.02,1.2-1.02s1.2.43,1.2,1.02v.31c0,.59-.36,1.02-1.2,1.02s-1.2-.43-1.2-1.02Zm.17,1.81h2.07v7.35h-2.07v-7.35Z"/>
      <path class="cls-4" d="m151.61,59.37c-1.43,0-2.19-.74-2.19-2.14v-3.6h-1.04v-1.61h.52c.56,0,.73-.28.73-.79v-1.2h1.86v1.99h1.46v1.61h-1.46v4.13h1.34v1.61h-1.23Z"/>
      <path class="cls-4" d="m159.83,59.37c-.74,0-1.27-.5-1.4-1.29h-.08c-.22.95-1.04,1.46-2.16,1.46-1.47,0-2.28-.87-2.28-2.14,0-1.56,1.21-2.3,3.15-2.3h1.16v-.46c0-.71-.35-1.16-1.22-1.16s-1.26.42-1.58.87l-1.23-1.09c.59-.87,1.43-1.4,2.97-1.4,2.07,0,3.14.95,3.14,2.69v3.22h.69v1.61h-1.15Zm-1.61-2.23v-.87h-1.01c-.8,0-1.22.29-1.22.83v.21c0,.53.35.79.97.79.69,0,1.26-.28,1.26-.95Z"/>
      <path class="cls-4" d="m162.36,49.01h2.07v4.24h.07c.21-.81,1.02-1.4,1.98-1.4,1.86,0,2.83,1.34,2.83,3.84s-.97,3.85-2.83,3.85c-.95,0-1.77-.6-1.98-1.4h-.07v1.23h-2.07v-10.37Zm4.79,7.33v-1.27c0-.92-.57-1.53-1.36-1.53s-1.36.41-1.36,1.08v2.17c0,.67.57,1.08,1.36,1.08s1.36-.6,1.36-1.53Z"/>
      <path class="cls-4" d="m172.93,59.37c-1.42,0-2.06-.71-2.06-2.02v-8.35h2.07v8.75h.92v1.61h-.94Z"/>
      <path class="cls-4" d="m174.65,55.69c0-2.33,1.23-3.84,3.45-3.84,2.44,0,3.42,1.77,3.42,3.75v.62h-4.72v.11c0,.97.52,1.58,1.62,1.58.87,0,1.34-.41,1.81-.88l1.04,1.29c-.66.76-1.74,1.22-3.08,1.22-2.26,0-3.53-1.5-3.53-3.85Zm2.14-.8v.11h2.58v-.13c0-.9-.41-1.5-1.23-1.5s-1.34.6-1.34,1.51Z"/>
    </g>
    <g>
      <path class="cls-4" d="m187.84,59.37c-.57,0-.88-.35-.88-.88v-5.59h-1.25v-.7h.81c.39,0,.5-.14.5-.55v-1.46h.73v2h1.62v.7h-1.62v5.77h1.51v.7h-1.43Z"/>
      <path class="cls-4" d="m190.67,55.79c0-2.35,1.23-3.75,3.12-3.75s3.12,1.4,3.12,3.75-1.23,3.75-3.12,3.75-3.12-1.4-3.12-3.75Zm5.39.45v-.9c0-1.67-.88-2.59-2.27-2.59s-2.27.91-2.27,2.59v.9c0,1.67.88,2.59,2.27,2.59s2.27-.91,2.27-2.59Z"/>
      <path class="cls-4" d="m203.13,59.37c-.57,0-.88-.35-.88-.87v-9.5h.8v9.67h1.11v.7h-1.02Z"/>
      <path class="cls-4" d="m205.79,49.75v-.14c0-.29.17-.5.55-.5s.55.21.55.5v.14c0,.29-.17.5-.55.5s-.55-.21-.55-.5Zm.15,2.45h.8v7.17h-.8v-7.17Z"/>
      <path class="cls-4" d="m209.68,52.9h-1.23v-.7h1.23v-2c0-.73.36-1.19,1.12-1.19h1.26v.7h-1.58v2.49h1.58v.7h-1.58v6.47h-.8v-6.47Z"/>
      <path class="cls-4" d="m213.06,55.79c0-2.35,1.22-3.75,3.12-3.75s3.03,1.43,3.03,3.53v.38h-5.31v.35c0,1.5.87,2.55,2.34,2.55,1.02,0,1.78-.5,2.17-1.44l.59.39c-.45,1.05-1.44,1.75-2.8,1.75-1.92,0-3.14-1.4-3.14-3.75Zm.84-.53v.07h4.44v-.11c0-1.51-.87-2.51-2.16-2.51-1.39,0-2.28,1.04-2.28,2.55Z"/>
      <path class="cls-4" d="m220.5,58.17l.59-.46c.59.77,1.27,1.15,2.23,1.15,1.09,0,1.72-.49,1.72-1.36,0-.76-.43-1.19-1.47-1.34l-.59-.1c-1.3-.2-2.2-.71-2.2-2s1.05-2.02,2.44-2.02c1.19,0,1.92.46,2.45,1.11l-.53.49c-.38-.45-.97-.91-1.96-.91s-1.62.48-1.62,1.29.52,1.15,1.54,1.32l.57.08c1.46.22,2.14.85,2.14,2,0,1.33-.97,2.13-2.55,2.13-1.25,0-2.12-.49-2.76-1.37Z"/>
      <path class="cls-4" d="m229.1,59.37c-.57,0-.88-.35-.88-.88v-5.59h-1.25v-.7h.81c.39,0,.5-.14.5-.55v-1.46h.73v2h1.62v.7h-1.62v5.77h1.51v.7h-1.43Z"/>
      <path class="cls-4" d="m236.9,52.2h.81l-3.32,9.19c-.22.6-.46.78-1.19.78h-.81v-.7h1.2l.69-1.89-2.66-7.38h.84l2.2,6.32h.06l2.19-6.32Z"/>
      <path class="cls-4" d="m240.2,59.37c-.57,0-.88-.35-.88-.87v-9.5h.8v9.67h1.11v.7h-1.02Z"/>
      <path class="cls-4" d="m242.44,55.79c0-2.35,1.22-3.75,3.12-3.75s3.03,1.43,3.03,3.53v.38h-5.31v.35c0,1.5.87,2.55,2.34,2.55,1.02,0,1.78-.5,2.17-1.44l.59.39c-.45,1.05-1.44,1.75-2.8,1.75-1.92,0-3.14-1.4-3.14-3.75Zm.84-.53v.07h4.44v-.11c0-1.51-.87-2.51-2.16-2.51-1.39,0-2.28,1.04-2.28,2.55Z"/>
      <path class="cls-4" d="m253.35,55.79c0-2.35,1.23-3.75,3.12-3.75s3.12,1.4,3.12,3.75-1.23,3.75-3.12,3.75-3.12-1.4-3.12-3.75Zm5.39.45v-.9c0-1.67-.88-2.59-2.27-2.59s-2.27.91-2.27,2.59v.9c0,1.67.88,2.59,2.27,2.59s2.27-.91,2.27-2.59Z"/>
      <path class="cls-4" d="m261.9,52.9h-1.23v-.7h1.23v-2c0-.73.36-1.19,1.12-1.19h1.26v.7h-1.58v2.49h1.58v.7h-1.58v6.47h-.8v-6.47Z"/>
    </g>
    <g>
      <path class="cls-4" d="m273.33,52.02h1.93l-2.83,8.49c-.38,1.13-1,1.67-2.26,1.67h-1.29v-1.61h1.39l.25-.81-2.58-7.73h2.06l1.08,3.43.53,2.13h.08l.55-2.13,1.08-3.43Z"/>
      <path class="cls-4" d="m275.75,55.69c0-2.37,1.29-3.84,3.45-3.84s3.45,1.47,3.45,3.84-1.29,3.85-3.45,3.85-3.45-1.48-3.45-3.85Zm4.73.76v-1.5c0-.92-.48-1.46-1.29-1.46s-1.29.53-1.29,1.46v1.5c0,.92.48,1.46,1.29,1.46s1.29-.53,1.29-1.46Z"/>
      <path class="cls-4" d="m288.45,58.14h-.07c-.25.74-.85,1.4-2.06,1.4-1.5,0-2.3-1.05-2.3-2.9v-4.62h2.07v4.44c0,.9.29,1.4,1.05,1.4.64,0,1.3-.36,1.3-1.06v-4.78h2.07v7.35h-2.07v-1.23Z"/>
      <path class="cls-4" d="m292.45,59.37v-7.35h2.07v1.25h.08c.27-.77.88-1.42,2.04-1.42,1.5,0,2.3,1.07,2.3,2.91v4.61h-2.07v-4.44c0-.94-.27-1.4-1.02-1.4-.67,0-1.33.35-1.33,1.08v4.76h-2.07Z"/>
      <path class="cls-4" d="m303.62,62.34c-2.55,0-3.49-.64-3.49-1.71,0-.81.52-1.29,1.37-1.4v-.15c-.7-.13-1.06-.66-1.06-1.29,0-.77.69-1.16,1.37-1.3v-.06c-.88-.41-1.32-1.15-1.32-2.1,0-1.48,1.04-2.48,3.15-2.48.46,0,.88.04,1.25.14v-.28c0-.77.41-1.11,1.11-1.11h1.16v1.54h-1.62v.08c.85.41,1.26,1.16,1.26,2.1,0,1.47-1.02,2.44-3.15,2.44-.49,0-.92-.06-1.3-.15-.2.13-.32.34-.32.59,0,.35.25.56.88.56h2.13c1.79,0,2.56.79,2.56,2.14,0,1.55-.98,2.44-3.98,2.44Zm.9-2.82h-2.52c-.18.18-.27.43-.27.66,0,.53.42.78,1.54.78h.84c1.12,0,1.54-.25,1.54-.78,0-.42-.31-.66-1.13-.66Zm.35-5.13v-.17c0-.64-.41-1.01-1.22-1.01s-1.22.36-1.22,1.01v.17c0,.64.41,1.01,1.22,1.01s1.22-.36,1.22-1.01Z"/>
      <path class="cls-4" d="m317.26,59.37c-.74,0-1.27-.5-1.4-1.29h-.08c-.22.95-1.04,1.46-2.16,1.46-1.47,0-2.28-.87-2.28-2.14,0-1.56,1.2-2.3,3.15-2.3h1.16v-.46c0-.71-.35-1.16-1.22-1.16s-1.26.42-1.58.87l-1.23-1.09c.59-.87,1.43-1.4,2.97-1.4,2.07,0,3.14.95,3.14,2.69v3.22h.69v1.61h-1.15Zm-1.61-2.23v-.87h-1.01c-.8,0-1.22.29-1.22.83v.21c0,.53.35.79.97.79.69,0,1.26-.28,1.26-.95Z"/>
      <path class="cls-4" d="m324.3,58.14h-.07c-.21.8-1.02,1.4-1.98,1.4-1.86,0-2.83-1.36-2.83-3.85s.97-3.84,2.83-3.84c.95,0,1.77.59,1.98,1.4h.07v-4.24h2.07v10.37h-2.07v-1.23Zm0-1.36v-2.17c0-.67-.57-1.08-1.36-1.08s-1.36.6-1.36,1.53v1.27c0,.92.57,1.53,1.36,1.53s1.36-.41,1.36-1.08Z"/>
      <path class="cls-4" d="m332.64,58.14h-.07c-.25.74-.85,1.4-2.06,1.4-1.5,0-2.3-1.05-2.3-2.9v-4.62h2.07v4.44c0,.9.29,1.4,1.05,1.4.64,0,1.3-.36,1.3-1.06v-4.78h2.07v7.35h-2.07v-1.23Z"/>
      <path class="cls-4" d="m338.7,59.37c-1.41,0-2.06-.71-2.06-2.02v-8.35h2.07v8.75h.92v1.61h-.94Z"/>
      <path class="cls-4" d="m343.39,59.37c-1.43,0-2.19-.74-2.19-2.14v-3.6h-1.04v-1.61h.52c.56,0,.73-.28.73-.79v-1.2h1.86v1.99h1.46v1.61h-1.46v4.13h1.34v1.61h-1.23Z"/>
      <path class="cls-4" d="m345.58,58.22l1.22-1.23c.52.57,1.15.94,1.95.94s1.09-.27,1.09-.7c0-.36-.22-.55-.74-.62l-.8-.1c-1.67-.21-2.48-.94-2.48-2.27,0-1.42,1.11-2.4,2.86-2.4,1.54,0,2.25.42,3,1.15l-1.19,1.22c-.46-.46-1.08-.76-1.69-.76-.7,0-.98.25-.98.62,0,.39.17.6.77.69l.83.11c1.6.21,2.42.94,2.42,2.21,0,1.42-1.26,2.45-3.15,2.45-1.42,0-2.34-.48-3.1-1.32Z"/>
    </g>
    <g>
      <path class="cls-4" d="m359.4,48.73h.78c-1.48,1.33-2.58,3.63-2.58,5.83v.92c0,2.2,1.12,4.52,2.58,5.81h-.78c-1.36-1.18-2.55-3.5-2.55-6.29s1.18-5.07,2.55-6.28Z"/>
      <path class="cls-4" d="m361.49,59.37v-.74h2.86v-8.42h-.07l-2.69,2.4-.48-.53,2.79-2.48h1.29v9.04h2.69v.74h-6.39Z"/>
      <path class="cls-4" d="m369.52,56.77c0-1.36.81-2.2,2.06-2.48v-.1c-1.06-.29-1.74-1.13-1.74-2.31,0-1.48,1.12-2.45,3-2.45s3,.97,3,2.45c0,1.18-.67,2.02-1.74,2.31v.1c1.25.28,2.06,1.12,2.06,2.48,0,1.61-1.19,2.77-3.32,2.77s-3.32-1.16-3.32-2.77Zm5.74.1v-.32c0-1.21-.91-1.95-2.42-1.95s-2.42.74-2.42,1.95v.32c0,1.19.91,1.95,2.42,1.95s2.42-.76,2.42-1.95Zm-.29-4.72v-.25c0-1.08-.78-1.74-2.13-1.74s-2.13.66-2.13,1.74v.25c0,1.09.78,1.74,2.13,1.74s2.13-.64,2.13-1.74Z"/>
      <path class="cls-4" d="m378.07,55.53v-.85h3.49v.85h-3.49Z"/>
      <path class="cls-4" d="m386.35,53.88c1.34,0,2.14-.74,2.14-1.79v-.18c0-1.09-.81-1.72-1.95-1.72s-1.78.49-2.19,1.28l-.63-.45c.45-.84,1.32-1.58,2.83-1.58,1.62,0,2.83.91,2.83,2.45,0,1.32-.83,2.06-1.91,2.31v.06c1.15.2,2.1,1.01,2.1,2.48,0,1.7-1.25,2.82-3.15,2.82-1.57,0-2.48-.69-3.1-1.6l.63-.48c.55.84,1.23,1.32,2.45,1.32,1.42,0,2.27-.76,2.27-1.98v-.22c0-1.22-.83-1.98-2.27-1.98h-1.23v-.73h1.16Z"/>
      <path class="cls-4" d="m391.89,54.48c0-3.35,1.08-5.06,3.31-5.06s3.31,1.71,3.31,5.06-1.08,5.06-3.31,5.06-3.31-1.71-3.31-5.06Zm5.73.66v-1.32c0-2.28-.77-3.67-2.42-3.67s-2.42,1.39-2.42,3.67v1.32c0,2.28.77,3.67,2.42,3.67s2.42-1.39,2.42-3.67Z"/>
      <path class="cls-4" d="m400.23,61.29h-.79c1.46-1.29,2.58-3.61,2.58-5.81v-.92c0-2.2-1.09-4.5-2.58-5.83h.79c1.37,1.2,2.55,3.52,2.55,6.28s-1.19,5.11-2.55,6.29Z"/>
      <path class="cls-4" d="m405.22,58.87v-.15c0-.38.21-.63.67-.63s.67.25.67.63v.15c0,.38-.22.63-.67.63s-.67-.25-.67-.63Z"/>
    </g>
    <g>
      <path class="cls-4" d="m24.44,83.2v6.04c0,2.17.62,3.15,2.54,3.15s2.54-.98,2.54-3.15v-6.04h.84v5.86c0,2.87-.9,4.09-3.4,4.09s-3.35-1.22-3.35-4.09v-5.86h.84Z"/>
      <path class="cls-4" d="m32.22,91.77l.59-.46c.59.77,1.27,1.15,2.23,1.15,1.09,0,1.72-.49,1.72-1.36,0-.76-.43-1.19-1.47-1.34l-.59-.1c-1.3-.2-2.2-.71-2.2-2s1.05-2.02,2.44-2.02c1.19,0,1.92.46,2.45,1.11l-.53.49c-.38-.45-.97-.91-1.96-.91s-1.62.48-1.62,1.29.52,1.15,1.54,1.32l.57.08c1.46.22,2.14.85,2.14,2,0,1.33-.97,2.13-2.55,2.13-1.25,0-2.12-.49-2.76-1.37Z"/>
      <path class="cls-4" d="m39.05,89.39c0-2.35,1.22-3.75,3.12-3.75s3.03,1.43,3.03,3.53v.38h-5.31v.35c0,1.5.87,2.55,2.34,2.55,1.02,0,1.78-.5,2.17-1.44l.59.39c-.45,1.05-1.44,1.75-2.8,1.75-1.92,0-3.14-1.4-3.14-3.75Zm.84-.53v.07h4.44v-.11c0-1.51-.87-2.51-2.16-2.51-1.39,0-2.28,1.04-2.28,2.55Z"/>
      <path class="cls-4" d="m47.23,92.97v-7.17h.8v1.29h.06c.28-.67.91-1.29,2.14-1.29h.48v.78h-.63c-1.19,0-2.04.56-2.04,1.49v4.9h-.8Z"/>
      <path class="cls-4" d="m51.5,91.77l.59-.46c.59.77,1.27,1.15,2.23,1.15,1.09,0,1.72-.49,1.72-1.36,0-.76-.43-1.19-1.47-1.34l-.59-.1c-1.3-.2-2.2-.71-2.2-2s1.05-2.02,2.44-2.02c1.19,0,1.92.46,2.45,1.11l-.53.49c-.38-.45-.97-.91-1.96-.91s-1.62.48-1.62,1.29.52,1.15,1.54,1.32l.57.08c1.46.22,2.14.85,2.14,2,0,1.33-.97,2.13-2.55,2.13-1.25,0-2.12-.49-2.76-1.37Z"/>
      <path class="cls-4" d="m63.09,92.97c-.57,0-.88-.35-.88-.87v-9.5h.8v9.67h1.11v.7h-1.02Z"/>
      <path class="cls-4" d="m65.75,83.35v-.14c0-.29.17-.5.55-.5s.55.21.55.5v.14c0,.29-.17.5-.55.5s-.55-.21-.55-.5Zm.15,2.45h.8v7.17h-.8v-7.17Z"/>
      <path class="cls-4" d="m69.31,82.61h.8v6.85h.04l1.12-1.19,2.38-2.47h.98l-2.82,2.91,3.12,4.26h-.98l-2.72-3.75-1.13,1.15v2.61h-.8v-10.37Z"/>
      <path class="cls-4" d="m75.72,89.39c0-2.35,1.22-3.75,3.12-3.75s3.03,1.43,3.03,3.53v.38h-5.31v.35c0,1.5.87,2.55,2.34,2.55,1.02,0,1.78-.5,2.17-1.44l.59.39c-.45,1.05-1.44,1.75-2.8,1.75-1.92,0-3.14-1.4-3.14-3.75Zm.84-.53v.07h4.44v-.11c0-1.51-.87-2.51-2.16-2.51-1.39,0-2.28,1.04-2.28,2.55Z"/>
      <path class="cls-4" d="m88.43,92.97c-.57,0-.88-.35-.88-.88v-5.59h-1.25v-.7h.81c.39,0,.5-.14.5-.55v-1.46h.73v2h1.62v.7h-1.62v5.77h1.51v.7h-1.43Z"/>
      <path class="cls-4" d="m91.27,89.39c0-2.35,1.23-3.75,3.12-3.75s3.12,1.4,3.12,3.75-1.23,3.75-3.12,3.75-3.12-1.4-3.12-3.75Zm5.39.45v-.9c0-1.67-.88-2.59-2.27-2.59s-2.27.91-2.27,2.59v.9c0,1.67.88,2.59,2.27,2.59s2.27-.91,2.27-2.59Z"/>
    </g>
    <g>
      <path class="cls-4" d="m102.33,83.81v-.31c0-.59.36-1.02,1.2-1.02s1.2.43,1.2,1.02v.31c0,.59-.36,1.02-1.2,1.02s-1.2-.43-1.2-1.02Zm.17,1.81h2.07v7.35h-2.07v-7.35Z"/>
      <path class="cls-4" d="m106.5,92.97v-7.35h2.07v1.25h.08c.27-.77.88-1.42,2.05-1.42,1.5,0,2.3,1.07,2.3,2.91v4.61h-2.07v-4.44c0-.94-.27-1.4-1.02-1.4-.67,0-1.33.35-1.33,1.08v4.76h-2.07Z"/>
      <path class="cls-4" d="m117.42,92.97c-1.43,0-2.19-.74-2.19-2.14v-3.6h-1.04v-1.61h.52c.56,0,.73-.28.73-.79v-1.2h1.86v1.99h1.46v1.61h-1.46v4.13h1.34v1.61h-1.23Z"/>
      <path class="cls-4" d="m119.71,89.29c0-2.33,1.23-3.84,3.45-3.84,2.44,0,3.42,1.77,3.42,3.75v.62h-4.72v.11c0,.97.52,1.58,1.62,1.58.87,0,1.34-.41,1.81-.88l1.04,1.29c-.66.76-1.74,1.22-3.08,1.22-2.26,0-3.53-1.5-3.53-3.85Zm2.14-.8v.11h2.58v-.13c0-.9-.41-1.5-1.23-1.5s-1.34.6-1.34,1.51Z"/>
      <path class="cls-4" d="m128.03,92.97v-7.35h2.07v1.6h.07c.17-.81.73-1.6,1.88-1.6h.36v1.93h-.52c-1.2,0-1.79.27-1.79,1.12v4.3h-2.07Z"/>
      <path class="cls-4" d="m138.94,92.97c-.74,0-1.27-.5-1.4-1.29h-.08c-.22.95-1.04,1.46-2.16,1.46-1.47,0-2.28-.87-2.28-2.14,0-1.56,1.21-2.3,3.15-2.3h1.16v-.46c0-.71-.35-1.16-1.22-1.16s-1.26.42-1.58.87l-1.23-1.09c.59-.87,1.43-1.4,2.97-1.4,2.07,0,3.14.95,3.14,2.69v3.22h.69v1.61h-1.15Zm-1.61-2.23v-.87h-1.01c-.8,0-1.22.29-1.22.83v.21c0,.53.35.79.97.79.69,0,1.26-.28,1.26-.95Z"/>
      <path class="cls-4" d="m141.01,89.29c0-2.35,1.22-3.84,3.43-3.84,1.48,0,2.51.71,2.94,1.92l-1.68.73c-.13-.56-.53-1.01-1.26-1.01-.84,0-1.27.6-1.27,1.53v1.37c0,.92.43,1.51,1.27,1.51s1.16-.5,1.37-1.09l1.61.7c-.49,1.4-1.54,2.03-2.98,2.03-2.21,0-3.43-1.5-3.43-3.85Z"/>
      <path class="cls-4" d="m151.29,92.97c-1.43,0-2.19-.74-2.19-2.14v-3.6h-1.04v-1.61h.52c.56,0,.73-.28.73-.79v-1.2h1.86v1.99h1.46v1.61h-1.46v4.13h1.34v1.61h-1.23Z"/>
    </g>
    <g>
      <path class="cls-4" d="m156.85,85.8h.78l1.72,6.46h.03l1.91-6.46h.74l1.92,6.46h.03l1.71-6.46h.77l-2.02,7.17h-.98l-1.81-6.04h-.03l-1.79,6.04h-.97l-2.02-7.17Z"/>
      <path class="cls-4" d="m168.06,83.35v-.14c0-.29.17-.5.55-.5s.55.21.55.5v.14c0,.29-.17.5-.55.5s-.55-.21-.55-.5Zm.15,2.45h.8v7.17h-.8v-7.17Z"/>
      <path class="cls-4" d="m172.85,92.97c-.57,0-.88-.35-.88-.88v-5.59h-1.25v-.7h.81c.39,0,.5-.14.5-.55v-1.46h.73v2h1.62v.7h-1.62v5.77h1.51v.7h-1.43Z"/>
      <path class="cls-4" d="m176.31,82.61h.8v4.33h.04c.32-.74.97-1.3,2.12-1.3,1.53,0,2.42.98,2.42,2.73v4.61h-.8v-4.47c0-1.46-.64-2.16-1.83-2.16-1.01,0-1.95.52-1.95,1.58v5.04h-.8v-10.37Z"/>
      <path class="cls-4" d="m188.73,92.97c-.57,0-.88-.35-.88-.88v-5.59h-1.25v-.7h.81c.39,0,.5-.14.5-.55v-1.46h.73v2h1.62v.7h-1.62v5.77h1.51v.7h-1.43Z"/>
      <path class="cls-4" d="m192.18,82.61h.8v4.33h.04c.32-.74.97-1.3,2.12-1.3,1.53,0,2.42.98,2.42,2.73v4.61h-.8v-4.47c0-1.46-.64-2.16-1.83-2.16-1.01,0-1.95.52-1.95,1.58v5.04h-.8v-10.37Z"/>
      <path class="cls-4" d="m199.49,89.39c0-2.35,1.22-3.75,3.12-3.75s3.03,1.43,3.03,3.53v.38h-5.31v.35c0,1.5.87,2.55,2.34,2.55,1.02,0,1.78-.5,2.17-1.44l.59.39c-.45,1.05-1.44,1.75-2.8,1.75-1.92,0-3.14-1.4-3.14-3.75Zm.84-.53v.07h4.44v-.11c0-1.51-.87-2.51-2.16-2.51-1.39,0-2.28,1.04-2.28,2.55Z"/>
      <path class="cls-4" d="m207.51,83.35v-.14c0-.29.17-.5.55-.5s.55.21.55.5v.14c0,.29-.17.5-.55.5s-.55-.21-.55-.5Zm.15,2.45h.8v7.17h-.8v-7.17Z"/>
      <path class="cls-4" d="m211.07,92.97v-7.17h.8v1.29h.06c.28-.67.91-1.29,2.14-1.29h.48v.78h-.63c-1.19,0-2.05.56-2.05,1.49v4.9h-.8Z"/>
      <path class="cls-4" d="m219.37,82.61h.8v4.33h.04c.32-.74.97-1.3,2.12-1.3,1.53,0,2.42.98,2.42,2.73v4.61h-.8v-4.47c0-1.46-.64-2.16-1.83-2.16-1.01,0-1.95.52-1.95,1.58v5.04h-.8v-10.37Z"/>
      <path class="cls-4" d="m226.68,89.39c0-2.35,1.22-3.75,3.12-3.75s3.03,1.43,3.03,3.53v.38h-5.31v.35c0,1.5.87,2.55,2.34,2.55,1.02,0,1.78-.5,2.17-1.44l.59.39c-.45,1.05-1.44,1.75-2.8,1.75-1.92,0-3.14-1.4-3.14-3.75Zm.84-.53v.07h4.44v-.11c0-1.51-.87-2.51-2.16-2.51-1.39,0-2.28,1.04-2.28,2.55Z"/>
      <path class="cls-4" d="m239.78,92.97c-.62,0-.87-.35-.91-.88v-.25h-.07c-.32.8-1.05,1.3-2.17,1.3-1.5,0-2.37-.78-2.37-2.12s.84-2.07,2.91-2.07h1.65v-.84c0-1.18-.62-1.78-1.83-1.78-.95,0-1.57.42-1.96,1.16l-.5-.42c.39-.83,1.19-1.44,2.49-1.44,1.67,0,2.6.88,2.6,2.4v4.24h.97v.7h-.81Zm-.95-2.09v-1.33h-1.68c-1.43,0-2.05.49-2.05,1.29v.34c0,.83.66,1.27,1.64,1.27,1.16,0,2.09-.6,2.09-1.57Z"/>
      <path class="cls-4" d="m243.48,92.97c-.57,0-.88-.35-.88-.88v-5.59h-1.25v-.7h.81c.39,0,.5-.14.5-.55v-1.46h.73v2h1.62v.7h-1.62v5.77h1.51v.7h-1.43Z"/>
      <path class="cls-4" d="m246.32,89.39c0-2.35,1.22-3.75,3.12-3.75s3.03,1.43,3.03,3.53v.38h-5.31v.35c0,1.5.87,2.55,2.34,2.55,1.02,0,1.78-.5,2.17-1.44l.59.39c-.45,1.05-1.44,1.75-2.8,1.75-1.92,0-3.14-1.4-3.14-3.75Zm.84-.53v.07h4.44v-.11c0-1.51-.87-2.51-2.16-2.51-1.39,0-2.28,1.04-2.28,2.55Z"/>
      <path class="cls-4" d="m254.5,92.97v-7.17h.8v1.29h.06c.28-.67.91-1.29,2.14-1.29h.48v.78h-.63c-1.19,0-2.04.56-2.04,1.49v4.9h-.8Z"/>
      <path class="cls-4" d="m258.77,91.77l.59-.46c.59.77,1.28,1.15,2.23,1.15,1.09,0,1.72-.49,1.72-1.36,0-.76-.43-1.19-1.47-1.34l-.59-.1c-1.3-.2-2.2-.71-2.2-2s1.05-2.02,2.44-2.02c1.19,0,1.92.46,2.45,1.11l-.53.49c-.38-.45-.97-.91-1.96-.91s-1.62.48-1.62,1.29.52,1.15,1.54,1.32l.58.08c1.46.22,2.14.85,2.14,2,0,1.33-.97,2.13-2.55,2.13-1.25,0-2.12-.49-2.76-1.37Z"/>
    </g>
    <g>
      <path class="cls-4" d="m273.48,91.74h-.07c-.25.74-.85,1.4-2.06,1.4-1.5,0-2.3-1.05-2.3-2.9v-4.62h2.07v4.44c0,.9.29,1.4,1.05,1.4.64,0,1.3-.36,1.3-1.06v-4.78h2.07v7.35h-2.07v-1.23Z"/>
      <path class="cls-4" d="m276.88,91.82l1.22-1.23c.52.57,1.15.94,1.95.94s1.09-.27,1.09-.7c0-.36-.22-.55-.74-.62l-.8-.1c-1.67-.21-2.48-.94-2.48-2.27,0-1.42,1.11-2.4,2.86-2.4,1.54,0,2.25.42,3,1.15l-1.19,1.22c-.46-.46-1.08-.76-1.69-.76-.7,0-.98.25-.98.62,0,.39.17.6.77.69l.83.11c1.6.21,2.42.94,2.42,2.21,0,1.42-1.26,2.45-3.15,2.45-1.42,0-2.34-.48-3.1-1.32Z"/>
      <path class="cls-4" d="m284.37,83.81v-.31c0-.59.36-1.02,1.21-1.02s1.2.43,1.2,1.02v.31c0,.59-.36,1.02-1.2,1.02s-1.21-.43-1.21-1.02Zm.17,1.81h2.07v7.35h-2.07v-7.35Z"/>
      <path class="cls-4" d="m288.54,92.97v-7.35h2.07v1.25h.08c.27-.77.88-1.42,2.05-1.42,1.5,0,2.3,1.07,2.3,2.91v4.61h-2.07v-4.44c0-.94-.27-1.4-1.02-1.4-.67,0-1.33.35-1.33,1.08v4.76h-2.07Z"/>
      <path class="cls-4" d="m299.72,95.94c-2.55,0-3.49-.64-3.49-1.71,0-.81.52-1.29,1.37-1.4v-.15c-.7-.13-1.06-.66-1.06-1.29,0-.77.69-1.16,1.37-1.3v-.06c-.88-.41-1.32-1.15-1.32-2.1,0-1.48,1.04-2.48,3.15-2.48.46,0,.88.04,1.25.14v-.28c0-.77.41-1.11,1.11-1.11h1.16v1.54h-1.62v.08c.85.41,1.26,1.16,1.26,2.1,0,1.47-1.02,2.44-3.15,2.44-.49,0-.92-.06-1.3-.15-.2.13-.32.34-.32.59,0,.35.25.56.88.56h2.13c1.79,0,2.56.79,2.56,2.14,0,1.55-.98,2.44-3.98,2.44Zm.9-2.82h-2.52c-.18.18-.27.43-.27.66,0,.53.42.78,1.54.78h.84c1.12,0,1.54-.25,1.54-.78,0-.42-.31-.66-1.13-.66Zm.35-5.13v-.17c0-.64-.41-1.01-1.22-1.01s-1.22.36-1.22,1.01v.17c0,.64.41,1.01,1.22,1.01s1.22-.36,1.22-1.01Z"/>
      <path class="cls-4" d="m310.5,92.97c-1.43,0-2.19-.74-2.19-2.14v-3.6h-1.04v-1.61h.52c.56,0,.73-.28.73-.79v-1.2h1.86v1.99h1.46v1.61h-1.46v4.13h1.34v1.61h-1.23Z"/>
      <path class="cls-4" d="m313.28,82.61h2.07v4.26h.08c.27-.77.88-1.42,2.04-1.42,1.5,0,2.3,1.07,2.3,2.91v4.61h-2.07v-4.44c0-.94-.27-1.4-1.02-1.4-.67,0-1.33.35-1.33,1.08v4.76h-2.07v-10.37Z"/>
      <path class="cls-4" d="m321.16,89.29c0-2.33,1.23-3.84,3.45-3.84,2.44,0,3.42,1.77,3.42,3.75v.62h-4.72v.11c0,.97.52,1.58,1.62,1.58.87,0,1.34-.41,1.81-.88l1.04,1.29c-.66.76-1.74,1.22-3.08,1.22-2.25,0-3.53-1.5-3.53-3.85Zm2.14-.8v.11h2.58v-.13c0-.9-.41-1.5-1.23-1.5s-1.34.6-1.34,1.51Z"/>
      <path class="cls-4" d="m329.32,83.81v-.31c0-.59.36-1.02,1.2-1.02s1.21.43,1.21,1.02v.31c0,.59-.36,1.02-1.21,1.02s-1.2-.43-1.2-1.02Zm.17,1.81h2.07v7.35h-2.07v-7.35Z"/>
      <path class="cls-4" d="m333.5,92.97v-7.35h2.07v1.6h.07c.17-.81.73-1.6,1.88-1.6h.36v1.93h-.52c-1.21,0-1.79.27-1.79,1.12v4.3h-2.07Z"/>
      <path class="cls-4" d="m342.82,87.23h-1.04v-1.61h1.04v-.87c0-1.42.77-2.14,2.2-2.14h1.34v1.61h-1.47v1.4h1.47v1.61h-1.47v5.74h-2.07v-5.74Z"/>
      <path class="cls-4" d="m347.01,89.29c0-2.33,1.23-3.84,3.45-3.84,2.44,0,3.42,1.77,3.42,3.75v.62h-4.72v.11c0,.97.52,1.58,1.62,1.58.87,0,1.34-.41,1.81-.88l1.04,1.29c-.66.76-1.74,1.22-3.08,1.22-2.25,0-3.53-1.5-3.53-3.85Zm2.14-.8v.11h2.58v-.13c0-.9-.41-1.5-1.23-1.5s-1.34.6-1.34,1.51Z"/>
      <path class="cls-4" d="m354.87,89.29c0-2.33,1.23-3.84,3.45-3.84,2.44,0,3.42,1.77,3.42,3.75v.62h-4.72v.11c0,.97.52,1.58,1.62,1.58.87,0,1.34-.41,1.81-.88l1.04,1.29c-.66.76-1.74,1.22-3.08,1.22-2.25,0-3.53-1.5-3.53-3.85Zm2.14-.8v.11h2.58v-.13c0-.9-.41-1.5-1.23-1.5s-1.34.6-1.34,1.51Z"/>
      <path class="cls-4" d="m365.78,92.97c-1.43,0-2.19-.74-2.19-2.14v-3.6h-1.04v-1.61h.52c.56,0,.73-.28.73-.79v-1.2h1.86v1.99h1.46v1.61h-1.46v4.13h1.34v1.61h-1.23Z"/>
      <path class="cls-4" d="m368.54,92.01v-.28c0-.64.39-1.12,1.23-1.12s1.23.48,1.23,1.12v.28c0,.64-.39,1.12-1.23,1.12s-1.23-.48-1.23-1.12Z"/>
    </g>
    <g>
      <path class="cls-4" d="m26.69,117.54v9.04h-.84v-9.04h-3.28v-.74h7.4v.74h-3.28Z"/>
      <path class="cls-4" d="m31.55,116.21h.8v4.33h.04c.32-.74.97-1.3,2.12-1.3,1.53,0,2.42.98,2.42,2.73v4.61h-.8v-4.47c0-1.46-.64-2.16-1.83-2.16-1.01,0-1.95.52-1.95,1.58v5.04h-.8v-10.37Z"/>
      <path class="cls-4" d="m38.86,122.99c0-2.35,1.22-3.75,3.12-3.75s3.03,1.43,3.03,3.53v.38h-5.31v.35c0,1.5.87,2.55,2.34,2.55,1.02,0,1.78-.5,2.17-1.44l.59.39c-.45,1.05-1.44,1.75-2.8,1.75-1.92,0-3.14-1.4-3.14-3.75Zm.84-.53v.07h4.44v-.11c0-1.51-.87-2.51-2.16-2.51-1.39,0-2.28,1.04-2.28,2.55Z"/>
      <path class="cls-4" d="m49.61,125.37l.59-.46c.59.77,1.27,1.15,2.23,1.15,1.09,0,1.72-.49,1.72-1.36,0-.76-.43-1.19-1.47-1.34l-.59-.1c-1.3-.2-2.2-.71-2.2-2s1.05-2.02,2.44-2.02c1.19,0,1.92.46,2.45,1.11l-.53.49c-.38-.45-.97-.91-1.96-.91s-1.62.48-1.62,1.29.52,1.15,1.54,1.32l.57.08c1.46.22,2.14.85,2.14,2,0,1.33-.97,2.13-2.55,2.13-1.25,0-2.12-.49-2.76-1.37Z"/>
      <path class="cls-4" d="m58.21,126.57c-.57,0-.88-.35-.88-.88v-5.59h-1.25v-.7h.81c.39,0,.5-.14.5-.55v-1.46h.73v2h1.62v.7h-1.62v5.77h1.51v.7h-1.43Z"/>
      <path class="cls-4" d="m66.59,126.57c-.62,0-.87-.35-.91-.88v-.25h-.07c-.32.8-1.05,1.3-2.17,1.3-1.5,0-2.37-.78-2.37-2.12s.84-2.07,2.91-2.07h1.65v-.84c0-1.18-.62-1.78-1.83-1.78-.95,0-1.57.42-1.96,1.16l-.5-.42c.39-.83,1.19-1.44,2.49-1.44,1.67,0,2.6.88,2.6,2.4v4.24h.97v.7h-.81Zm-.95-2.09v-1.33h-1.68c-1.43,0-2.05.49-2.05,1.29v.34c0,.83.66,1.27,1.64,1.27,1.16,0,2.09-.6,2.09-1.57Z"/>
      <path class="cls-4" d="m69.04,126.57v-7.17h.8v1.13h.04c.32-.74.97-1.3,2.12-1.3,1.53,0,2.42.98,2.42,2.73v4.61h-.8v-4.47c0-1.46-.64-2.16-1.83-2.16-1.01,0-1.95.52-1.95,1.58v5.04h-.8Z"/>
      <path class="cls-4" d="m81.56,125.42h-.04c-.38.8-1.09,1.32-2.19,1.32-1.83,0-2.96-1.39-2.96-3.75s1.12-3.75,2.96-3.75c1.09,0,1.83.52,2.19,1.32h.04v-4.34h.8v10.37h-.8v-1.15Zm0-1.04v-2.84c0-.94-.94-1.6-2.04-1.6-1.43,0-2.28,1-2.28,2.54v1.01c0,1.54.85,2.54,2.28,2.54,1.11,0,2.04-.63,2.04-1.64Z"/>
      <path class="cls-4" d="m89.89,126.57c-.62,0-.87-.35-.91-.88v-.25h-.07c-.32.8-1.05,1.3-2.17,1.3-1.5,0-2.37-.78-2.37-2.12s.84-2.07,2.91-2.07h1.65v-.84c0-1.18-.62-1.78-1.83-1.78-.95,0-1.57.42-1.96,1.16l-.5-.42c.39-.83,1.19-1.44,2.49-1.44,1.67,0,2.61.88,2.61,2.4v4.24h.97v.7h-.81Zm-.95-2.09v-1.33h-1.68c-1.43,0-2.05.49-2.05,1.29v.34c0,.83.66,1.27,1.64,1.27,1.16,0,2.09-.6,2.09-1.57Z"/>
      <path class="cls-4" d="m92.34,126.57v-7.17h.8v1.29h.06c.28-.67.91-1.29,2.14-1.29h.48v.78h-.63c-1.19,0-2.05.56-2.05,1.49v4.9h-.8Z"/>
      <path class="cls-4" d="m101.91,125.42h-.04c-.38.8-1.09,1.32-2.19,1.32-1.83,0-2.96-1.39-2.96-3.75s1.12-3.75,2.96-3.75c1.09,0,1.83.52,2.19,1.32h.04v-4.34h.8v10.37h-.8v-1.15Zm0-1.04v-2.84c0-.94-.94-1.6-2.04-1.6-1.43,0-2.28,1-2.28,2.54v1.01c0,1.54.85,2.54,2.28,2.54,1.11,0,2.04-.63,2.04-1.64Z"/>
    </g>
    <g>
      <path class="cls-4" d="m110.84,126.57c-1.43,0-2.19-.74-2.19-2.14v-3.6h-1.04v-1.61h.52c.56,0,.73-.28.73-.79v-1.2h1.86v1.99h1.46v1.61h-1.46v4.13h1.34v1.61h-1.23Z"/>
      <path class="cls-4" d="m113.63,116.21h2.07v4.26h.08c.27-.77.88-1.42,2.05-1.42,1.5,0,2.3,1.07,2.3,2.91v4.61h-2.07v-4.44c0-.94-.27-1.4-1.02-1.4-.67,0-1.33.35-1.33,1.08v4.76h-2.07v-10.37Z"/>
      <path class="cls-4" d="m121.51,122.89c0-2.33,1.23-3.84,3.45-3.84,2.44,0,3.42,1.77,3.42,3.75v.62h-4.72v.11c0,.97.52,1.58,1.62,1.58.87,0,1.34-.41,1.81-.88l1.04,1.29c-.66.76-1.74,1.22-3.08,1.22-2.26,0-3.53-1.5-3.53-3.85Zm2.14-.8v.11h2.58v-.13c0-.9-.41-1.5-1.23-1.5s-1.34.6-1.34,1.51Z"/>
      <path class="cls-4" d="m129.84,126.57v-7.35h2.07v1.6h.07c.17-.81.73-1.6,1.88-1.6h.36v1.93h-.52c-1.2,0-1.79.27-1.79,1.12v4.3h-2.07Z"/>
      <path class="cls-4" d="m135.5,126.57v-7.35h2.07v1.25h.08c.27-.78.88-1.42,1.98-1.42,1.01,0,1.74.52,2.06,1.49h.04c.27-.83,1.12-1.49,2.24-1.49,1.42,0,2.2,1.07,2.2,2.91v4.61h-2.07v-4.44c0-.95-.32-1.4-1.01-1.4-.62,0-1.22.35-1.22,1.08v4.76h-2.07v-4.44c0-.95-.34-1.4-1.01-1.4-.6,0-1.22.35-1.22,1.08v4.76h-2.07Z"/>
      <path class="cls-4" d="m147.55,122.89c0-2.37,1.29-3.84,3.45-3.84s3.45,1.47,3.45,3.84-1.29,3.85-3.45,3.85-3.45-1.48-3.45-3.85Zm4.73.76v-1.5c0-.92-.48-1.46-1.29-1.46s-1.29.53-1.29,1.46v1.5c0,.92.48,1.46,1.29,1.46s1.29-.53,1.29-1.46Z"/>
      <path class="cls-4" d="m155.31,125.42l1.22-1.23c.52.57,1.15.94,1.95.94s1.09-.27,1.09-.7c0-.36-.22-.55-.74-.62l-.8-.1c-1.67-.21-2.48-.94-2.48-2.27,0-1.42,1.11-2.4,2.86-2.4,1.54,0,2.25.42,3,1.15l-1.19,1.22c-.46-.46-1.08-.76-1.69-.76-.7,0-.98.25-.98.62,0,.39.17.6.77.69l.83.11c1.6.21,2.42.94,2.42,2.21,0,1.42-1.26,2.45-3.15,2.45-1.42,0-2.34-.48-3.1-1.32Z"/>
      <path class="cls-4" d="m165.44,126.57c-1.43,0-2.19-.74-2.19-2.14v-3.6h-1.04v-1.61h.52c.56,0,.73-.28.73-.79v-1.2h1.86v1.99h1.46v1.61h-1.46v4.13h1.34v1.61h-1.23Z"/>
      <path class="cls-4" d="m173.66,126.57c-.74,0-1.27-.5-1.4-1.29h-.08c-.22.95-1.04,1.46-2.16,1.46-1.47,0-2.28-.87-2.28-2.14,0-1.56,1.21-2.3,3.15-2.3h1.16v-.46c0-.71-.35-1.16-1.22-1.16s-1.26.42-1.58.87l-1.23-1.09c.59-.87,1.43-1.4,2.97-1.4,2.07,0,3.14.95,3.14,2.69v3.22h.69v1.61h-1.15Zm-1.61-2.23v-.87h-1.01c-.8,0-1.22.29-1.22.83v.21c0,.53.35.79.97.79.69,0,1.26-.28,1.26-.95Z"/>
      <path class="cls-4" d="m178.69,126.57c-1.43,0-2.19-.74-2.19-2.14v-3.6h-1.04v-1.61h.52c.56,0,.73-.28.73-.79v-1.2h1.86v1.99h1.46v1.61h-1.46v4.13h1.34v1.61h-1.23Z"/>
    </g>
    <g>
      <path class="cls-4" d="m184.37,125.37l.59-.46c.59.77,1.27,1.15,2.23,1.15,1.09,0,1.72-.49,1.72-1.36,0-.76-.43-1.19-1.47-1.34l-.59-.1c-1.3-.2-2.2-.71-2.2-2s1.05-2.02,2.44-2.02c1.19,0,1.92.46,2.45,1.11l-.53.49c-.38-.45-.97-.91-1.96-.91s-1.62.48-1.62,1.29.52,1.15,1.54,1.32l.57.08c1.46.22,2.14.85,2.14,2,0,1.33-.97,2.13-2.55,2.13-1.25,0-2.12-.49-2.76-1.37Z"/>
      <path class="cls-4" d="m191.2,122.99c0-2.35,1.22-3.75,3.12-3.75s3.03,1.43,3.03,3.53v.38h-5.31v.35c0,1.5.87,2.55,2.34,2.55,1.02,0,1.78-.5,2.17-1.44l.59.39c-.45,1.05-1.44,1.75-2.8,1.75-1.92,0-3.14-1.4-3.14-3.75Zm.84-.53v.07h4.44v-.11c0-1.51-.87-2.51-2.16-2.51-1.39,0-2.28,1.04-2.28,2.55Z"/>
      <path class="cls-4" d="m200.61,126.57c-.57,0-.88-.35-.88-.88v-5.59h-1.25v-.7h.81c.39,0,.5-.14.5-.55v-1.46h.73v2h1.62v.7h-1.62v5.77h1.51v.7h-1.43Z"/>
      <path class="cls-4" d="m205.16,126.57c-.57,0-.88-.35-.88-.88v-5.59h-1.25v-.7h.81c.39,0,.5-.14.5-.55v-1.46h.73v2h1.62v.7h-1.62v5.77h1.51v.7h-1.43Z"/>
      <path class="cls-4" d="m208.46,116.95v-.14c0-.29.17-.5.55-.5s.55.21.55.5v.14c0,.29-.17.5-.55.5s-.55-.21-.55-.5Zm.15,2.45h.8v7.17h-.8v-7.17Z"/>
      <path class="cls-4" d="m212.02,126.57v-7.17h.8v1.13h.04c.32-.74.97-1.3,2.12-1.3,1.53,0,2.42.98,2.42,2.73v4.61h-.8v-4.47c0-1.46-.64-2.16-1.83-2.16-1.01,0-1.95.52-1.95,1.58v5.04h-.8Z"/>
      <path class="cls-4" d="m222.34,129.54c-2.19,0-3.1-.67-3.1-1.79,0-.81.46-1.29,1.23-1.51v-.11c-.45-.18-.67-.5-.67-.98,0-.7.53-1.05,1.22-1.23v-.06c-.83-.38-1.33-1.15-1.33-2.18,0-1.44,1.02-2.44,2.61-2.44.56,0,1.05.13,1.44.35v-.35c0-.43.2-.73.66-.73h1.23v.7h-1.46v.69c.48.43.76,1.05.76,1.78,0,1.46-1.04,2.45-2.62,2.45-.25,0-.5-.04-.74-.08-.62.17-1.06.45-1.06.92,0,.42.36.64,1.15.64h1.67c1.72,0,2.47.69,2.47,1.81,0,1.46-1.2,2.13-3.45,2.13Zm.98-3.19h-2.33c-.62.21-.99.62-.99,1.23,0,.74.62,1.3,1.86,1.3h.9c1.39,0,2.26-.45,2.26-1.42,0-.69-.42-1.12-1.69-1.12Zm.76-4.46v-.45c0-.98-.67-1.57-1.77-1.57s-1.76.59-1.76,1.57v.45c0,1.01.67,1.58,1.76,1.58s1.77-.57,1.77-1.58Z"/>
      <path class="cls-4" d="m230.46,116.95v-.14c0-.29.17-.5.55-.5s.55.21.55.5v.14c0,.29-.17.5-.55.5s-.55-.21-.55-.5Zm.15,2.45h.8v7.17h-.8v-7.17Z"/>
      <path class="cls-4" d="m233.28,125.37l.59-.46c.59.77,1.27,1.15,2.23,1.15,1.09,0,1.72-.49,1.72-1.36,0-.76-.43-1.19-1.47-1.34l-.59-.1c-1.3-.2-2.2-.71-2.2-2s1.05-2.02,2.44-2.02c1.19,0,1.92.46,2.45,1.11l-.53.49c-.38-.45-.97-.91-1.96-.91s-1.62.48-1.62,1.29.52,1.15,1.54,1.32l.57.08c1.46.22,2.14.85,2.14,2,0,1.33-.97,2.13-2.55,2.13-1.25,0-2.12-.49-2.76-1.37Z"/>
      <path class="cls-4" d="m243.99,126.57v-7.17h.8v1.13h.04c.29-.7.85-1.3,2.03-1.3,1.02,0,1.86.48,2.21,1.51h.04c.27-.84.98-1.51,2.25-1.51,1.53,0,2.38.98,2.38,2.73v4.61h-.8v-4.47c0-1.44-.6-2.16-1.81-2.16-.99,0-1.88.53-1.88,1.6v5.03h-.8v-4.47c0-1.46-.62-2.16-1.79-2.16-.98,0-1.89.52-1.89,1.58v5.04h-.8Z"/>
      <path class="cls-4" d="m256.1,116.95v-.14c0-.29.17-.5.55-.5s.55.21.55.5v.14c0,.29-.17.5-.55.5s-.55-.21-.55-.5Zm.15,2.45h.8v7.17h-.8v-7.17Z"/>
      <path class="cls-4" d="m258.93,125.37l.59-.46c.59.77,1.28,1.15,2.23,1.15,1.09,0,1.72-.49,1.72-1.36,0-.76-.43-1.19-1.47-1.34l-.59-.1c-1.3-.2-2.2-.71-2.2-2s1.05-2.02,2.44-2.02c1.19,0,1.92.46,2.45,1.11l-.53.49c-.38-.45-.97-.91-1.96-.91s-1.62.48-1.62,1.29.52,1.15,1.54,1.32l.58.08c1.46.22,2.14.85,2.14,2,0,1.33-.97,2.13-2.55,2.13-1.25,0-2.12-.49-2.76-1.37Z"/>
      <path class="cls-4" d="m267.22,126.57c-.57,0-.88-.35-.88-.87v-9.5h.8v9.67h1.11v.7h-1.02Z"/>
      <path class="cls-4" d="m269.46,122.99c0-2.35,1.22-3.75,3.12-3.75s3.03,1.43,3.03,3.53v.38h-5.31v.35c0,1.5.87,2.55,2.34,2.55,1.02,0,1.78-.5,2.17-1.44l.59.39c-.45,1.05-1.44,1.75-2.8,1.75-1.92,0-3.14-1.4-3.14-3.75Zm.84-.53v.07h4.44v-.11c0-1.51-.87-2.51-2.16-2.51-1.39,0-2.28,1.04-2.28,2.55Z"/>
      <path class="cls-4" d="m282.57,126.57c-.62,0-.87-.35-.91-.88v-.25h-.07c-.32.8-1.05,1.3-2.17,1.3-1.5,0-2.37-.78-2.37-2.12s.84-2.07,2.91-2.07h1.65v-.84c0-1.18-.62-1.78-1.83-1.78-.95,0-1.57.42-1.96,1.16l-.5-.42c.39-.83,1.19-1.44,2.49-1.44,1.67,0,2.61.88,2.61,2.4v4.24h.97v.7h-.81Zm-.95-2.09v-1.33h-1.68c-1.43,0-2.04.49-2.04,1.29v.34c0,.83.66,1.27,1.64,1.27,1.16,0,2.09-.6,2.09-1.57Z"/>
      <path class="cls-4" d="m289.65,125.42h-.04c-.38.8-1.09,1.32-2.18,1.32-1.83,0-2.96-1.39-2.96-3.75s1.12-3.75,2.96-3.75c1.09,0,1.83.52,2.18,1.32h.04v-4.34h.8v10.37h-.8v-1.15Zm0-1.04v-2.84c0-.94-.94-1.6-2.04-1.6-1.43,0-2.28,1-2.28,2.54v1.01c0,1.54.85,2.54,2.28,2.54,1.11,0,2.04-.63,2.04-1.64Z"/>
      <path class="cls-4" d="m292.9,116.95v-.14c0-.29.17-.5.55-.5s.55.21.55.5v.14c0,.29-.17.5-.55.5s-.55-.21-.55-.5Zm.15,2.45h.8v7.17h-.8v-7.17Z"/>
      <path class="cls-4" d="m296.45,126.57v-7.17h.8v1.13h.04c.32-.74.97-1.3,2.12-1.3,1.53,0,2.42.98,2.42,2.73v4.61h-.8v-4.47c0-1.46-.64-2.16-1.83-2.16-1.01,0-1.95.52-1.95,1.58v5.04h-.8Z"/>
      <path class="cls-4" d="m306.77,129.54c-2.19,0-3.1-.67-3.1-1.79,0-.81.46-1.29,1.23-1.51v-.11c-.45-.18-.67-.5-.67-.98,0-.7.53-1.05,1.22-1.23v-.06c-.83-.38-1.33-1.15-1.33-2.18,0-1.44,1.02-2.44,2.61-2.44.56,0,1.05.13,1.44.35v-.35c0-.43.2-.73.66-.73h1.23v.7h-1.46v.69c.48.43.76,1.05.76,1.78,0,1.46-1.04,2.45-2.62,2.45-.25,0-.5-.04-.74-.08-.62.17-1.06.45-1.06.92,0,.42.36.64,1.15.64h1.67c1.72,0,2.46.69,2.46,1.81,0,1.46-1.2,2.13-3.45,2.13Zm.98-3.19h-2.33c-.62.21-1,.62-1,1.23,0,.74.62,1.3,1.86,1.3h.9c1.39,0,2.25-.45,2.25-1.42,0-.69-.42-1.12-1.69-1.12Zm.76-4.46v-.45c0-.98-.67-1.57-1.76-1.57s-1.76.59-1.76,1.57v.45c0,1.01.67,1.58,1.76,1.58s1.76-.57,1.76-1.58Z"/>
      <path class="cls-4" d="m319.97,126.57c-.62,0-.87-.35-.91-.88v-.25h-.07c-.32.8-1.05,1.3-2.17,1.3-1.5,0-2.37-.78-2.37-2.12s.84-2.07,2.91-2.07h1.65v-.84c0-1.18-.62-1.78-1.83-1.78-.95,0-1.57.42-1.96,1.16l-.5-.42c.39-.83,1.19-1.44,2.49-1.44,1.67,0,2.61.88,2.61,2.4v4.24h.97v.7h-.81Zm-.95-2.09v-1.33h-1.68c-1.43,0-2.04.49-2.04,1.29v.34c0,.83.66,1.27,1.64,1.27,1.16,0,2.09-.6,2.09-1.57Z"/>
      <path class="cls-4" d="m322.42,126.57v-7.17h.8v1.13h.04c.32-.74.97-1.3,2.11-1.3,1.53,0,2.42.98,2.42,2.73v4.61h-.8v-4.47c0-1.46-.64-2.16-1.83-2.16-1.01,0-1.95.52-1.95,1.58v5.04h-.8Z"/>
      <path class="cls-4" d="m334.94,125.42h-.04c-.38.8-1.09,1.32-2.19,1.32-1.83,0-2.96-1.39-2.96-3.75s1.12-3.75,2.96-3.75c1.09,0,1.83.52,2.19,1.32h.04v-4.34h.8v10.37h-.8v-1.15Zm0-1.04v-2.84c0-.94-.94-1.6-2.04-1.6-1.43,0-2.28,1-2.28,2.54v1.01c0,1.54.85,2.54,2.28,2.54,1.11,0,2.04-.63,2.04-1.64Z"/>
    </g>
    <text class="cls-3" transform="translate(337.03 126.57)"><tspan x="0" y="0"> </tspan></text>
    <g>
      <path class="cls-4" d="m345.64,125.34h-.07c-.25.74-.85,1.4-2.06,1.4-1.5,0-2.3-1.05-2.3-2.9v-4.62h2.07v4.44c0,.9.29,1.4,1.05,1.4.64,0,1.3-.36,1.3-1.06v-4.78h2.07v7.35h-2.07v-1.23Z"/>
      <path class="cls-4" d="m349.64,126.57v-7.35h2.07v1.25h.08c.27-.77.88-1.42,2.04-1.42,1.5,0,2.3,1.07,2.3,2.91v4.61h-2.07v-4.44c0-.94-.27-1.4-1.02-1.4-.67,0-1.33.35-1.33,1.08v4.76h-2.07Z"/>
      <path class="cls-4" d="m357.98,126.57v-7.35h2.07v1.25h.08c.27-.77.88-1.42,2.04-1.42,1.5,0,2.3,1.07,2.3,2.91v4.61h-2.07v-4.44c0-.94-.27-1.4-1.02-1.4-.67,0-1.33.35-1.33,1.08v4.76h-2.07Z"/>
      <path class="cls-4" d="m365.86,122.89c0-2.33,1.23-3.84,3.45-3.84,2.44,0,3.42,1.77,3.42,3.75v.62h-4.72v.11c0,.97.52,1.58,1.62,1.58.87,0,1.34-.41,1.81-.88l1.04,1.29c-.66.76-1.74,1.22-3.08,1.22-2.25,0-3.53-1.5-3.53-3.85Zm2.14-.8v.11h2.58v-.13c0-.9-.41-1.5-1.23-1.5s-1.34.6-1.34,1.51Z"/>
      <path class="cls-4" d="m373.73,122.89c0-2.35,1.22-3.84,3.43-3.84,1.48,0,2.51.71,2.94,1.92l-1.68.73c-.13-.56-.53-1.01-1.26-1.01-.84,0-1.28.6-1.28,1.53v1.37c0,.92.43,1.51,1.28,1.51s1.16-.5,1.37-1.09l1.61.7c-.49,1.4-1.54,2.03-2.98,2.03-2.21,0-3.43-1.5-3.43-3.85Z"/>
      <path class="cls-4" d="m380.9,122.89c0-2.33,1.23-3.84,3.45-3.84,2.44,0,3.42,1.77,3.42,3.75v.62h-4.72v.11c0,.97.52,1.58,1.62,1.58.87,0,1.34-.41,1.81-.88l1.04,1.29c-.66.76-1.74,1.22-3.08,1.22-2.25,0-3.53-1.5-3.53-3.85Zm2.14-.8v.11h2.58v-.13c0-.9-.41-1.5-1.23-1.5s-1.34.6-1.34,1.51Z"/>
      <path class="cls-4" d="m388.63,125.42l1.22-1.23c.52.57,1.15.94,1.95.94s1.09-.27,1.09-.7c0-.36-.22-.55-.74-.62l-.8-.1c-1.67-.21-2.48-.94-2.48-2.27,0-1.42,1.11-2.4,2.86-2.4,1.54,0,2.25.42,3,1.15l-1.19,1.22c-.46-.46-1.08-.76-1.69-.76-.7,0-.98.25-.98.62,0,.39.17.6.77.69l.83.11c1.6.21,2.42.94,2.42,2.21,0,1.42-1.26,2.45-3.15,2.45-1.42,0-2.34-.48-3.1-1.32Z"/>
      <path class="cls-4" d="m395.6,125.42l1.22-1.23c.52.57,1.15.94,1.95.94s1.09-.27,1.09-.7c0-.36-.22-.55-.74-.62l-.8-.1c-1.67-.21-2.48-.94-2.48-2.27,0-1.42,1.11-2.4,2.86-2.4,1.54,0,2.25.42,3,1.15l-1.19,1.22c-.46-.46-1.08-.76-1.69-.76-.7,0-.98.25-.98.62,0,.39.17.6.77.69l.83.11c1.6.21,2.42.94,2.42,2.21,0,1.42-1.26,2.45-3.15,2.45-1.42,0-2.34-.48-3.1-1.32Z"/>
      <path class="cls-4" d="m408.69,126.57c-.74,0-1.27-.5-1.4-1.29h-.08c-.22.95-1.04,1.46-2.16,1.46-1.47,0-2.28-.87-2.28-2.14,0-1.56,1.2-2.3,3.15-2.3h1.16v-.46c0-.71-.35-1.16-1.22-1.16s-1.26.42-1.58.87l-1.23-1.09c.59-.87,1.43-1.4,2.97-1.4,2.07,0,3.14.95,3.14,2.69v3.22h.69v1.61h-1.15Zm-1.61-2.23v-.87h-1.01c-.8,0-1.22.29-1.22.83v.21c0,.53.35.79.97.79.69,0,1.26-.28,1.26-.95Z"/>
      <path class="cls-4" d="m411.23,126.57v-7.35h2.07v1.6h.07c.17-.81.73-1.6,1.88-1.6h.36v1.93h-.52c-1.21,0-1.79.27-1.79,1.12v4.3h-2.07Z"/>
      <path class="cls-4" d="m421.46,119.22h1.93l-2.83,8.49c-.38,1.13-.99,1.67-2.25,1.67h-1.29v-1.61h1.39l.25-.81-2.58-7.73h2.06l1.08,3.43.53,2.13h.08l.55-2.13,1.08-3.43Z"/>
      <path class="cls-4" d="m423.78,125.61v-.28c0-.64.39-1.12,1.23-1.12s1.23.48,1.23,1.12v.28c0,.64-.39,1.12-1.23,1.12s-1.23-.48-1.23-1.12Z"/>
    </g>
    <g class="cls-2">
      <path class="cls-4" d="m15.49,57.74c1.13,0,2.04-.97,2.04-2.16s-.91-2.16-2.04-2.16-2.04.96-2.04,2.16.91,2.16,2.04,2.16"/>
      <path class="cls-4" d="m15.49,90.91c1.13,0,2.04-.97,2.04-2.16s-.91-2.16-2.04-2.16-2.04.97-2.04,2.16.91,2.16,2.04,2.16"/>
      <path class="cls-4" d="m15.49,124.08c1.13,0,2.04-.97,2.04-2.16s-.91-2.16-2.04-2.16-2.04.97-2.04,2.16.91,2.16,2.04,2.16"/>
    </g>
    <g>
      <path class="cls-4" d="m179.15,21.14v-1.26h1.76v-10.05h-1.76v-1.26h5.04v1.26h-1.76v10.05h1.76v1.26h-5.04Z"/>
      <path class="cls-4" d="m186.8,21.14v-9.29h1.44v1.51h.07c.45-1.04,1.24-1.73,2.63-1.73,1.91,0,3.11,1.3,3.11,3.55v5.96h-1.44v-5.71c0-1.66-.72-2.5-2.11-2.5-1.15,0-2.27.58-2.27,1.76v6.45h-1.44Z"/>
      <path class="cls-4" d="m196.14,19.54l1.03-.83c.72.9,1.58,1.42,2.75,1.42s1.94-.56,1.94-1.51c0-.72-.4-1.28-1.62-1.46l-.74-.11c-1.71-.25-2.99-.96-2.99-2.68,0-1.84,1.42-2.74,3.31-2.74,1.49,0,2.48.56,3.24,1.49l-.95.86c-.41-.58-1.21-1.13-2.39-1.13s-1.82.56-1.82,1.44.63,1.26,1.78,1.44l.72.11c2.05.31,2.84,1.21,2.84,2.61,0,1.8-1.31,2.9-3.44,2.9-1.71,0-2.84-.72-3.67-1.82Z"/>
      <path class="cls-4" d="m205.63,8.86v-.23c0-.49.27-.81.88-.81s.88.32.88.81v.23c0,.49-.27.81-.88.81s-.88-.32-.88-.81Zm.16,2.99h1.44v9.29h-1.44v-9.29Z"/>
      <path class="cls-4" d="m213.62,24.96c-2.9,0-4.09-.83-4.09-2.29,0-1.01.56-1.55,1.48-1.8v-.2c-.52-.25-.83-.67-.83-1.3,0-.94.67-1.39,1.6-1.62v-.07c-1.1-.52-1.75-1.55-1.75-2.84,0-1.89,1.39-3.21,3.49-3.21.67,0,1.26.13,1.76.36v-.16c0-.72.31-1.24,1.08-1.24h1.39v1.26h-1.76v.59c.67.58,1.06,1.4,1.06,2.39,0,1.89-1.39,3.21-3.51,3.21-.31,0-.63-.04-.9-.09-.61.16-1.22.47-1.22,1.04s.58.7,1.42.7h1.98c2.3,0,3.29.94,3.29,2.47,0,1.91-1.51,2.79-4.5,2.79Zm1.22-3.91h-3.1c-.59.27-.86.68-.86,1.26,0,.81.56,1.48,2.02,1.48h1.33c1.6,0,2.54-.5,2.54-1.51,0-.74-.49-1.22-1.93-1.22Zm.7-5.96v-.5c0-1.22-.77-1.8-2-1.8s-2,.58-2,1.8v.5c0,1.22.77,1.8,2,1.8s2-.58,2-1.8Z"/>
      <path class="cls-4" d="m219.79,7.82h1.44v5.55h.07c.45-1.04,1.24-1.73,2.63-1.73,1.91,0,3.11,1.3,3.11,3.55v5.96h-1.44v-5.71c0-1.66-.72-2.5-2.11-2.5-1.15,0-2.27.58-2.27,1.76v6.45h-1.44V7.82Z"/>
      <path class="cls-4" d="m232.07,21.14c-.99,0-1.53-.63-1.53-1.53v-6.5h-1.53v-1.26h.86c.61,0,.81-.22.81-.85v-1.73h1.3v2.57h2.03v1.26h-2.03v6.77h1.89v1.26h-1.8Z"/>
      <path class="cls-4" d="m235.46,19.54l1.03-.83c.72.9,1.58,1.42,2.75,1.42s1.94-.56,1.94-1.51c0-.72-.4-1.28-1.62-1.46l-.74-.11c-1.71-.25-2.99-.96-2.99-2.68,0-1.84,1.42-2.74,3.31-2.74,1.49,0,2.48.56,3.24,1.49l-.95.86c-.41-.58-1.21-1.13-2.39-1.13s-1.82.56-1.82,1.44.63,1.26,1.78,1.44l.72.11c2.05.31,2.84,1.21,2.84,2.61,0,1.8-1.31,2.9-3.44,2.9-1.71,0-2.84-.72-3.67-1.82Z"/>
    </g>
  </g>
</svg>