<?xml version="1.0" encoding="UTF-8"?>
<svg id="Layer_2" data-name="Layer 2" xmlns="http://www.w3.org/2000/svg" xmlns:xlink="http://www.w3.org/1999/xlink" viewBox="0 0 355.06 351.02">
  <defs>
    <style>
      .cls-1 {
        fill: #c8866a;
      }

      .cls-2 {
        stroke-width: 1.26px;
      }

      .cls-2, .cls-3, .cls-4 {
        fill: none;
      }

      .cls-2, .cls-4 {
        stroke: #c8866a;
      }

      .cls-5 {
        letter-spacing: .01em;
      }

      .cls-6 {
        letter-spacing: 0em;
      }

      .cls-7 {
        clip-path: url(#clippath-2);
      }

      .cls-8 {
        fill: #874c33;
      }

      .cls-9 {
        fill: #86b8fd;
      }

      .cls-10 {
        letter-spacing: 0em;
      }

      .cls-11 {
        letter-spacing: .02em;
      }

      .cls-12 {
        letter-spacing: 0em;
      }

      .cls-13 {
        font-size: 20px;
      }

      .cls-13, .cls-14, .cls-15 {
        font-family: MyriadPro-Regular, 'Myriad Pro';
      }

      .cls-13, .cls-16 {
        fill: #0356c9;
      }

      .cls-17 {
        letter-spacing: -.06em;
      }

      .cls-18 {
        letter-spacing: .03em;
      }

      .cls-19 {
        letter-spacing: 0em;
      }

      .cls-20 {
        letter-spacing: -.06em;
      }

      .cls-21 {
        letter-spacing: 0em;
      }

      .cls-22 {
        letter-spacing: 0em;
      }

      .cls-23 {
        clip-path: url(#clippath-1);
      }

      .cls-14 {
        font-size: 14px;
      }

      .cls-14, .cls-15 {
        fill: #1d1d1b;
      }

      .cls-24 {
        letter-spacing: 0em;
      }

      .cls-25 {
        letter-spacing: .02em;
      }

      .cls-26 {
        clip-path: url(#clippath);
      }

      .cls-27 {
        letter-spacing: -.01em;
      }

      .cls-28 {
        letter-spacing: 0em;
      }

      .cls-29 {
        letter-spacing: -.06em;
      }

      .cls-30 {
        letter-spacing: 0em;
      }

      .cls-4 {
        stroke-width: 1.36px;
      }

      .cls-31 {
        letter-spacing: -.01em;
      }

      .cls-32 {
        letter-spacing: 0em;
      }

      .cls-15 {
        font-size: 12px;
      }

      .cls-33 {
        letter-spacing: .01em;
      }

      .cls-34 {
        letter-spacing: 0em;
      }

      .cls-35 {
        letter-spacing: .02em;
      }
    </style>
    <clipPath id="clippath">
      <rect class="cls-3" width="355.06" height="351.02"/>
    </clipPath>
    <clipPath id="clippath-1">
      <rect class="cls-3" width="355.06" height="351.02"/>
    </clipPath>
    <clipPath id="clippath-2">
      <rect class="cls-3" width="355.06" height="351.02"/>
    </clipPath>
  </defs>
  <g id="Layer_1-2" data-name="Layer 1">
    <g class="cls-26">
      <path class="cls-8" d="M179.66,134.21c30.08,0,54.47,24.39,54.47,54.47s-24.39,54.47-54.47,54.47-54.47-24.39-54.47-54.47,24.39-54.47,54.47-54.47m0-26.37c-44.65,0-80.84,36.19-80.84,80.84s36.19,80.84,80.84,80.84,80.84-36.19,80.84-80.84-36.19-80.84-80.84-80.84"/>
      <path class="cls-9" d="M102.45,164.63c10.23-32.91,40.93-56.8,77.2-56.8v26.37c-24.62,0-45.43,16.34-52.17,38.76"/>
      <path class="cls-1" d="M260.19,188.67c0-44.48-36.06-80.53-80.53-80.53v26.07c30.08,0,54.47,24.39,54.47,54.47h26.07Z"/>
      <path class="cls-16" d="M143.04,229c-10.97-9.96-17.86-24.34-17.86-40.33,0-5.46,.8-10.73,2.3-15.71l-25.04-8.34c-2.36,7.59-3.63,15.67-3.63,24.04,0,23,9.61,43.75,25.02,58.48"/>
    </g>
    <text class="cls-14" transform="translate(289.36 248.87)"><tspan class="cls-20" x="0" y="0">F</tspan><tspan class="cls-35" x="6.01" y="0">A</tspan><tspan class="cls-5" x="14.84" y="0">N</tspan><tspan x="24.19" y="0"> </tspan></text>
    <text class="cls-14" transform="translate(267.14 265.67)"><tspan class="cls-35" x="0" y="0">H</tspan><tspan class="cls-11" x="9.39" y="0">E</tspan><tspan class="cls-29" x="16.56" y="0">A</tspan><tspan class="cls-35" x="24.33" y="0">T</tspan><tspan class="cls-25" x="31.56" y="0">E</tspan><tspan x="38.72" y="0">R</tspan></text>
    <text class="cls-14" transform="translate(10.38 63.81)"><tspan class="cls-11" x="0" y="0">INF</tspan><tspan class="cls-18" x="20.22" y="0">R</tspan><tspan class="cls-35" x="28.1" y="0">AR</tspan><tspan class="cls-25" x="44.73" y="0">E</tspan><tspan class="cls-6" x="51.9" y="0">D</tspan><tspan x="61.35" y="0"> </tspan></text>
    <text class="cls-14" transform="translate(10.38 80.61)"><tspan class="cls-35" x="0" y="0">H</tspan><tspan class="cls-11" x="9.39" y="0">E</tspan><tspan class="cls-17" x="16.56" y="0">A</tspan><tspan class="cls-35" x="24.35" y="0">T</tspan><tspan class="cls-11" x="31.57" y="0">E</tspan><tspan class="cls-10" x="38.74" y="0">R</tspan></text>
    <text class="cls-14" transform="translate(222.46 63.81)"><tspan class="cls-35" x="0" y="0">OI</tspan><tspan x="13.52" y="0">L</tspan></text>
    <text class="cls-14" transform="translate(222.46 80.61)"><tspan class="cls-35" x="0" y="0">H</tspan><tspan class="cls-11" x="9.39" y="0">E</tspan><tspan class="cls-29" x="16.56" y="0">A</tspan><tspan class="cls-35" x="24.33" y="0">T</tspan><tspan class="cls-25" x="31.56" y="0">E</tspan><tspan x="38.72" y="0">R</tspan></text>
    <text class="cls-14" transform="translate(10.38 193.19)"><tspan class="cls-25" x="0" y="0">CE</tspan><tspan class="cls-18" x="15.57" y="0">R</tspan><tspan class="cls-33" x="23.45" y="0">A</tspan><tspan class="cls-11" x="32.23" y="0">M</tspan><tspan class="cls-35" x="43.76" y="0">I</tspan><tspan class="cls-5" x="47.38" y="0">C</tspan><tspan x="55.64" y="0"> </tspan></text>
    <text class="cls-14" transform="translate(10.38 209.99)"><tspan class="cls-35" x="0" y="0">H</tspan><tspan class="cls-11" x="9.39" y="0">E</tspan><tspan class="cls-17" x="16.56" y="0">A</tspan><tspan class="cls-35" x="24.35" y="0">T</tspan><tspan class="cls-11" x="31.57" y="0">E</tspan><tspan class="cls-10" x="38.74" y="0">R</tspan></text>
    <g class="cls-23">
      <path class="cls-2" d="M10.24,217.09c2.6-2.33,7.79-2.33,10.39,0,2.6,2.33,7.79,2.33,10.39,0,2.6-2.33,7.79-2.33,10.39,0,2.6,2.33,7.79,2.33,10.39,0,2.6-2.33,7.79-2.33,10.39,0,2.6,2.33,7.79,2.33,10.39,0,2.6-2.33,7.79-2.33,10.39,0,2.6,2.33,7.79,2.33,10.39,0,2.6-2.33,7.79-2.33,10.39,0,2.6,2.33,7.79,2.33,10.39,0"/>
      <path class="cls-2" d="M10.24,96.37c2.39-2.33,7.16-2.33,9.54,0,2.39,2.33,7.16,2.33,9.55,0,2.39-2.33,7.16-2.33,9.55,0,2.39,2.33,7.16,2.33,9.54,0,2.39-2.33,7.16-2.33,9.55,0,2.39,2.33,7.16,2.33,9.54,0,2.39-2.33,7.16-2.33,9.55,0,2.39,2.33,7.16,2.33,9.55,0,2.39-2.33,7.16-2.33,9.54,0,2.39,2.33,7.16,2.33,9.55,0,2.39-2.33,7.16-2.33,9.54,0,2.39,2.33,7.16,2.33,9.55,0,2.39-2.33,7.16-2.33,9.54,0,2.39,2.33,7.16,2.33,9.54,0"/>
      <path class="cls-2" d="M218.31,95.75c2.58-2.33,7.73-2.33,10.31,0,2.58,2.33,7.73,2.33,10.31,0,2.58-2.33,7.73-2.33,10.31,0,2.58,2.33,7.73,2.33,10.31,0,2.58-2.33,7.73-2.33,10.31,0,2.58,2.33,7.73,2.33,10.31,0,2.58-2.33,7.73-2.33,10.31,0,2.58,2.33,7.73,2.33,10.31,0,2.58-2.33,7.73-2.33,10.31,0,2.58,2.33,7.73,2.33,10.31,0"/>
    </g>
    <line class="cls-4" x1="143.89" y1="96.04" x2="156.15" y2="116.48"/>
    <line class="cls-4" x1="218.16" y1="96.04" x2="205.9" y2="116.48"/>
    <line class="cls-4" x1="197.65" y1="259.58" x2="209.92" y2="280.02"/>
    <text class="cls-13" transform="translate(81.78 22)"><tspan x="0" y="0">He</tspan><tspan class="cls-28" x="23.06" y="0">a</tspan><tspan class="cls-22" x="32.62" y="0">t</tspan><tspan class="cls-12" x="39.14" y="0">ers ma</tspan><tspan class="cls-32" x="94.18" y="0">r</tspan><tspan x="100.78" y="0">ket sha</tspan><tspan class="cls-24" x="159.7" y="0">r</tspan><tspan x="166.06" y="0">e</tspan></text>
    <g class="cls-7">
      <path class="cls-2" d="M209.75,279.66c2.58-2.33,7.73-2.33,10.31,0,2.58,2.33,7.73,2.33,10.31,0,2.58-2.33,7.73-2.33,10.31,0,2.58,2.33,7.73,2.33,10.31,0,2.58-2.33,7.73-2.33,10.31,0,2.58,2.33,7.73,2.33,10.31,0,2.58-2.33,7.73-2.33,10.31,0,2.58,2.33,7.73,2.33,10.31,0,2.58-2.33,7.73-2.33,10.31,0,2.58,2.33,7.73,2.33,10.31,0"/>
    </g>
    <text class="cls-15" transform="translate(9 328.18)"><tspan x="0" y="0">popular </tspan><tspan class="cls-19" x="41.94" y="0">w</tspan><tspan class="cls-30" x="50.72" y="0">as </tspan><tspan class="cls-27" x="63.8" y="0">f</tspan><tspan class="cls-21" x="67.16" y="0">ound </tspan><tspan class="cls-22" x="96.33" y="0">t</tspan><tspan x="100.25" y="0">o be fan he</tspan><tspan class="cls-19" x="155.93" y="0">a</tspan><tspan class="cls-34" x="161.66" y="0">t</tspan><tspan x="165.57" y="0">er</tspan><tspan class="cls-31" x="175.51" y="0">s</tspan><tspan x="180.13" y="0">.</tspan></text>
    <text class="cls-15" transform="translate(9.62 315.04)"><tspan x="0" y="0">Each type offers a different method of heating, where the most</tspan></text>
  </g>
</svg>