<?xml version="1.0" encoding="UTF-8"?>
<svg id="Layer_2" data-name="Layer 2" xmlns="http://www.w3.org/2000/svg" xmlns:xlink="http://www.w3.org/1999/xlink" viewBox="0 0 420.97 339.8">
  <defs>
    <style>
      .cls-1 {
        letter-spacing: .01em;
      }

      .cls-2 {
        letter-spacing: 0em;
      }

      .cls-3 {
        letter-spacing: 0em;
      }

      .cls-4 {
        letter-spacing: .02em;
      }

      .cls-5 {
        font-size: 20px;
      }

      .cls-5, .cls-6, .cls-7 {
        font-family: MyriadPro-Regular, 'Myriad Pro';
      }

      .cls-5, .cls-8 {
        fill: #0356c9;
      }

      .cls-9 {
        letter-spacing: .02em;
      }

      .cls-10 {
        letter-spacing: 0em;
      }

      .cls-11 {
        letter-spacing: 0em;
      }

      .cls-12 {
        letter-spacing: 0em;
      }

      .cls-13 {
        clip-path: url(#clippath-1);
      }

      .cls-14 {
        letter-spacing: .01em;
      }

      .cls-15 {
        letter-spacing: 0em;
      }

      .cls-16 {
        letter-spacing: 0em;
      }

      .cls-6 {
        font-size: 14px;
      }

      .cls-6, .cls-7 {
        fill: #1d1d1b;
      }

      .cls-17 {
        letter-spacing: 0em;
      }

      .cls-18 {
        fill: #0357c9;
      }

      .cls-19 {
        letter-spacing: 0em;
      }

      .cls-20 {
        letter-spacing: .02em;
      }

      .cls-21 {
        letter-spacing: .02em;
      }

      .cls-22 {
        clip-path: url(#clippath);
      }

      .cls-23, .cls-24, .cls-25 {
        fill: none;
      }

      .cls-24 {
        stroke: #86b8fd;
        stroke-linejoin: round;
        stroke-width: 5px;
      }

      .cls-26 {
        letter-spacing: 0em;
      }

      .cls-27 {
        letter-spacing: 0em;
      }

      .cls-25 {
        stroke: #c63817;
        stroke-linecap: round;
        stroke-width: 6px;
      }

      .cls-28 {
        letter-spacing: -.06em;
      }

      .cls-29 {
        letter-spacing: 0em;
      }

      .cls-30 {
        letter-spacing: -.01em;
      }

      .cls-31 {
        letter-spacing: 0em;
      }

      .cls-32 {
        letter-spacing: 0em;
      }

      .cls-7 {
        font-size: 12px;
      }

      .cls-33 {
        letter-spacing: .02em;
      }

      .cls-34 {
        letter-spacing: 0em;
      }
    </style>
    <clipPath id="clippath">
      <rect class="cls-23" width="420.97" height="339.8"/>
    </clipPath>
    <clipPath id="clippath-1">
      <rect class="cls-23" width="420.97" height="339.8"/>
    </clipPath>
  </defs>
  <g id="Layer_1-2" data-name="Layer 1">
    <text class="cls-5" transform="translate(86.1 206.3)"><tspan class="cls-31" x="0" y="0">E</tspan><tspan class="cls-12" x="9.78" y="0">c</tspan><tspan x="18.64" y="0">o demand</tspan></text>
    <text class="cls-7" transform="translate(9.75 313.78)"><tspan class="cls-26" x="0" y="0">I</tspan><tspan x="2.98" y="0">nc</tspan><tspan class="cls-17" x="15.01" y="0">r</tspan><tspan class="cls-11" x="18.83" y="0">easing </tspan></text>
    <text class="cls-7" transform="translate(9.75 328.18)"><tspan x="0" y="0">ele</tspan><tspan class="cls-1" x="14.86" y="0">c</tspan><tspan x="20.38" y="0">t</tspan><tspan class="cls-27" x="24.35" y="0">r</tspan><tspan x="28.31" y="0">ici</tspan><tspan class="cls-2" x="39.3" y="0">t</tspan><tspan x="43.38" y="0">y</tspan><tspan class="cls-30" x="49.03" y="0"> </tspan><tspan x="51.46" y="0">p</tspan><tspan class="cls-19" x="58.28" y="0">r</tspan><tspan x="62.25" y="0">i</tspan><tspan class="cls-12" x="65.06" y="0">c</tspan><tspan x="70.38" y="0">es</tspan></text>
    <text class="cls-7" transform="translate(185.64 313.78)"><tspan x="0" y="0">Ene</tspan><tspan class="cls-34" x="18.58" y="0">r</tspan><tspan class="cls-29" x="22.4" y="0">gy s</tspan><tspan class="cls-34" x="42.06" y="0">a</tspan><tspan x="47.75" y="0">ving and </tspan></text>
    <g class="cls-22">
      <path class="cls-8" d="M250.67,262.13c-4.19-2.55-6.75-6.83-6.75-11.39s2.56-8.84,6.75-11.39c4.19,2.55,6.75,6.83,6.75,11.39s-2.56,8.84-6.75,11.39m-45.04-.96v-5.52h11.04v5.52c0,.16-.06,.32-.18,.43-.12,.11-.27,.18-.43,.18h-9.82c-.34,0-.61-.28-.61-.61Zm-3.68-12.88h18.41v3.68h-18.41v-3.68Zm59.15,2.45c0-6.23-3.67-12.03-9.57-15.13-.54-.28-1.18-.28-1.71,0-5.91,3.1-9.58,8.9-9.58,15.13,0,5.88,3.26,11.37,8.59,14.57v14.88c0,.81-.32,1.59-.9,2.17-.57,.58-1.36,.9-2.17,.9h-29.7c-.81,0-1.59-.32-2.17-.9-.57-.58-.9-1.36-.9-2.17v-14.73h3.07c1.14,0,2.23-.45,3.04-1.26,.81-.81,1.26-1.9,1.26-3.04v-5.52h.61c.81,0,1.59-.32,2.17-.9,.58-.57,.9-1.35,.9-2.17v-4.91c0-.81-.32-1.59-.9-2.17s-1.35-.9-2.17-.9h-.61v-7.36c0-.66-.35-1.26-.92-1.59-.57-.33-1.27-.33-1.84,0-.57,.33-.92,.94-.92,1.59v7.36h-11.04v-7.36c0-.66-.35-1.26-.92-1.59-.57-.33-1.27-.33-1.84,0-.57,.33-.92,.94-.92,1.59v7.36h-.61c-.81,0-1.59,.32-2.17,.9-.57,.58-.9,1.36-.9,2.17v4.91c0,.81,.32,1.59,.9,2.17s1.36,.9,2.17,.9h.61v5.52c0,1.14,.45,2.23,1.26,3.04,.81,.81,1.9,1.26,3.04,1.26h3.07v14.73c0,1.79,.71,3.5,1.98,4.77,1.27,1.27,2.98,1.98,4.77,1.98h29.7c1.79,0,3.51-.71,4.77-1.98,1.27-1.27,1.98-2.98,1.98-4.77v-14.88c5.33-3.21,8.59-8.69,8.59-14.57Z"/>
      <path class="cls-8" d="M52.79,276.56c-.91,0-1.81-.03-2.69-.08v-5.41c.88,.05,1.78,.08,2.69,.08,5.51,0,11.07-.96,14.13-2.8v4.46c0,1.27-4.98,3.75-14.13,3.75m-19.21,11.43c-9.14,0-14.13-2.48-14.13-3.76v-4.46c3.06,1.85,8.61,2.8,14.13,2.8s11.07-.96,14.12-2.8v4.46c0,1.28-4.98,3.76-14.12,3.76m0-23.14c1.37,0,2.64,.06,3.82,.15,.02,0,.04,0,.07,0h0c6.65,.57,10.22,2.52,10.22,3.6,0,1.28-4.98,3.76-14.13,3.76s-14.13-2.48-14.13-3.76c0-1.28,5-3.76,14.13-3.76h0Zm-14.13,7.11c3.06,1.85,8.61,2.8,14.13,2.8s11.07-.96,14.12-2.8v4.46c0,1.28-4.98,3.76-14.12,3.76s-14.13-2.48-14.13-3.76v-4.46Zm19.22-11.43c3.06,1.85,8.61,2.8,14.13,2.8s11.07-.96,14.13-2.8v4.46c0,1.28-4.98,3.76-14.13,3.76-.91,0-1.81-.03-2.69-.08v-.05c0-3.2-5.19-5.19-11.43-5.88v-2.2Zm14.12-22.74c9.14,0,14.13,2.48,14.13,3.76h0c-.01,1.28-5,3.76-14.13,3.76s-14.1-2.47-14.12-3.75h0c0-1.28,4.99-3.76,14.12-3.76Zm14.13,11.58c-.01,1.28-5,3.75-14.13,3.75s-14.1-2.47-14.12-3.75v-4.47c3.06,1.85,8.61,2.8,14.12,2.8s11.07-.96,14.13-2.8v4.47Zm0,7.82c-.01,1.28-5,3.75-14.13,3.75s-14.1-2.47-14.12-3.75v-4.47c3.06,1.85,8.61,2.8,14.12,2.8s11.07-.96,14.13-2.8v4.47Zm2.4-7.82h0v-7.8h0v-.03c-.02-4.03-8.32-6.14-16.52-6.14s-16.48,2.1-16.52,6.12v7.84h0v7.82h0v5.37c-.89-.05-1.79-.08-2.69-.08-8.21,0-16.52,2.12-16.52,6.16v15.62c0,4.04,8.31,6.16,16.52,6.16s16.52-2.12,16.52-6.16v-5.36c.88,.05,1.78,.08,2.69,.08,8.21,0,16.52-2.12,16.52-6.16v-15.61h0v-7.83h0Z"/>
    </g>
    <line class="cls-25" x1="81.29" y1="266.57" x2="81.29" y2="228.95"/>
    <polyline class="cls-25" points="72.57 238.33 81.29 228.95 90.01 238.33"/>
    <text class="cls-5" transform="translate(74.91 22)"><tspan class="cls-15" x="0" y="0">C</tspan><tspan x="11.4" y="0">o</tspan><tspan class="cls-10" x="22.38" y="0">n</tspan><tspan class="cls-3" x="33.4" y="0">t</tspan><tspan class="cls-16" x="39.9" y="0">e</tspan><tspan class="cls-14" x="49.88" y="0">x</tspan><tspan class="cls-32" x="59.4" y="0">t choi</tspan><tspan class="cls-3" x="105.98" y="0">c</tspan><tspan x="114.82" y="0">e</tspan></text>
    <text class="cls-6" transform="translate(9.14 150.85)"><tspan class="cls-4" x="0" y="0">B</tspan><tspan class="cls-28" x="7.87" y="0">A</tspan><tspan class="cls-21" x="15.64" y="0">T</tspan><tspan class="cls-20" x="22.88" y="0">H</tspan><tspan class="cls-9" x="32.27" y="0">R</tspan><tspan class="cls-33" x="40.12" y="0">O</tspan><tspan class="cls-4" x="50.04" y="0">O</tspan><tspan x="59.96" y="0">M</tspan></text>
    <text class="cls-6" transform="translate(204.09 150.85)"><tspan class="cls-4" x="0" y="0">BED</tspan><tspan class="cls-9" x="24.64" y="0">R</tspan><tspan class="cls-20" x="32.49" y="0">OO</tspan><tspan x="52.32" y="0">M</tspan></text>
    <g class="cls-13">
      <path class="cls-18" d="M66.91,119c-.49,1.67-1.45,3.14-2.76,4.17-1.3,1.04-2.88,1.59-4.49,1.59H30.2c-1.61,0-3.19-.55-4.49-1.59-1.3-1.04-2.27-2.5-2.76-4.17l-4.3-14.52h52.53l-4.27,14.52Zm-24.29-50.44c1.46,0,2.87,.6,3.94,1.68,1.07,1.08,1.74,2.56,1.85,4.14h-11.6c.12-1.59,.78-3.07,1.86-4.14s2.48-1.68,3.94-1.68Zm32.43,32.82c-.34-.49-.87-.78-1.43-.78H25.38v-34.18c0-1.76,.64-3.44,1.78-4.68s2.69-1.94,4.3-1.94h3.28c1.36,.01,2.68,.51,3.75,1.44,1.07,.92,1.82,2.2,2.13,3.64-2.1,.5-3.98,1.76-5.33,3.58-1.35,1.82-2.09,4.09-2.09,6.43v1.44c0,.52,.19,1.01,.53,1.38,.34,.37,.79,.57,1.27,.57h15.23c.48,0,.93-.21,1.27-.57,.34-.37,.53-.86,.53-1.38v-1.44c0-2.4-.78-4.72-2.19-6.56-1.41-1.84-3.38-3.08-5.55-3.51-.35-2.48-1.51-4.74-3.26-6.38-1.75-1.64-3.98-2.54-6.28-2.54h-3.28c-2.56,0-5.02,1.11-6.83,3.08-1.81,1.97-2.83,4.65-2.83,7.44v34.17h-5.55c-.57,0-1.11,.3-1.45,.8-.34,.5-.43,1.15-.26,1.74l5.02,17.06c.65,2.22,1.88,4.2,3.53,5.68l-2.15,3.48c-.55,.9-.33,2.11,.49,2.71,.82,.6,1.94,.36,2.49-.53l2.29-3.69c1.29,.53,2.65,.79,4.03,.78h29.43c1.39,0,2.77-.28,4.07-.84l2.24,3.69c.25,.46,.66,.78,1.14,.9,.48,.12,.98,.02,1.39-.27,.41-.29,.69-.76,.78-1.28s-.03-1.06-.31-1.49l-2.15-3.52c1.64-1.49,2.85-3.45,3.5-5.66l5.02-17.06h0c.16-.59,.06-1.22-.27-1.71h0Z"/>
      <path class="cls-18" d="M48.03,89.43c0,1.1-.82,2-1.84,2s-1.84-.89-1.84-2,.82-2,1.84-2,1.84,.89,1.84,2"/>
      <path class="cls-18" d="M40.87,89.43c0,1.1-.82,2-1.84,2s-1.84-.89-1.84-2,.82-2,1.84-2,1.84,.89,1.84,2"/>
      <path class="cls-18" d="M51.62,95.33c0,1.1-.82,2-1.84,2s-1.84-.89-1.84-2,.82-2,1.84-2,1.84,.89,1.84,2"/>
      <path class="cls-18" d="M44.45,95.33c0,1.1-.82,2-1.84,2s-1.84-.89-1.84-2,.82-2,1.84-2,1.84,.89,1.84,2"/>
      <path class="cls-18" d="M37.28,95.33c0,1.1-.82,2-1.84,2s-1.84-.89-1.84-2,.82-2,1.84-2,1.84,.89,1.84,2"/>
      <path class="cls-18" d="M44.45,83.51c0,1.1-.82,2-1.84,2s-1.84-.89-1.84-2,.82-2,1.84-2,1.84,.89,1.84,2"/>
      <path class="cls-18" d="M246.1,121.32h3.37v3.28h-3.37v-3.28Zm-58.93,0h3.35v3.28h-3.35v-3.28Zm79.11-18.02h0c-.93,.02-1.67,.76-1.65,1.65v4.92c-.01,.44,.16,.87,.48,1.18,.32,.32,.75,.49,1.2,.49s.89-.18,1.2-.49c.32-.31,.49-.74,.48-1.18v-4.92c0-.44-.17-.87-.5-1.18-.32-.31-.76-.48-1.22-.48h0Zm-5.02-11.42h18.52v32.71h-18.52v-32.71Zm-67.37-1.64h48.84c4.58,0,8.42,4.25,8.42,8.19v19.62h-65.67v-19.62c0-4.56,3.72-8.19,8.41-8.19h0Zm75.56-9.82h.45l1.2,8.19h-2.85l1.19-8.19Zm-43.56,0h6.74c.96,0,1.69,.71,1.69,1.64v4.9h-10.11v-4.91c0-.93,.72-1.64,1.68-1.64h0Zm-21.89,0h6.74c.96,0,1.69,.71,1.69,1.64v4.9h-10.11v-4.91c0-.93,.72-1.64,1.68-1.64h0Zm61.84-9.8h7.67l2.25,6.55h-12.17l2.25-6.55Zm-65.15-3.25h35.35c4.69,0,8.45,3.62,8.43,8.17l-.05,11.42h-6.74v-4.9c0-2.69-2.29-4.9-5.06-4.9h-6.74c-2.77,0-5.04,2.21-5.04,4.9v4.9h-5.06v-4.9c0-2.69-2.28-4.9-5.04-4.9h-6.74c-2.77,0-5.04,2.21-5.04,4.9v4.9h-6.73l.04-11.41c.02-4.57,3.74-8.19,8.43-8.19h0Zm63.76-.02c-.66,.06-1.22,.5-1.43,1.11l-3.35,9.82h0c-.17,.5-.09,1.04,.23,1.47,.32,.42,.82,.68,1.36,.68h4.8l-1.21,8.19h-5.26c-.06,0-.12,0-.17,0-.86,.08-1.52,.79-1.52,1.63v36c0,.43,.18,.85,.5,1.16,.32,.31,.75,.48,1.2,.47h21.89c.93,0,1.67-.73,1.68-1.63v-36c0-.9-.75-1.63-1.68-1.63h-6.97l-1.2-8.19h4.8c.54,0,1.05-.26,1.36-.68,.32-.43,.4-.97,.23-1.47l-3.37-9.82c-.23-.66-.87-1.11-1.59-1.11h-10.11c-.06,0-.12,0-.17,0h0Zm-63.76-3.25c-6.5,0-11.77,5.14-11.8,11.45l-.05,12.54c-3.98,1.84-6.74,5.78-6.74,10.34v21.26h0c0,.43,.18,.85,.5,1.15,.32,.31,.75,.48,1.2,.47v3.27c0,1.78,1.53,3.27,3.37,3.27h3.36c1.84,0,3.37-1.49,3.37-3.27v-3.27s48.84,0,48.84,0v3.27c0,1.78,1.53,3.27,3.37,3.27h3.37c1.84,0,3.37-1.49,3.37-3.27v-3.27c.93,0,1.68-.73,1.68-1.63v-21.26c0-4.26-2.72-8.35-6.73-10.29l.06-12.58c.02-6.32-5.3-11.46-11.8-11.46h-35.35Z"/>
      <path class="cls-25" d="M160.46,306.61c-6.66-4.05-12.09-4.49-21.69-4.49-11.27,0-21.38,3.39-28.3,8.77"/>
      <polyline class="cls-25" points="156.97 294.28 160.46 306.61 147.91 309.19"/>
    </g>
    <rect class="cls-24" x="170.26" y="50.48" width="128.63" height="112.15"/>
    <text class="cls-7" transform="translate(186.48 328.52)"><tspan x="0" y="0">efficient products</tspan></text>
  </g>
</svg>