<?xml version="1.0" encoding="UTF-8"?>
<svg id="Layer_2" data-name="Layer 2" xmlns="http://www.w3.org/2000/svg" xmlns:xlink="http://www.w3.org/1999/xlink" viewBox="0 0 489.21 205.88">
  <defs>
    <style>
      .cls-1 {
        letter-spacing: 0em;
      }

      .cls-2 {
        letter-spacing: -.07em;
      }

      .cls-3 {
        letter-spacing: 0em;
      }

      .cls-4 {
        letter-spacing: 0em;
      }

      .cls-5 {
        letter-spacing: 0em;
      }

      .cls-6 {
        letter-spacing: 0em;
      }

      .cls-7 {
        letter-spacing: -.01em;
      }

      .cls-8 {
        letter-spacing: 0em;
      }

      .cls-9 {
        letter-spacing: 0em;
      }

      .cls-10 {
        letter-spacing: 0em;
      }

      .cls-11 {
        letter-spacing: .01em;
      }

      .cls-12 {
        letter-spacing: 0em;
      }

      .cls-13 {
        letter-spacing: 0em;
      }

      .cls-14 {
        font-size: 14px;
      }

      .cls-14, .cls-15 {
        fill: #1d1d1b;
        font-family: MyriadPro-Regular, 'Myriad Pro';
      }

      .cls-16 {
        letter-spacing: 0em;
      }

      .cls-17 {
        stroke: #af5555;
        stroke-linejoin: round;
        stroke-width: 2px;
      }

      .cls-17, .cls-18 {
        fill: none;
      }

      .cls-19 {
        letter-spacing: 0em;
      }

      .cls-20 {
        letter-spacing: 0em;
      }

      .cls-21 {
        clip-path: url(#clippath);
      }

      .cls-22 {
        fill: #c63b18;
      }

      .cls-23 {
        letter-spacing: 0em;
      }

      .cls-24 {
        letter-spacing: .02em;
      }

      .cls-25 {
        letter-spacing: 0em;
      }

      .cls-26 {
        letter-spacing: .01em;
      }

      .cls-27 {
        letter-spacing: 0em;
      }

      .cls-28 {
        letter-spacing: -.01em;
      }

      .cls-29 {
        letter-spacing: 0em;
      }

      .cls-15 {
        font-size: 20px;
      }
    </style>
    <clipPath id="clippath">
      <rect class="cls-18" width="489.21" height="205.88"/>
    </clipPath>
  </defs>
  <g id="Layer_1-2" data-name="Layer 1">
    <polygon class="cls-22" points="187.8 0 187.8 25.44 149.49 25.68 222.78 91.22 292.2 25.52 253.85 25.44 253.85 0 187.8 0"/>
    <text class="cls-15" transform="translate(187.91 49.52)"><tspan class="cls-3" x="0" y="0">I</tspan><tspan class="cls-29" x="4.96" y="0">nsig</tspan><tspan class="cls-25" x="39.84" y="0">h</tspan><tspan class="cls-10" x="50.86" y="0">ts</tspan></text>
    <text class="cls-14" transform="translate(13.2 117.38)"><tspan class="cls-2" x="0" y="0">Y</tspan><tspan x="6.52" y="0">oung adults (18-30) a</tspan><tspan class="cls-28" x="129.99" y="0">r</tspan><tspan class="cls-9" x="134.43" y="0">e mo</tspan><tspan class="cls-12" x="163.77" y="0">r</tspan><tspan x="168.22" y="0">e likely </tspan><tspan class="cls-8" x="211.23" y="0">t</tspan><tspan x="215.78" y="0">o buy a fan he</tspan><tspan class="cls-19" x="297.75" y="0">a</tspan><tspan class="cls-8" x="304.44" y="0">t</tspan><tspan x="308.99" y="0">er due </tspan><tspan class="cls-1" x="349.14" y="0">t</tspan><tspan x="353.7" y="0">o their li</tspan><tspan class="cls-7" x="401.18" y="0">f</tspan><tspan x="405.08" y="0">es</tspan><tspan class="cls-6" x="417.64" y="0">t</tspan><tspan class="cls-9" x="422.4" y="0">yle</tspan></text>
    <text class="cls-14" transform="translate(13.2 150.98)"><tspan class="cls-1" x="0" y="0">U</tspan><tspan x="8.99" y="0">sers like </tspan><tspan class="cls-5" x="57.76" y="0">t</tspan><tspan class="cls-4" x="62.31" y="0">o i</tspan><tspan class="cls-16" x="76.24" y="0">n</tspan><tspan class="cls-1" x="83.97" y="0">t</tspan><tspan class="cls-9" x="88.53" y="0">e</tspan><tspan class="cls-27" x="95.55" y="0">r</tspan><tspan x="100.06" y="0">a</tspan><tspan class="cls-11" x="106.8" y="0">c</tspan><tspan x="113.24" y="0">t i</tspan><tspan class="cls-19" x="124.12" y="0">n</tspan><tspan class="cls-1" x="131.84" y="0">t</tspan><tspan class="cls-9" x="136.4" y="0">e</tspan><tspan class="cls-27" x="143.41" y="0">r</tspan><tspan x="147.92" y="0">a</tspan><tspan class="cls-26" x="154.67" y="0">c</tspan><tspan class="cls-9" x="161.12" y="0">t with their he</tspan><tspan class="cls-19" x="242.7" y="0">a</tspan><tspan class="cls-8" x="249.39" y="0">t</tspan><tspan class="cls-9" x="253.94" y="0">ers using their </tspan><tspan class="cls-7" x="339.38" y="0">f</tspan><tspan x="343.29" y="0">eet</tspan></text>
    <text class="cls-14" transform="translate(13.2 184.58)"><tspan class="cls-23" x="0" y="0">T</tspan><tspan x="6.86" y="0">he standa</tspan><tspan class="cls-28" x="63.95" y="0">r</tspan><tspan x="68.39" y="0">d the</tspan><tspan class="cls-20" x="98.67" y="0">r</tspan><tspan x="103.29" y="0">most</tspan><tspan class="cls-13" x="132.83" y="0">a</tspan><tspan x="139.54" y="0">t setting is misleading and unne</tspan><tspan class="cls-8" x="325.54" y="0">c</tspan><tspan class="cls-9" x="331.73" y="0">essa</tspan><tspan class="cls-24" x="356.57" y="0">r</tspan><tspan x="361.49" y="0">y</tspan></text>
    <g class="cls-21">
      <ellipse class="cls-17" cx="3.55" cy="113.98" rx="2.55" ry="2.7"/>
      <ellipse class="cls-17" cx="3.55" cy="146.29" rx="2.55" ry="2.7"/>
      <ellipse class="cls-17" cx="3.55" cy="179.32" rx="2.55" ry="2.7"/>
    </g>
  </g>
</svg>